M48
; DRILL file {KiCad 5.1.10-88a1d61d58~88~ubuntu20.10.1} date Thu May 27 19:38:39 2021
; FORMAT={-:-/ absolute / inch / decimal}
; #@! TF.CreationDate,2021-05-27T19:38:39+02:00
; #@! TF.GenerationSoftware,Kicad,Pcbnew,5.1.10-88a1d61d58~88~ubuntu20.10.1
; #@! TF.FileFunction,Plated,1,2,PTH
FMAT,2
INCH
T1C0.0150
T2C0.0157
T3C0.0315
T4C0.0354
T5C0.0394
T6C0.0433
T7C0.0469
T8C0.0591
T9C0.1220
%
G90
G05
T1
X3.8878Y-4.25
T2
X2.9856Y-2.6089
X3.0315Y-3.5827
X3.1181Y-4.1969
X3.1254Y-1.8353
X3.9528Y-3.3465
T3
X2.8504Y-5.2102
X2.8504Y-5.6102
X2.8937Y-4.4622
X2.8937Y-4.8622
X2.9283Y-6.3685
X2.9283Y-6.4685
X2.9283Y-6.5685
X2.9283Y-6.6685
X2.9283Y-6.7685
X2.9283Y-6.8685
X2.9283Y-6.9685
X2.9843Y-7.126
X2.9882Y-5.2102
X2.9882Y-5.6102
X3.1024Y-2.6339
X3.1024Y-2.8307
X3.126Y-5.2102
X3.126Y-5.6102
X3.1811Y-7.126
X3.2204Y-3.8029
X3.2205Y-3.9252
X3.222Y-3.4488
X3.2222Y-3.3271
X3.2283Y-6.3685
X3.2283Y-6.4685
X3.2283Y-6.5685
X3.2283Y-6.6685
X3.2283Y-6.7685
X3.2283Y-6.8685
X3.2283Y-6.9685
X3.2598Y-2.4252
X3.2638Y-5.2102
X3.2638Y-5.6102
X3.2717Y-2.1142
X3.3583Y-2.4252
X3.4559Y-6.4619
X3.4559Y-6.8619
X3.5787Y-6.4622
X3.5787Y-6.8622
X3.5866Y-2.374
X3.6204Y-3.8029
X3.6205Y-3.9252
X3.622Y-3.4488
X3.6222Y-3.3271
X3.6717Y-2.1142
X3.685Y-2.374
X3.7693Y-2.1142
X3.7717Y-6.2575
X3.7717Y-6.6575
X3.7717Y-6.7559
X3.7717Y-7.1559
X3.7874Y-3.3268
X3.7874Y-3.4268
X3.7874Y-3.5268
X3.7874Y-3.6268
X3.7874Y-3.7268
X3.7874Y-3.8268
X3.7874Y-3.9268
X3.8346Y-3.1811
X3.8976Y-6.2559
X3.8976Y-6.6559
X3.8976Y-6.7575
X3.8976Y-7.1575
X3.937Y-2.4252
X4.0315Y-3.1811
X4.0354Y-2.4252
X4.0874Y-3.3268
X4.0874Y-3.4268
X4.0874Y-3.5268
X4.0874Y-3.6268
X4.0874Y-3.7268
X4.0874Y-3.8268
X4.0874Y-3.9268
X4.1055Y-6.4559
X4.1055Y-6.5559
X4.1055Y-6.6559
X4.1055Y-6.7559
X4.1693Y-2.1142
X4.2835Y-1.5433
X4.2835Y-1.6654
X4.2835Y-1.7874
X4.2835Y-1.9094
X4.2835Y-2.0315
X4.2835Y-2.1535
X4.2835Y-2.2756
X4.2835Y-2.3976
X4.2835Y-2.5197
X4.3047Y-6.2008
X4.3047Y-6.3189
X4.3087Y-3.9252
X4.309Y-3.6808
X4.3091Y-3.559
X4.3095Y-3.8032
X4.3535Y-3.3425
X4.3543Y-3.2402
X4.3543Y-3.4449
X4.3575Y-5.7244
X4.3575Y-6.0787
X4.3583Y-5.8425
X4.3583Y-5.9567
X4.378Y-5.2512
X4.378Y-5.5512
X4.4055Y-6.4559
X4.4055Y-6.5559
X4.4055Y-6.6559
X4.4055Y-6.7559
X4.4961Y-5.252
X4.4961Y-5.552
X4.5984Y-6.4559
X4.5984Y-6.7559
X4.626Y-5.1969
X4.626Y-5.5969
X4.6535Y-3.3425
X4.6543Y-3.2402
X4.6543Y-3.4449
X4.6575Y-5.7244
X4.6575Y-6.0787
X4.6583Y-5.8425
X4.6583Y-5.9567
X4.6835Y-1.5433
X4.6835Y-1.6654
X4.6835Y-1.7874
X4.6835Y-1.9094
X4.6835Y-2.0315
X4.6835Y-2.1535
X4.6835Y-2.2756
X4.6835Y-2.3976
X4.6835Y-2.5197
X4.7047Y-6.2008
X4.7047Y-6.3189
X4.7087Y-3.9252
X4.709Y-3.6808
X4.7091Y-3.559
X4.7095Y-3.8032
X4.7362Y-6.4504
X4.7362Y-6.8504
X4.7394Y-2.7835
X4.7394Y-2.9882
X4.7402Y-2.6811
X4.7402Y-2.8858
X4.7638Y-5.1969
X4.7638Y-5.5969
X4.8071Y-3.2323
X4.8071Y-3.5323
X4.8287Y-2.4311
X4.8287Y-2.5492
X4.8819Y-6.3583
X4.8819Y-6.7583
X4.9016Y-5.1969
X4.9016Y-5.5969
X4.9213Y-4.4094
X4.9213Y-4.6063
X4.9213Y-4.7551
X4.9213Y-5.0551
X5.0Y-6.3583
X5.0Y-6.7583
X5.0256Y-2.4311
X5.0256Y-2.5492
X5.0394Y-2.7835
X5.0394Y-2.9882
X5.0394Y-4.7559
X5.0394Y-5.0559
X5.0394Y-5.1969
X5.0394Y-5.5969
X5.0402Y-2.6811
X5.0402Y-2.8858
X5.0413Y-4.4094
X5.0413Y-4.6063
T4
X2.874Y-1.5748
X2.974Y-1.5748
X4.9016Y-1.5748
X5.0016Y-1.5748
T5
X2.9252Y-3.1811
X2.9252Y-3.2811
X2.9252Y-3.3811
X2.9252Y-3.4811
X2.9252Y-3.5811
X2.9252Y-3.6811
X2.9252Y-3.7811
X2.9252Y-3.8811
X2.9252Y-3.9811
X2.9252Y-4.0811
X3.189Y-4.3606
X3.189Y-4.9606
X3.289Y-4.3606
X3.289Y-4.9606
X3.389Y-4.3606
X3.389Y-4.9606
X3.4354Y-4.1654
X3.489Y-4.3606
X3.489Y-4.9606
X3.5354Y-4.1654
X3.5433Y-1.7307
X3.5433Y-1.8307
X3.589Y-4.3606
X3.589Y-4.9606
X3.6433Y-1.7307
X3.6433Y-1.8307
X3.689Y-4.3606
X3.689Y-4.9606
X3.7433Y-1.7307
X3.7433Y-1.8307
X3.7866Y-1.4488
X3.789Y-4.3606
X3.789Y-4.9606
X3.8386Y-5.315
X3.8386Y-5.8858
X3.8433Y-1.7307
X3.8433Y-1.8307
X3.8866Y-1.4488
X3.889Y-4.3606
X3.889Y-4.9606
X3.937Y-5.315
X3.9433Y-1.7307
X3.9433Y-1.8307
X3.9866Y-1.4488
X3.989Y-4.3606
X3.989Y-4.9606
X4.0354Y-5.315
X4.0354Y-5.8858
X4.0866Y-1.4488
X4.089Y-4.3606
X4.089Y-4.9606
X4.189Y-4.3606
X4.189Y-4.9606
X4.289Y-4.3606
X4.289Y-4.9606
X4.389Y-4.3606
X4.389Y-4.9606
X4.489Y-4.3606
X4.489Y-4.9606
X4.5374Y-4.0787
X4.5374Y-4.1787
X4.589Y-4.3606
X4.589Y-4.9606
X4.9409Y-3.1764
X4.9409Y-3.2764
X4.9409Y-3.3764
X4.9409Y-3.4764
X4.9409Y-3.5764
X4.9409Y-3.6764
X4.9409Y-3.7764
X4.9409Y-3.8764
X4.9409Y-3.9764
X4.9409Y-4.0764
T6
X2.8858Y-2.6181
X2.8858Y-2.7181
X2.8858Y-2.8181
X3.2874Y-2.7953
X3.2874Y-3.0512
X3.4646Y-2.7953
X3.4646Y-3.0512
X3.8504Y-2.7953
X3.8504Y-3.0512
X4.0276Y-2.7953
X4.0276Y-3.0512
X4.4094Y-2.7953
X4.4094Y-3.0512
X4.5866Y-2.7953
X4.5866Y-3.0512
T7
X2.9488Y-1.8874
X2.9488Y-1.9874
X2.9488Y-2.0874
X2.9488Y-2.1874
X2.9488Y-2.2874
X2.9528Y-5.748
X2.9528Y-5.848
X2.9528Y-5.948
X2.9528Y-6.048
X2.9528Y-6.148
X3.4646Y-7.0866
X3.5646Y-7.0866
X4.0709Y-7.0866
X4.1709Y-7.0866
X4.5433Y-7.0866
X4.6433Y-7.0866
X4.9213Y-1.8835
X4.9213Y-1.9835
X4.9213Y-2.0835
X4.9213Y-2.1835
X4.9213Y-2.2835
X4.9213Y-5.7417
X4.9213Y-5.8417
X4.9213Y-5.9417
X4.9213Y-6.0417
X4.9213Y-6.1417
T9
X3.622Y-3.0315
X4.252Y-3.0315
T8
G00X3.7165Y-5.5846
M15
G01X3.7165Y-5.6358
M16
G05
G00X4.1575Y-5.5846
M15
G01X4.1575Y-5.6358
M16
G05
T0
M30
