%TF.GenerationSoftware,KiCad,Pcbnew,5.1.10-88a1d61d58~88~ubuntu20.10.1*%
%TF.CreationDate,2021-05-27T19:38:41+02:00*%
%TF.ProjectId,kosmo-multitool,6b6f736d-6f2d-46d7-956c-7469746f6f6c,v1.0.0*%
%TF.SameCoordinates,Original*%
%TF.FileFunction,Soldermask,Bot*%
%TF.FilePolarity,Negative*%
%FSLAX46Y46*%
G04 Gerber Fmt 4.6, Leading zero omitted, Abs format (unit mm)*
G04 Created by KiCad (PCBNEW 5.1.10-88a1d61d58~88~ubuntu20.10.1) date 2021-05-27 19:38:41*
%MOMM*%
%LPD*%
G01*
G04 APERTURE LIST*
%ADD10O,1.600000X1.600000*%
%ADD11C,1.600000*%
%ADD12O,2.400000X1.600000*%
%ADD13R,2.400000X1.600000*%
%ADD14O,1.700000X1.700000*%
%ADD15R,1.700000X1.700000*%
%ADD16C,1.700000*%
%ADD17R,1.600000X1.600000*%
%ADD18O,2.000000X1.905000*%
%ADD19R,2.000000X1.905000*%
%ADD20R,2.000000X2.000000*%
%ADD21C,2.000000*%
%ADD22R,2.000000X3.200000*%
%ADD23O,2.190000X1.740000*%
%ADD24O,1.740000X2.190000*%
%ADD25C,1.800000*%
%ADD26R,1.800000X1.800000*%
G04 APERTURE END LIST*
D10*
%TO.C,R37*%
X127000000Y-171660000D03*
D11*
X127000000Y-161500000D03*
%TD*%
D10*
%TO.C,R36*%
X109340000Y-157500000D03*
D11*
X119500000Y-157500000D03*
%TD*%
D10*
%TO.C,R35*%
X109340000Y-160500000D03*
D11*
X119500000Y-160500000D03*
%TD*%
D10*
%TO.C,R34*%
X124000000Y-171660000D03*
D11*
X124000000Y-161500000D03*
%TD*%
D12*
%TO.C,U2*%
X74380000Y-177000000D03*
X82000000Y-161760000D03*
X74380000Y-174460000D03*
X82000000Y-164300000D03*
X74380000Y-171920000D03*
X82000000Y-166840000D03*
X74380000Y-169380000D03*
X82000000Y-169380000D03*
X74380000Y-166840000D03*
X82000000Y-171920000D03*
X74380000Y-164300000D03*
X82000000Y-174460000D03*
X74380000Y-161760000D03*
D13*
X82000000Y-177000000D03*
%TD*%
D14*
%TO.C,J12*%
X87260000Y-105800000D03*
D15*
X89800000Y-105800000D03*
%TD*%
D14*
%TO.C,J11*%
X115250000Y-106140000D03*
D15*
X115250000Y-103600000D03*
%TD*%
D10*
%TO.C,R14*%
X119609681Y-93491142D03*
D11*
X109449681Y-93491142D03*
%TD*%
D10*
%TO.C,FB2*%
X93260000Y-53700000D03*
D11*
X83100000Y-53700000D03*
%TD*%
D10*
%TO.C,FB1*%
X95740000Y-53700000D03*
D11*
X105900000Y-53700000D03*
%TD*%
D16*
%TO.C,POWER1*%
X100160000Y-43960000D03*
X97620000Y-43960000D03*
X95080000Y-43960000D03*
X92540000Y-43960000D03*
X90000000Y-43960000D03*
X100160000Y-46500000D03*
X97620000Y-46500000D03*
X95080000Y-46500000D03*
X92540000Y-46500000D03*
G36*
G01*
X90600000Y-47350000D02*
X89400000Y-47350000D01*
G75*
G02*
X89150000Y-47100000I0J250000D01*
G01*
X89150000Y-45900000D01*
G75*
G02*
X89400000Y-45650000I250000J0D01*
G01*
X90600000Y-45650000D01*
G75*
G02*
X90850000Y-45900000I0J-250000D01*
G01*
X90850000Y-47100000D01*
G75*
G02*
X90600000Y-47350000I-250000J0D01*
G01*
G37*
%TD*%
D11*
%TO.C,C10*%
X85300000Y-61600000D03*
D17*
X82800000Y-61600000D03*
%TD*%
D11*
%TO.C,C9*%
X93600000Y-60300000D03*
D17*
X91100000Y-60300000D03*
%TD*%
D18*
%TO.C,U4*%
X73300000Y-71580000D03*
X73300000Y-69040000D03*
D19*
X73300000Y-66500000D03*
%TD*%
D12*
%TO.C,U3*%
X104280000Y-171600000D03*
X111900000Y-163980000D03*
X104280000Y-169060000D03*
X111900000Y-166520000D03*
X104280000Y-166520000D03*
X111900000Y-169060000D03*
X104280000Y-163980000D03*
D13*
X111900000Y-171600000D03*
%TD*%
D12*
%TO.C,U1*%
X103820000Y-84500000D03*
X96200000Y-99740000D03*
X103820000Y-87040000D03*
X96200000Y-97200000D03*
X103820000Y-89580000D03*
X96200000Y-94660000D03*
X103820000Y-92120000D03*
X96200000Y-92120000D03*
X103820000Y-94660000D03*
X96200000Y-89580000D03*
X103820000Y-97200000D03*
X96200000Y-87040000D03*
X103820000Y-99740000D03*
D13*
X96200000Y-84500000D03*
%TD*%
D20*
%TO.C,SW4*%
X97500000Y-135000000D03*
D21*
X100000000Y-135000000D03*
X102500000Y-135000000D03*
D22*
X94400000Y-142500000D03*
X105600000Y-142500000D03*
D21*
X97500000Y-149500000D03*
X102500000Y-149500000D03*
%TD*%
%TO.C,SW3*%
X83500000Y-77500000D03*
X88000000Y-77500000D03*
X83500000Y-71000000D03*
X88000000Y-71000000D03*
%TD*%
%TO.C,SW2*%
X97800000Y-77500000D03*
X102300000Y-77500000D03*
X97800000Y-71000000D03*
X102300000Y-71000000D03*
%TD*%
%TO.C,SW1*%
X112000000Y-77500000D03*
X116500000Y-77500000D03*
X112000000Y-71000000D03*
X116500000Y-71000000D03*
%TD*%
D10*
%TO.C,R33*%
X99000000Y-171640000D03*
D11*
X99000000Y-181800000D03*
%TD*%
D10*
%TO.C,R32*%
X90900000Y-164140000D03*
D11*
X90900000Y-174300000D03*
%TD*%
D10*
%TO.C,R31*%
X95800000Y-181760000D03*
D11*
X95800000Y-171600000D03*
%TD*%
D10*
%TO.C,R30*%
X87779735Y-174292949D03*
D11*
X87779735Y-164132949D03*
%TD*%
D10*
%TO.C,R29*%
X95800000Y-158940000D03*
D11*
X95800000Y-169100000D03*
%TD*%
D10*
%TO.C,R28*%
X99000000Y-169060000D03*
D11*
X99000000Y-158900000D03*
%TD*%
D10*
%TO.C,R27*%
X118960000Y-39200000D03*
D11*
X108800000Y-39200000D03*
%TD*%
D10*
%TO.C,R26*%
X73500000Y-113340000D03*
D11*
X73500000Y-123500000D03*
%TD*%
D10*
%TO.C,R25*%
X120300000Y-163840000D03*
D11*
X120300000Y-174000000D03*
%TD*%
D10*
%TO.C,R24*%
X82900000Y-132340000D03*
D11*
X82900000Y-142500000D03*
%TD*%
D10*
%TO.C,R23*%
X79400000Y-132340000D03*
D11*
X79400000Y-142500000D03*
%TD*%
D10*
%TO.C,R22*%
X75900000Y-132340000D03*
D11*
X75900000Y-142500000D03*
%TD*%
D10*
%TO.C,R21*%
X72400000Y-132340000D03*
D11*
X72400000Y-142500000D03*
%TD*%
D10*
%TO.C,R20*%
X128000000Y-142160000D03*
D11*
X128000000Y-132000000D03*
%TD*%
D10*
%TO.C,R19*%
X121000000Y-142160000D03*
D11*
X121000000Y-132000000D03*
%TD*%
D10*
%TO.C,R18*%
X109451509Y-90397762D03*
D11*
X119611509Y-90397762D03*
%TD*%
D10*
%TO.C,R17*%
X91960000Y-99700000D03*
D11*
X81800000Y-99700000D03*
%TD*%
D10*
%TO.C,R16*%
X118960000Y-42300000D03*
D11*
X108800000Y-42300000D03*
%TD*%
D10*
%TO.C,R15*%
X118960000Y-57800000D03*
D11*
X108800000Y-57800000D03*
%TD*%
D10*
%TO.C,R13*%
X81799272Y-96594282D03*
D11*
X91959272Y-96594282D03*
%TD*%
D10*
%TO.C,R12*%
X118960000Y-45400000D03*
D11*
X108800000Y-45400000D03*
%TD*%
D10*
%TO.C,R11*%
X118960000Y-54700000D03*
D11*
X108800000Y-54700000D03*
%TD*%
D10*
%TO.C,R10*%
X92004263Y-84509355D03*
D11*
X81844263Y-84509355D03*
%TD*%
D10*
%TO.C,R9*%
X109440000Y-99700000D03*
D11*
X119600000Y-99700000D03*
%TD*%
D10*
%TO.C,R8*%
X81840000Y-87600000D03*
D11*
X92000000Y-87600000D03*
%TD*%
D10*
%TO.C,R7*%
X124500000Y-142160000D03*
D11*
X124500000Y-132000000D03*
%TD*%
D10*
%TO.C,R6*%
X117500000Y-142160000D03*
D11*
X117500000Y-132000000D03*
%TD*%
D10*
%TO.C,R5*%
X119622020Y-96600014D03*
D11*
X109462020Y-96600014D03*
%TD*%
D10*
%TO.C,R4*%
X118960000Y-51600000D03*
D11*
X108800000Y-51600000D03*
%TD*%
D10*
%TO.C,R3*%
X118960000Y-64000000D03*
D11*
X108800000Y-64000000D03*
%TD*%
D10*
%TO.C,R2*%
X118960000Y-48500000D03*
D11*
X108800000Y-48500000D03*
%TD*%
D10*
%TO.C,R1*%
X118960000Y-60900000D03*
D11*
X108800000Y-60900000D03*
%TD*%
D23*
%TO.C,J10*%
X74900000Y-47940000D03*
X74900000Y-50480000D03*
X74900000Y-53020000D03*
X74900000Y-55560000D03*
G36*
G01*
X75745001Y-58970000D02*
X74054999Y-58970000D01*
G75*
G02*
X73805000Y-58720001I0J249999D01*
G01*
X73805000Y-57479999D01*
G75*
G02*
X74054999Y-57230000I249999J0D01*
G01*
X75745001Y-57230000D01*
G75*
G02*
X75995000Y-57479999I0J-249999D01*
G01*
X75995000Y-58720001D01*
G75*
G02*
X75745001Y-58970000I-249999J0D01*
G01*
G37*
%TD*%
%TO.C,J9*%
X125000000Y-47840000D03*
X125000000Y-50380000D03*
X125000000Y-52920000D03*
X125000000Y-55460000D03*
G36*
G01*
X125845001Y-58870000D02*
X124154999Y-58870000D01*
G75*
G02*
X123905000Y-58620001I0J249999D01*
G01*
X123905000Y-57379999D01*
G75*
G02*
X124154999Y-57130000I249999J0D01*
G01*
X125845001Y-57130000D01*
G75*
G02*
X126095000Y-57379999I0J-249999D01*
G01*
X126095000Y-58620001D01*
G75*
G02*
X125845001Y-58870000I-249999J0D01*
G01*
G37*
%TD*%
D14*
%TO.C,J8*%
X74300000Y-103660000D03*
X74300000Y-101120000D03*
X74300000Y-98580000D03*
X74300000Y-96040000D03*
X74300000Y-93500000D03*
X74300000Y-90960000D03*
X74300000Y-88420000D03*
X74300000Y-85880000D03*
X74300000Y-83340000D03*
D15*
X74300000Y-80800000D03*
%TD*%
D24*
%TO.C,J7*%
X105940000Y-180000000D03*
G36*
G01*
X102530000Y-180845001D02*
X102530000Y-179154999D01*
G75*
G02*
X102779999Y-178905000I249999J0D01*
G01*
X104020001Y-178905000D01*
G75*
G02*
X104270000Y-179154999I0J-249999D01*
G01*
X104270000Y-180845001D01*
G75*
G02*
X104020001Y-181095000I-249999J0D01*
G01*
X102779999Y-181095000D01*
G75*
G02*
X102530000Y-180845001I0J249999D01*
G01*
G37*
%TD*%
%TO.C,J6*%
X90540000Y-180000000D03*
G36*
G01*
X87130000Y-180845001D02*
X87130000Y-179154999D01*
G75*
G02*
X87379999Y-178905000I249999J0D01*
G01*
X88620001Y-178905000D01*
G75*
G02*
X88870000Y-179154999I0J-249999D01*
G01*
X88870000Y-180845001D01*
G75*
G02*
X88620001Y-181095000I-249999J0D01*
G01*
X87379999Y-181095000D01*
G75*
G02*
X87130000Y-180845001I0J249999D01*
G01*
G37*
%TD*%
D14*
%TO.C,J5*%
X125500000Y-80680000D03*
X125500000Y-83220000D03*
X125500000Y-85760000D03*
X125500000Y-88300000D03*
X125500000Y-90840000D03*
X125500000Y-93380000D03*
X125500000Y-95920000D03*
X125500000Y-98460000D03*
X125500000Y-101000000D03*
D15*
X125500000Y-103540000D03*
%TD*%
D23*
%TO.C,J4*%
X75000000Y-156160000D03*
X75000000Y-153620000D03*
X75000000Y-151080000D03*
X75000000Y-148540000D03*
G36*
G01*
X74154999Y-145130000D02*
X75845001Y-145130000D01*
G75*
G02*
X76095000Y-145379999I0J-249999D01*
G01*
X76095000Y-146620001D01*
G75*
G02*
X75845001Y-146870000I-249999J0D01*
G01*
X74154999Y-146870000D01*
G75*
G02*
X73905000Y-146620001I0J249999D01*
G01*
X73905000Y-145379999D01*
G75*
G02*
X74154999Y-145130000I249999J0D01*
G01*
G37*
%TD*%
%TO.C,J3*%
X125000000Y-145840000D03*
X125000000Y-148380000D03*
X125000000Y-150920000D03*
X125000000Y-153460000D03*
G36*
G01*
X125845001Y-156870000D02*
X124154999Y-156870000D01*
G75*
G02*
X123905000Y-156620001I0J249999D01*
G01*
X123905000Y-155379999D01*
G75*
G02*
X124154999Y-155130000I249999J0D01*
G01*
X125845001Y-155130000D01*
G75*
G02*
X126095000Y-155379999I0J-249999D01*
G01*
X126095000Y-156620001D01*
G75*
G02*
X125845001Y-156870000I-249999J0D01*
G01*
G37*
%TD*%
D14*
%TO.C,J2*%
X96180000Y-36800000D03*
X98720000Y-36800000D03*
X101260000Y-36800000D03*
D15*
X103800000Y-36800000D03*
%TD*%
D24*
%TO.C,J1*%
X117940000Y-180000000D03*
G36*
G01*
X114530000Y-180845001D02*
X114530000Y-179154999D01*
G75*
G02*
X114779999Y-178905000I249999J0D01*
G01*
X116020001Y-178905000D01*
G75*
G02*
X116270000Y-179154999I0J-249999D01*
G01*
X116270000Y-180845001D01*
G75*
G02*
X116020001Y-181095000I-249999J0D01*
G01*
X114779999Y-181095000D01*
G75*
G02*
X114530000Y-180845001I0J249999D01*
G01*
G37*
%TD*%
D10*
%TO.C,D19*%
X116800000Y-163980000D03*
D17*
X116800000Y-171600000D03*
%TD*%
D25*
%TO.C,D18*%
X127040000Y-40000000D03*
D26*
X124500000Y-40000000D03*
%TD*%
D25*
%TO.C,D17*%
X75540000Y-40000000D03*
D26*
X73000000Y-40000000D03*
%TD*%
D10*
%TO.C,D16*%
X125000000Y-120780000D03*
D17*
X125000000Y-128400000D03*
%TD*%
D10*
%TO.C,D15*%
X128000000Y-128420000D03*
D17*
X128000000Y-120800000D03*
%TD*%
D10*
%TO.C,D14*%
X110680000Y-154400000D03*
D17*
X118300000Y-154400000D03*
%TD*%
D10*
%TO.C,D13*%
X118320000Y-151300000D03*
D17*
X110700000Y-151300000D03*
%TD*%
D10*
%TO.C,D12*%
X128020000Y-68100000D03*
D17*
X120400000Y-68100000D03*
%TD*%
D10*
%TO.C,D11*%
X120380000Y-70700000D03*
D17*
X128000000Y-70700000D03*
%TD*%
D10*
%TO.C,D10*%
X122100000Y-89720000D03*
D17*
X122100000Y-82100000D03*
%TD*%
D10*
%TO.C,D9*%
X118220000Y-82300000D03*
D17*
X110600000Y-82300000D03*
%TD*%
D10*
%TO.C,D8*%
X114200000Y-141020000D03*
D17*
X114200000Y-133400000D03*
%TD*%
D10*
%TO.C,D7*%
X111200000Y-133380000D03*
D17*
X111200000Y-141000000D03*
%TD*%
D10*
%TO.C,D6*%
X110680000Y-145400000D03*
D17*
X118300000Y-145400000D03*
%TD*%
D10*
%TO.C,D5*%
X118320000Y-148400000D03*
D17*
X110700000Y-148400000D03*
%TD*%
D10*
%TO.C,D4*%
X128020000Y-73300000D03*
D17*
X120400000Y-73300000D03*
%TD*%
D10*
%TO.C,D3*%
X120380000Y-75900000D03*
D17*
X128000000Y-75900000D03*
%TD*%
D10*
%TO.C,D2*%
X110580000Y-84900000D03*
D17*
X118200000Y-84900000D03*
%TD*%
D10*
%TO.C,D1*%
X118220000Y-87500000D03*
D17*
X110600000Y-87500000D03*
%TD*%
D11*
%TO.C,C8*%
X80800000Y-181000000D03*
X75800000Y-181000000D03*
%TD*%
%TO.C,C7*%
X78800000Y-66900000D03*
X78800000Y-71900000D03*
%TD*%
%TO.C,C6*%
X102400000Y-80800000D03*
X97400000Y-80800000D03*
%TD*%
%TO.C,C5*%
X100000000Y-61600000D03*
D17*
X102500000Y-61600000D03*
%TD*%
D11*
%TO.C,C4*%
X127650000Y-64750000D03*
X122650000Y-64750000D03*
%TD*%
%TO.C,C3*%
X128050000Y-117000000D03*
X128050000Y-112000000D03*
%TD*%
%TO.C,C2*%
X127650000Y-61750000D03*
X122650000Y-61750000D03*
%TD*%
%TO.C,C1*%
X125000000Y-117000000D03*
X125000000Y-112000000D03*
%TD*%
D10*
%TO.C,A1*%
X116560000Y-110760000D03*
X116560000Y-126000000D03*
X81000000Y-110760000D03*
X114020000Y-126000000D03*
X83540000Y-110760000D03*
X111480000Y-126000000D03*
X86080000Y-110760000D03*
X108940000Y-126000000D03*
X88620000Y-110760000D03*
X106400000Y-126000000D03*
X91160000Y-110760000D03*
X103860000Y-126000000D03*
X93700000Y-110760000D03*
X101320000Y-126000000D03*
X96240000Y-110760000D03*
X98780000Y-126000000D03*
X98780000Y-110760000D03*
X96240000Y-126000000D03*
X101320000Y-110760000D03*
X93700000Y-126000000D03*
X103860000Y-110760000D03*
X91160000Y-126000000D03*
X106400000Y-110760000D03*
X88620000Y-126000000D03*
X108940000Y-110760000D03*
X86080000Y-126000000D03*
X111480000Y-110760000D03*
X83540000Y-126000000D03*
X114020000Y-110760000D03*
D17*
X81000000Y-126000000D03*
%TD*%
M02*
