%TF.GenerationSoftware,KiCad,Pcbnew,5.1.10-88a1d61d58~88~ubuntu20.10.1*%
%TF.CreationDate,2021-05-27T19:38:41+02:00*%
%TF.ProjectId,kosmo-multitool,6b6f736d-6f2d-46d7-956c-7469746f6f6c,v1.0.0*%
%TF.SameCoordinates,Original*%
%TF.FileFunction,Legend,Bot*%
%TF.FilePolarity,Positive*%
%FSLAX46Y46*%
G04 Gerber Fmt 4.6, Leading zero omitted, Abs format (unit mm)*
G04 Created by KiCad (PCBNEW 5.1.10-88a1d61d58~88~ubuntu20.10.1) date 2021-05-27 19:38:41*
%MOMM*%
%LPD*%
G01*
G04 APERTURE LIST*
%ADD10C,0.100000*%
%ADD11C,0.150000*%
%ADD12C,0.120000*%
%ADD13C,0.010000*%
G04 APERTURE END LIST*
D10*
X104716666Y-39050000D02*
X104183333Y-39050000D01*
X104450000Y-39316666D02*
X104450000Y-38783333D01*
X103516666Y-38616666D02*
X103850000Y-38616666D01*
X103883333Y-38950000D01*
X103850000Y-38916666D01*
X103783333Y-38883333D01*
X103616666Y-38883333D01*
X103550000Y-38916666D01*
X103516666Y-38950000D01*
X103483333Y-39016666D01*
X103483333Y-39183333D01*
X103516666Y-39250000D01*
X103550000Y-39283333D01*
X103616666Y-39316666D01*
X103783333Y-39316666D01*
X103850000Y-39283333D01*
X103883333Y-39250000D01*
X103283333Y-38616666D02*
X103050000Y-39316666D01*
X102816666Y-38616666D01*
X101683333Y-38650000D02*
X101750000Y-38616666D01*
X101850000Y-38616666D01*
X101950000Y-38650000D01*
X102016666Y-38716666D01*
X102050000Y-38783333D01*
X102083333Y-38916666D01*
X102083333Y-39016666D01*
X102050000Y-39150000D01*
X102016666Y-39216666D01*
X101950000Y-39283333D01*
X101850000Y-39316666D01*
X101783333Y-39316666D01*
X101683333Y-39283333D01*
X101650000Y-39250000D01*
X101650000Y-39016666D01*
X101783333Y-39016666D01*
X101350000Y-39316666D02*
X101350000Y-38616666D01*
X100950000Y-39316666D01*
X100950000Y-38616666D01*
X100616666Y-39316666D02*
X100616666Y-38616666D01*
X100450000Y-38616666D01*
X100350000Y-38650000D01*
X100283333Y-38716666D01*
X100250000Y-38783333D01*
X100216666Y-38916666D01*
X100216666Y-39016666D01*
X100250000Y-39150000D01*
X100283333Y-39216666D01*
X100350000Y-39283333D01*
X100450000Y-39316666D01*
X100616666Y-39316666D01*
X99416666Y-39283333D02*
X99316666Y-39316666D01*
X99150000Y-39316666D01*
X99083333Y-39283333D01*
X99050000Y-39250000D01*
X99016666Y-39183333D01*
X99016666Y-39116666D01*
X99050000Y-39050000D01*
X99083333Y-39016666D01*
X99150000Y-38983333D01*
X99283333Y-38950000D01*
X99350000Y-38916666D01*
X99383333Y-38883333D01*
X99416666Y-38816666D01*
X99416666Y-38750000D01*
X99383333Y-38683333D01*
X99350000Y-38650000D01*
X99283333Y-38616666D01*
X99116666Y-38616666D01*
X99016666Y-38650000D01*
X98316666Y-39250000D02*
X98350000Y-39283333D01*
X98450000Y-39316666D01*
X98516666Y-39316666D01*
X98616666Y-39283333D01*
X98683333Y-39216666D01*
X98716666Y-39150000D01*
X98750000Y-39016666D01*
X98750000Y-38916666D01*
X98716666Y-38783333D01*
X98683333Y-38716666D01*
X98616666Y-38650000D01*
X98516666Y-38616666D01*
X98450000Y-38616666D01*
X98350000Y-38650000D01*
X98316666Y-38683333D01*
X97683333Y-39316666D02*
X98016666Y-39316666D01*
X98016666Y-38616666D01*
X96950000Y-39283333D02*
X96850000Y-39316666D01*
X96683333Y-39316666D01*
X96616666Y-39283333D01*
X96583333Y-39250000D01*
X96550000Y-39183333D01*
X96550000Y-39116666D01*
X96583333Y-39050000D01*
X96616666Y-39016666D01*
X96683333Y-38983333D01*
X96816666Y-38950000D01*
X96883333Y-38916666D01*
X96916666Y-38883333D01*
X96950000Y-38816666D01*
X96950000Y-38750000D01*
X96916666Y-38683333D01*
X96883333Y-38650000D01*
X96816666Y-38616666D01*
X96650000Y-38616666D01*
X96550000Y-38650000D01*
X96250000Y-39316666D02*
X96250000Y-38616666D01*
X96083333Y-38616666D01*
X95983333Y-38650000D01*
X95916666Y-38716666D01*
X95883333Y-38783333D01*
X95850000Y-38916666D01*
X95850000Y-39016666D01*
X95883333Y-39150000D01*
X95916666Y-39216666D01*
X95983333Y-39283333D01*
X96083333Y-39316666D01*
X96250000Y-39316666D01*
X95583333Y-39116666D02*
X95250000Y-39116666D01*
X95650000Y-39316666D02*
X95416666Y-38616666D01*
X95183333Y-39316666D01*
D11*
X126452380Y-168380952D02*
X127166666Y-168380952D01*
X127309523Y-168333333D01*
X127404761Y-168238095D01*
X127452380Y-168095238D01*
X127452380Y-168000000D01*
X127452380Y-169333333D02*
X127452380Y-168857142D01*
X126452380Y-168857142D01*
X127357142Y-170238095D02*
X127404761Y-170190476D01*
X127452380Y-170047619D01*
X127452380Y-169952380D01*
X127404761Y-169809523D01*
X127309523Y-169714285D01*
X127214285Y-169666666D01*
X127023809Y-169619047D01*
X126880952Y-169619047D01*
X126690476Y-169666666D01*
X126595238Y-169714285D01*
X126500000Y-169809523D01*
X126452380Y-169952380D01*
X126452380Y-170047619D01*
X126500000Y-170190476D01*
X126547619Y-170238095D01*
X126452380Y-170952380D02*
X127166666Y-170952380D01*
X127309523Y-170904761D01*
X127404761Y-170809523D01*
X127452380Y-170666666D01*
X127452380Y-170571428D01*
X127452380Y-171904761D02*
X127452380Y-171428571D01*
X126452380Y-171428571D01*
X127357142Y-172809523D02*
X127404761Y-172761904D01*
X127452380Y-172619047D01*
X127452380Y-172523809D01*
X127404761Y-172380952D01*
X127309523Y-172285714D01*
X127214285Y-172238095D01*
X127023809Y-172190476D01*
X126880952Y-172190476D01*
X126690476Y-172238095D01*
X126595238Y-172285714D01*
X126500000Y-172380952D01*
X126452380Y-172523809D01*
X126452380Y-172619047D01*
X126500000Y-172761904D01*
X126547619Y-172809523D01*
X126452380Y-173523809D02*
X127166666Y-173523809D01*
X127309523Y-173476190D01*
X127404761Y-173380952D01*
X127452380Y-173238095D01*
X127452380Y-173142857D01*
X127452380Y-174476190D02*
X127452380Y-174000000D01*
X126452380Y-174000000D01*
X127357142Y-175380952D02*
X127404761Y-175333333D01*
X127452380Y-175190476D01*
X127452380Y-175095238D01*
X127404761Y-174952380D01*
X127309523Y-174857142D01*
X127214285Y-174809523D01*
X127023809Y-174761904D01*
X126880952Y-174761904D01*
X126690476Y-174809523D01*
X126595238Y-174857142D01*
X126500000Y-174952380D01*
X126452380Y-175095238D01*
X126452380Y-175190476D01*
X126500000Y-175333333D01*
X126547619Y-175380952D01*
X126452380Y-176095238D02*
X127166666Y-176095238D01*
X127309523Y-176047619D01*
X127404761Y-175952380D01*
X127452380Y-175809523D01*
X127452380Y-175714285D01*
X127452380Y-177047619D02*
X127452380Y-176571428D01*
X126452380Y-176571428D01*
X127357142Y-177952380D02*
X127404761Y-177904761D01*
X127452380Y-177761904D01*
X127452380Y-177666666D01*
X127404761Y-177523809D01*
X127309523Y-177428571D01*
X127214285Y-177380952D01*
X127023809Y-177333333D01*
X126880952Y-177333333D01*
X126690476Y-177380952D01*
X126595238Y-177428571D01*
X126500000Y-177523809D01*
X126452380Y-177666666D01*
X126452380Y-177761904D01*
X126500000Y-177904761D01*
X126547619Y-177952380D01*
X111452380Y-116152380D02*
X111452380Y-115152380D01*
X111071428Y-115152380D01*
X110976190Y-115200000D01*
X110928571Y-115247619D01*
X110880952Y-115342857D01*
X110880952Y-115485714D01*
X110928571Y-115580952D01*
X110976190Y-115628571D01*
X111071428Y-115676190D01*
X111452380Y-115676190D01*
X110309523Y-116152380D02*
X110404761Y-116104761D01*
X110452380Y-116057142D01*
X110500000Y-115961904D01*
X110500000Y-115676190D01*
X110452380Y-115580952D01*
X110404761Y-115533333D01*
X110309523Y-115485714D01*
X110166666Y-115485714D01*
X110071428Y-115533333D01*
X110023809Y-115580952D01*
X109976190Y-115676190D01*
X109976190Y-115961904D01*
X110023809Y-116057142D01*
X110071428Y-116104761D01*
X110166666Y-116152380D01*
X110309523Y-116152380D01*
X109404761Y-116152380D02*
X109500000Y-116104761D01*
X109547619Y-116009523D01*
X109547619Y-115152380D01*
X109119047Y-115485714D02*
X108880952Y-116152380D01*
X108642857Y-115485714D02*
X108880952Y-116152380D01*
X108976190Y-116390476D01*
X109023809Y-116438095D01*
X109119047Y-116485714D01*
X108261904Y-116152380D02*
X108261904Y-115152380D01*
X108166666Y-115771428D02*
X107880952Y-116152380D01*
X107880952Y-115485714D02*
X108261904Y-115866666D01*
X107452380Y-116152380D02*
X107452380Y-115485714D01*
X107452380Y-115152380D02*
X107500000Y-115200000D01*
X107452380Y-115247619D01*
X107404761Y-115200000D01*
X107452380Y-115152380D01*
X107452380Y-115247619D01*
X107119047Y-115485714D02*
X106738095Y-115485714D01*
X106976190Y-115152380D02*
X106976190Y-116009523D01*
X106928571Y-116104761D01*
X106833333Y-116152380D01*
X106738095Y-116152380D01*
X105642857Y-116152380D02*
X105642857Y-115152380D01*
X105071428Y-116152380D02*
X105500000Y-115580952D01*
X105071428Y-115152380D02*
X105642857Y-115723809D01*
X104500000Y-116152380D02*
X104595238Y-116104761D01*
X104642857Y-116057142D01*
X104690476Y-115961904D01*
X104690476Y-115676190D01*
X104642857Y-115580952D01*
X104595238Y-115533333D01*
X104500000Y-115485714D01*
X104357142Y-115485714D01*
X104261904Y-115533333D01*
X104214285Y-115580952D01*
X104166666Y-115676190D01*
X104166666Y-115961904D01*
X104214285Y-116057142D01*
X104261904Y-116104761D01*
X104357142Y-116152380D01*
X104500000Y-116152380D01*
X103785714Y-116104761D02*
X103690476Y-116152380D01*
X103500000Y-116152380D01*
X103404761Y-116104761D01*
X103357142Y-116009523D01*
X103357142Y-115961904D01*
X103404761Y-115866666D01*
X103500000Y-115819047D01*
X103642857Y-115819047D01*
X103738095Y-115771428D01*
X103785714Y-115676190D01*
X103785714Y-115628571D01*
X103738095Y-115533333D01*
X103642857Y-115485714D01*
X103500000Y-115485714D01*
X103404761Y-115533333D01*
X102928571Y-116152380D02*
X102928571Y-115485714D01*
X102928571Y-115580952D02*
X102880952Y-115533333D01*
X102785714Y-115485714D01*
X102642857Y-115485714D01*
X102547619Y-115533333D01*
X102500000Y-115628571D01*
X102500000Y-116152380D01*
X102500000Y-115628571D02*
X102452380Y-115533333D01*
X102357142Y-115485714D01*
X102214285Y-115485714D01*
X102119047Y-115533333D01*
X102071428Y-115628571D01*
X102071428Y-116152380D01*
X101452380Y-116152380D02*
X101547619Y-116104761D01*
X101595238Y-116057142D01*
X101642857Y-115961904D01*
X101642857Y-115676190D01*
X101595238Y-115580952D01*
X101547619Y-115533333D01*
X101452380Y-115485714D01*
X101309523Y-115485714D01*
X101214285Y-115533333D01*
X101166666Y-115580952D01*
X101119047Y-115676190D01*
X101119047Y-115961904D01*
X101166666Y-116057142D01*
X101214285Y-116104761D01*
X101309523Y-116152380D01*
X101452380Y-116152380D01*
X99928571Y-116152380D02*
X99928571Y-115152380D01*
X99595238Y-115866666D01*
X99261904Y-115152380D01*
X99261904Y-116152380D01*
X98357142Y-115485714D02*
X98357142Y-116152380D01*
X98785714Y-115485714D02*
X98785714Y-116009523D01*
X98738095Y-116104761D01*
X98642857Y-116152380D01*
X98500000Y-116152380D01*
X98404761Y-116104761D01*
X98357142Y-116057142D01*
X97738095Y-116152380D02*
X97833333Y-116104761D01*
X97880952Y-116009523D01*
X97880952Y-115152380D01*
X97500000Y-115485714D02*
X97119047Y-115485714D01*
X97357142Y-115152380D02*
X97357142Y-116009523D01*
X97309523Y-116104761D01*
X97214285Y-116152380D01*
X97119047Y-116152380D01*
X96785714Y-116152380D02*
X96785714Y-115485714D01*
X96785714Y-115152380D02*
X96833333Y-115200000D01*
X96785714Y-115247619D01*
X96738095Y-115200000D01*
X96785714Y-115152380D01*
X96785714Y-115247619D01*
X96452380Y-115485714D02*
X96071428Y-115485714D01*
X96309523Y-115152380D02*
X96309523Y-116009523D01*
X96261904Y-116104761D01*
X96166666Y-116152380D01*
X96071428Y-116152380D01*
X95595238Y-116152380D02*
X95690476Y-116104761D01*
X95738095Y-116057142D01*
X95785714Y-115961904D01*
X95785714Y-115676190D01*
X95738095Y-115580952D01*
X95690476Y-115533333D01*
X95595238Y-115485714D01*
X95452380Y-115485714D01*
X95357142Y-115533333D01*
X95309523Y-115580952D01*
X95261904Y-115676190D01*
X95261904Y-115961904D01*
X95309523Y-116057142D01*
X95357142Y-116104761D01*
X95452380Y-116152380D01*
X95595238Y-116152380D01*
X94690476Y-116152380D02*
X94785714Y-116104761D01*
X94833333Y-116057142D01*
X94880952Y-115961904D01*
X94880952Y-115676190D01*
X94833333Y-115580952D01*
X94785714Y-115533333D01*
X94690476Y-115485714D01*
X94547619Y-115485714D01*
X94452380Y-115533333D01*
X94404761Y-115580952D01*
X94357142Y-115676190D01*
X94357142Y-115961904D01*
X94404761Y-116057142D01*
X94452380Y-116104761D01*
X94547619Y-116152380D01*
X94690476Y-116152380D01*
X93785714Y-116152380D02*
X93880952Y-116104761D01*
X93928571Y-116009523D01*
X93928571Y-115152380D01*
X92738095Y-115485714D02*
X92500000Y-116152380D01*
X92261904Y-115485714D01*
X91357142Y-116152380D02*
X91928571Y-116152380D01*
X91642857Y-116152380D02*
X91642857Y-115152380D01*
X91738095Y-115295238D01*
X91833333Y-115390476D01*
X91928571Y-115438095D01*
X90928571Y-116057142D02*
X90880952Y-116104761D01*
X90928571Y-116152380D01*
X90976190Y-116104761D01*
X90928571Y-116057142D01*
X90928571Y-116152380D01*
X90261904Y-115152380D02*
X90166666Y-115152380D01*
X90071428Y-115200000D01*
X90023809Y-115247619D01*
X89976190Y-115342857D01*
X89928571Y-115533333D01*
X89928571Y-115771428D01*
X89976190Y-115961904D01*
X90023809Y-116057142D01*
X90071428Y-116104761D01*
X90166666Y-116152380D01*
X90261904Y-116152380D01*
X90357142Y-116104761D01*
X90404761Y-116057142D01*
X90452380Y-115961904D01*
X90500000Y-115771428D01*
X90500000Y-115533333D01*
X90452380Y-115342857D01*
X90404761Y-115247619D01*
X90357142Y-115200000D01*
X90261904Y-115152380D01*
X89500000Y-116057142D02*
X89452380Y-116104761D01*
X89500000Y-116152380D01*
X89547619Y-116104761D01*
X89500000Y-116057142D01*
X89500000Y-116152380D01*
X88833333Y-115152380D02*
X88738095Y-115152380D01*
X88642857Y-115200000D01*
X88595238Y-115247619D01*
X88547619Y-115342857D01*
X88500000Y-115533333D01*
X88500000Y-115771428D01*
X88547619Y-115961904D01*
X88595238Y-116057142D01*
X88642857Y-116104761D01*
X88738095Y-116152380D01*
X88833333Y-116152380D01*
X88928571Y-116104761D01*
X88976190Y-116057142D01*
X89023809Y-115961904D01*
X89071428Y-115771428D01*
X89071428Y-115533333D01*
X89023809Y-115342857D01*
X88976190Y-115247619D01*
X88928571Y-115200000D01*
X88833333Y-115152380D01*
X106261904Y-116802380D02*
X106261904Y-117516666D01*
X106309523Y-117659523D01*
X106404761Y-117754761D01*
X106547619Y-117802380D01*
X106642857Y-117802380D01*
X105357142Y-117802380D02*
X105357142Y-117278571D01*
X105404761Y-117183333D01*
X105500000Y-117135714D01*
X105690476Y-117135714D01*
X105785714Y-117183333D01*
X105357142Y-117754761D02*
X105452380Y-117802380D01*
X105690476Y-117802380D01*
X105785714Y-117754761D01*
X105833333Y-117659523D01*
X105833333Y-117564285D01*
X105785714Y-117469047D01*
X105690476Y-117421428D01*
X105452380Y-117421428D01*
X105357142Y-117373809D01*
X104880952Y-117135714D02*
X104880952Y-117802380D01*
X104880952Y-117230952D02*
X104833333Y-117183333D01*
X104738095Y-117135714D01*
X104595238Y-117135714D01*
X104500000Y-117183333D01*
X104452380Y-117278571D01*
X104452380Y-117802380D01*
X103214285Y-117802380D02*
X103214285Y-116802380D01*
X102642857Y-117802380D02*
X103071428Y-117230952D01*
X102642857Y-116802380D02*
X103214285Y-117373809D01*
X102214285Y-117135714D02*
X102214285Y-117802380D01*
X102214285Y-117230952D02*
X102166666Y-117183333D01*
X102071428Y-117135714D01*
X101928571Y-117135714D01*
X101833333Y-117183333D01*
X101785714Y-117278571D01*
X101785714Y-117802380D01*
X101309523Y-117802380D02*
X101309523Y-117135714D01*
X101309523Y-116802380D02*
X101357142Y-116850000D01*
X101309523Y-116897619D01*
X101261904Y-116850000D01*
X101309523Y-116802380D01*
X101309523Y-116897619D01*
X100833333Y-117135714D02*
X100833333Y-118135714D01*
X100833333Y-117183333D02*
X100738095Y-117135714D01*
X100547619Y-117135714D01*
X100452380Y-117183333D01*
X100404761Y-117230952D01*
X100357142Y-117326190D01*
X100357142Y-117611904D01*
X100404761Y-117707142D01*
X100452380Y-117754761D01*
X100547619Y-117802380D01*
X100738095Y-117802380D01*
X100833333Y-117754761D01*
X99928571Y-117135714D02*
X99928571Y-118135714D01*
X99928571Y-117183333D02*
X99833333Y-117135714D01*
X99642857Y-117135714D01*
X99547619Y-117183333D01*
X99500000Y-117230952D01*
X99452380Y-117326190D01*
X99452380Y-117611904D01*
X99500000Y-117707142D01*
X99547619Y-117754761D01*
X99642857Y-117802380D01*
X99833333Y-117802380D01*
X99928571Y-117754761D01*
X98642857Y-117754761D02*
X98738095Y-117802380D01*
X98928571Y-117802380D01*
X99023809Y-117754761D01*
X99071428Y-117659523D01*
X99071428Y-117278571D01*
X99023809Y-117183333D01*
X98928571Y-117135714D01*
X98738095Y-117135714D01*
X98642857Y-117183333D01*
X98595238Y-117278571D01*
X98595238Y-117373809D01*
X99071428Y-117469047D01*
X98166666Y-117802380D02*
X98166666Y-117135714D01*
X98166666Y-117326190D02*
X98119047Y-117230952D01*
X98071428Y-117183333D01*
X97976190Y-117135714D01*
X97880952Y-117135714D01*
X96833333Y-116897619D02*
X96785714Y-116850000D01*
X96690476Y-116802380D01*
X96452380Y-116802380D01*
X96357142Y-116850000D01*
X96309523Y-116897619D01*
X96261904Y-116992857D01*
X96261904Y-117088095D01*
X96309523Y-117230952D01*
X96880952Y-117802380D01*
X96261904Y-117802380D01*
X95642857Y-116802380D02*
X95547619Y-116802380D01*
X95452380Y-116850000D01*
X95404761Y-116897619D01*
X95357142Y-116992857D01*
X95309523Y-117183333D01*
X95309523Y-117421428D01*
X95357142Y-117611904D01*
X95404761Y-117707142D01*
X95452380Y-117754761D01*
X95547619Y-117802380D01*
X95642857Y-117802380D01*
X95738095Y-117754761D01*
X95785714Y-117707142D01*
X95833333Y-117611904D01*
X95880952Y-117421428D01*
X95880952Y-117183333D01*
X95833333Y-116992857D01*
X95785714Y-116897619D01*
X95738095Y-116850000D01*
X95642857Y-116802380D01*
X94928571Y-116897619D02*
X94880952Y-116850000D01*
X94785714Y-116802380D01*
X94547619Y-116802380D01*
X94452380Y-116850000D01*
X94404761Y-116897619D01*
X94357142Y-116992857D01*
X94357142Y-117088095D01*
X94404761Y-117230952D01*
X94976190Y-117802380D01*
X94357142Y-117802380D01*
X93404761Y-117802380D02*
X93976190Y-117802380D01*
X93690476Y-117802380D02*
X93690476Y-116802380D01*
X93785714Y-116945238D01*
X93880952Y-117040476D01*
X93976190Y-117088095D01*
X106452380Y-118785714D02*
X106452380Y-119595238D01*
X106500000Y-119690476D01*
X106547619Y-119738095D01*
X106642857Y-119785714D01*
X106785714Y-119785714D01*
X106880952Y-119738095D01*
X106452380Y-119404761D02*
X106547619Y-119452380D01*
X106738095Y-119452380D01*
X106833333Y-119404761D01*
X106880952Y-119357142D01*
X106928571Y-119261904D01*
X106928571Y-118976190D01*
X106880952Y-118880952D01*
X106833333Y-118833333D01*
X106738095Y-118785714D01*
X106547619Y-118785714D01*
X106452380Y-118833333D01*
X105976190Y-119452380D02*
X105976190Y-118785714D01*
X105976190Y-118452380D02*
X106023809Y-118500000D01*
X105976190Y-118547619D01*
X105928571Y-118500000D01*
X105976190Y-118452380D01*
X105976190Y-118547619D01*
X105642857Y-118785714D02*
X105261904Y-118785714D01*
X105500000Y-118452380D02*
X105500000Y-119309523D01*
X105452380Y-119404761D01*
X105357142Y-119452380D01*
X105261904Y-119452380D01*
X104928571Y-119452380D02*
X104928571Y-118452380D01*
X104500000Y-119452380D02*
X104500000Y-118928571D01*
X104547619Y-118833333D01*
X104642857Y-118785714D01*
X104785714Y-118785714D01*
X104880952Y-118833333D01*
X104928571Y-118880952D01*
X103595238Y-118785714D02*
X103595238Y-119452380D01*
X104023809Y-118785714D02*
X104023809Y-119309523D01*
X103976190Y-119404761D01*
X103880952Y-119452380D01*
X103738095Y-119452380D01*
X103642857Y-119404761D01*
X103595238Y-119357142D01*
X103119047Y-119452380D02*
X103119047Y-118452380D01*
X103119047Y-118833333D02*
X103023809Y-118785714D01*
X102833333Y-118785714D01*
X102738095Y-118833333D01*
X102690476Y-118880952D01*
X102642857Y-118976190D01*
X102642857Y-119261904D01*
X102690476Y-119357142D01*
X102738095Y-119404761D01*
X102833333Y-119452380D01*
X103023809Y-119452380D01*
X103119047Y-119404761D01*
X102214285Y-119357142D02*
X102166666Y-119404761D01*
X102214285Y-119452380D01*
X102261904Y-119404761D01*
X102214285Y-119357142D01*
X102214285Y-119452380D01*
X101309523Y-119404761D02*
X101404761Y-119452380D01*
X101595238Y-119452380D01*
X101690476Y-119404761D01*
X101738095Y-119357142D01*
X101785714Y-119261904D01*
X101785714Y-118976190D01*
X101738095Y-118880952D01*
X101690476Y-118833333D01*
X101595238Y-118785714D01*
X101404761Y-118785714D01*
X101309523Y-118833333D01*
X100738095Y-119452380D02*
X100833333Y-119404761D01*
X100880952Y-119357142D01*
X100928571Y-119261904D01*
X100928571Y-118976190D01*
X100880952Y-118880952D01*
X100833333Y-118833333D01*
X100738095Y-118785714D01*
X100595238Y-118785714D01*
X100500000Y-118833333D01*
X100452380Y-118880952D01*
X100404761Y-118976190D01*
X100404761Y-119261904D01*
X100452380Y-119357142D01*
X100500000Y-119404761D01*
X100595238Y-119452380D01*
X100738095Y-119452380D01*
X99976190Y-119452380D02*
X99976190Y-118785714D01*
X99976190Y-118880952D02*
X99928571Y-118833333D01*
X99833333Y-118785714D01*
X99690476Y-118785714D01*
X99595238Y-118833333D01*
X99547619Y-118928571D01*
X99547619Y-119452380D01*
X99547619Y-118928571D02*
X99500000Y-118833333D01*
X99404761Y-118785714D01*
X99261904Y-118785714D01*
X99166666Y-118833333D01*
X99119047Y-118928571D01*
X99119047Y-119452380D01*
X97928571Y-118404761D02*
X98785714Y-119690476D01*
X97595238Y-118785714D02*
X97595238Y-119785714D01*
X97595238Y-118833333D02*
X97500000Y-118785714D01*
X97309523Y-118785714D01*
X97214285Y-118833333D01*
X97166666Y-118880952D01*
X97119047Y-118976190D01*
X97119047Y-119261904D01*
X97166666Y-119357142D01*
X97214285Y-119404761D01*
X97309523Y-119452380D01*
X97500000Y-119452380D01*
X97595238Y-119404761D01*
X96547619Y-119452380D02*
X96642857Y-119404761D01*
X96690476Y-119357142D01*
X96738095Y-119261904D01*
X96738095Y-118976190D01*
X96690476Y-118880952D01*
X96642857Y-118833333D01*
X96547619Y-118785714D01*
X96404761Y-118785714D01*
X96309523Y-118833333D01*
X96261904Y-118880952D01*
X96214285Y-118976190D01*
X96214285Y-119261904D01*
X96261904Y-119357142D01*
X96309523Y-119404761D01*
X96404761Y-119452380D01*
X96547619Y-119452380D01*
X95642857Y-119452380D02*
X95738095Y-119404761D01*
X95785714Y-119309523D01*
X95785714Y-118452380D01*
X95357142Y-118785714D02*
X95119047Y-119452380D01*
X94880952Y-118785714D02*
X95119047Y-119452380D01*
X95214285Y-119690476D01*
X95261904Y-119738095D01*
X95357142Y-119785714D01*
X94500000Y-119452380D02*
X94500000Y-118452380D01*
X94404761Y-119071428D02*
X94119047Y-119452380D01*
X94119047Y-118785714D02*
X94500000Y-119166666D01*
X93690476Y-119452380D02*
X93690476Y-118785714D01*
X93690476Y-118452380D02*
X93738095Y-118500000D01*
X93690476Y-118547619D01*
X93642857Y-118500000D01*
X93690476Y-118452380D01*
X93690476Y-118547619D01*
X93357142Y-118785714D02*
X92976190Y-118785714D01*
X93214285Y-118452380D02*
X93214285Y-119309523D01*
X93166666Y-119404761D01*
X93071428Y-119452380D01*
X92976190Y-119452380D01*
X108428571Y-122466666D02*
X107952380Y-122466666D01*
X108523809Y-122752380D02*
X108190476Y-121752380D01*
X107857142Y-122752380D01*
X107380952Y-122752380D02*
X107476190Y-122704761D01*
X107523809Y-122609523D01*
X107523809Y-121752380D01*
X106857142Y-122752380D02*
X106952380Y-122704761D01*
X107000000Y-122609523D01*
X107000000Y-121752380D01*
X105285714Y-122752380D02*
X105285714Y-121752380D01*
X105285714Y-122704761D02*
X105380952Y-122752380D01*
X105571428Y-122752380D01*
X105666666Y-122704761D01*
X105714285Y-122657142D01*
X105761904Y-122561904D01*
X105761904Y-122276190D01*
X105714285Y-122180952D01*
X105666666Y-122133333D01*
X105571428Y-122085714D01*
X105380952Y-122085714D01*
X105285714Y-122133333D01*
X104809523Y-122752380D02*
X104809523Y-122085714D01*
X104809523Y-121752380D02*
X104857142Y-121800000D01*
X104809523Y-121847619D01*
X104761904Y-121800000D01*
X104809523Y-121752380D01*
X104809523Y-121847619D01*
X104190476Y-122752380D02*
X104285714Y-122704761D01*
X104333333Y-122657142D01*
X104380952Y-122561904D01*
X104380952Y-122276190D01*
X104333333Y-122180952D01*
X104285714Y-122133333D01*
X104190476Y-122085714D01*
X104047619Y-122085714D01*
X103952380Y-122133333D01*
X103904761Y-122180952D01*
X103857142Y-122276190D01*
X103857142Y-122561904D01*
X103904761Y-122657142D01*
X103952380Y-122704761D01*
X104047619Y-122752380D01*
X104190476Y-122752380D01*
X103000000Y-122752380D02*
X103000000Y-121752380D01*
X103000000Y-122704761D02*
X103095238Y-122752380D01*
X103285714Y-122752380D01*
X103380952Y-122704761D01*
X103428571Y-122657142D01*
X103476190Y-122561904D01*
X103476190Y-122276190D01*
X103428571Y-122180952D01*
X103380952Y-122133333D01*
X103285714Y-122085714D01*
X103095238Y-122085714D01*
X103000000Y-122133333D01*
X102142857Y-122704761D02*
X102238095Y-122752380D01*
X102428571Y-122752380D01*
X102523809Y-122704761D01*
X102571428Y-122609523D01*
X102571428Y-122228571D01*
X102523809Y-122133333D01*
X102428571Y-122085714D01*
X102238095Y-122085714D01*
X102142857Y-122133333D01*
X102095238Y-122228571D01*
X102095238Y-122323809D01*
X102571428Y-122419047D01*
X101714285Y-122704761D02*
X101619047Y-122752380D01*
X101428571Y-122752380D01*
X101333333Y-122704761D01*
X101285714Y-122609523D01*
X101285714Y-122561904D01*
X101333333Y-122466666D01*
X101428571Y-122419047D01*
X101571428Y-122419047D01*
X101666666Y-122371428D01*
X101714285Y-122276190D01*
X101714285Y-122228571D01*
X101666666Y-122133333D01*
X101571428Y-122085714D01*
X101428571Y-122085714D01*
X101333333Y-122133333D01*
X99666666Y-122752380D02*
X99666666Y-122228571D01*
X99714285Y-122133333D01*
X99809523Y-122085714D01*
X100000000Y-122085714D01*
X100095238Y-122133333D01*
X99666666Y-122704761D02*
X99761904Y-122752380D01*
X100000000Y-122752380D01*
X100095238Y-122704761D01*
X100142857Y-122609523D01*
X100142857Y-122514285D01*
X100095238Y-122419047D01*
X100000000Y-122371428D01*
X99761904Y-122371428D01*
X99666666Y-122323809D01*
X99190476Y-122752380D02*
X99190476Y-122085714D01*
X99190476Y-122276190D02*
X99142857Y-122180952D01*
X99095238Y-122133333D01*
X99000000Y-122085714D01*
X98904761Y-122085714D01*
X98190476Y-122704761D02*
X98285714Y-122752380D01*
X98476190Y-122752380D01*
X98571428Y-122704761D01*
X98619047Y-122609523D01*
X98619047Y-122228571D01*
X98571428Y-122133333D01*
X98476190Y-122085714D01*
X98285714Y-122085714D01*
X98190476Y-122133333D01*
X98142857Y-122228571D01*
X98142857Y-122323809D01*
X98619047Y-122419047D01*
X96428571Y-122752380D02*
X97000000Y-122752380D01*
X96714285Y-122752380D02*
X96714285Y-121752380D01*
X96809523Y-121895238D01*
X96904761Y-121990476D01*
X97000000Y-122038095D01*
X96000000Y-122752380D02*
X96000000Y-121752380D01*
X95428571Y-122752380D01*
X95428571Y-121752380D01*
X94523809Y-122085714D02*
X94523809Y-122752380D01*
X94761904Y-121704761D02*
X95000000Y-122419047D01*
X94380952Y-122419047D01*
X93476190Y-122752380D02*
X94047619Y-122752380D01*
X93761904Y-122752380D02*
X93761904Y-121752380D01*
X93857142Y-121895238D01*
X93952380Y-121990476D01*
X94047619Y-122038095D01*
X92619047Y-122085714D02*
X92619047Y-122752380D01*
X92857142Y-121704761D02*
X93095238Y-122419047D01*
X92476190Y-122419047D01*
X91952380Y-122180952D02*
X92047619Y-122133333D01*
X92095238Y-122085714D01*
X92142857Y-121990476D01*
X92142857Y-121942857D01*
X92095238Y-121847619D01*
X92047619Y-121800000D01*
X91952380Y-121752380D01*
X91761904Y-121752380D01*
X91666666Y-121800000D01*
X91619047Y-121847619D01*
X91571428Y-121942857D01*
X91571428Y-121990476D01*
X91619047Y-122085714D01*
X91666666Y-122133333D01*
X91761904Y-122180952D01*
X91952380Y-122180952D01*
X92047619Y-122228571D01*
X92095238Y-122276190D01*
X92142857Y-122371428D01*
X92142857Y-122561904D01*
X92095238Y-122657142D01*
X92047619Y-122704761D01*
X91952380Y-122752380D01*
X91761904Y-122752380D01*
X91666666Y-122704761D01*
X91619047Y-122657142D01*
X91571428Y-122561904D01*
X91571428Y-122371428D01*
X91619047Y-122276190D01*
X91666666Y-122228571D01*
X91761904Y-122180952D01*
X111435714Y-50678571D02*
X112292857Y-50678571D01*
X111864285Y-50678571D02*
X111864285Y-49178571D01*
X112007142Y-49392857D01*
X112150000Y-49535714D01*
X112292857Y-49607142D01*
X110792857Y-50535714D02*
X110721428Y-50607142D01*
X110792857Y-50678571D01*
X110864285Y-50607142D01*
X110792857Y-50535714D01*
X110792857Y-50678571D01*
X110221428Y-49178571D02*
X109292857Y-49178571D01*
X109792857Y-49750000D01*
X109578571Y-49750000D01*
X109435714Y-49821428D01*
X109364285Y-49892857D01*
X109292857Y-50035714D01*
X109292857Y-50392857D01*
X109364285Y-50535714D01*
X109435714Y-50607142D01*
X109578571Y-50678571D01*
X110007142Y-50678571D01*
X110150000Y-50607142D01*
X110221428Y-50535714D01*
X108721428Y-49178571D02*
X108721428Y-49464285D01*
X108150000Y-49178571D02*
X108150000Y-49464285D01*
X106078571Y-49178571D02*
X105792857Y-49178571D01*
X105650000Y-49250000D01*
X105507142Y-49392857D01*
X105435714Y-49678571D01*
X105435714Y-50178571D01*
X105507142Y-50464285D01*
X105650000Y-50607142D01*
X105792857Y-50678571D01*
X106078571Y-50678571D01*
X106221428Y-50607142D01*
X106364285Y-50464285D01*
X106435714Y-50178571D01*
X106435714Y-49678571D01*
X106364285Y-49392857D01*
X106221428Y-49250000D01*
X106078571Y-49178571D01*
X104078571Y-50678571D02*
X104792857Y-50678571D01*
X104792857Y-49178571D01*
X103578571Y-49892857D02*
X103078571Y-49892857D01*
X102864285Y-50678571D02*
X103578571Y-50678571D01*
X103578571Y-49178571D01*
X102864285Y-49178571D01*
X102221428Y-50678571D02*
X102221428Y-49178571D01*
X101864285Y-49178571D01*
X101650000Y-49250000D01*
X101507142Y-49392857D01*
X101435714Y-49535714D01*
X101364285Y-49821428D01*
X101364285Y-50035714D01*
X101435714Y-50321428D01*
X101507142Y-50464285D01*
X101650000Y-50607142D01*
X101864285Y-50678571D01*
X102221428Y-50678571D01*
X99578571Y-50678571D02*
X99578571Y-49178571D01*
X98935714Y-49321428D02*
X98864285Y-49250000D01*
X98721428Y-49178571D01*
X98364285Y-49178571D01*
X98221428Y-49250000D01*
X98150000Y-49321428D01*
X98078571Y-49464285D01*
X98078571Y-49607142D01*
X98150000Y-49821428D01*
X99007142Y-50678571D01*
X98078571Y-50678571D01*
X96578571Y-50535714D02*
X96650000Y-50607142D01*
X96864285Y-50678571D01*
X97007142Y-50678571D01*
X97221428Y-50607142D01*
X97364285Y-50464285D01*
X97435714Y-50321428D01*
X97507142Y-50035714D01*
X97507142Y-49821428D01*
X97435714Y-49535714D01*
X97364285Y-49392857D01*
X97221428Y-49250000D01*
X97007142Y-49178571D01*
X96864285Y-49178571D01*
X96650000Y-49250000D01*
X96578571Y-49321428D01*
X94150000Y-50678571D02*
X94150000Y-49178571D01*
X94150000Y-50607142D02*
X94292857Y-50678571D01*
X94578571Y-50678571D01*
X94721428Y-50607142D01*
X94792857Y-50535714D01*
X94864285Y-50392857D01*
X94864285Y-49964285D01*
X94792857Y-49821428D01*
X94721428Y-49750000D01*
X94578571Y-49678571D01*
X94292857Y-49678571D01*
X94150000Y-49750000D01*
X93435714Y-50678571D02*
X93435714Y-49678571D01*
X93435714Y-49178571D02*
X93507142Y-49250000D01*
X93435714Y-49321428D01*
X93364285Y-49250000D01*
X93435714Y-49178571D01*
X93435714Y-49321428D01*
X92792857Y-50607142D02*
X92650000Y-50678571D01*
X92364285Y-50678571D01*
X92221428Y-50607142D01*
X92150000Y-50464285D01*
X92150000Y-50392857D01*
X92221428Y-50250000D01*
X92364285Y-50178571D01*
X92578571Y-50178571D01*
X92721428Y-50107142D01*
X92792857Y-49964285D01*
X92792857Y-49892857D01*
X92721428Y-49750000D01*
X92578571Y-49678571D01*
X92364285Y-49678571D01*
X92221428Y-49750000D01*
X91507142Y-49678571D02*
X91507142Y-51178571D01*
X91507142Y-49750000D02*
X91364285Y-49678571D01*
X91078571Y-49678571D01*
X90935714Y-49750000D01*
X90864285Y-49821428D01*
X90792857Y-49964285D01*
X90792857Y-50392857D01*
X90864285Y-50535714D01*
X90935714Y-50607142D01*
X91078571Y-50678571D01*
X91364285Y-50678571D01*
X91507142Y-50607142D01*
X89935714Y-50678571D02*
X90078571Y-50607142D01*
X90150000Y-50464285D01*
X90150000Y-49178571D01*
X88721428Y-50678571D02*
X88721428Y-49892857D01*
X88792857Y-49750000D01*
X88935714Y-49678571D01*
X89221428Y-49678571D01*
X89364285Y-49750000D01*
X88721428Y-50607142D02*
X88864285Y-50678571D01*
X89221428Y-50678571D01*
X89364285Y-50607142D01*
X89435714Y-50464285D01*
X89435714Y-50321428D01*
X89364285Y-50178571D01*
X89221428Y-50107142D01*
X88864285Y-50107142D01*
X88721428Y-50035714D01*
X88150000Y-49678571D02*
X87792857Y-50678571D01*
X87435714Y-49678571D02*
X87792857Y-50678571D01*
X87935714Y-51035714D01*
X88007142Y-51107142D01*
X88150000Y-51178571D01*
D12*
X82000000Y-69000000D02*
X82000000Y-35000000D01*
X118000000Y-69000000D02*
X82000000Y-69000000D01*
X118000000Y-35000000D02*
X118000000Y-69000000D01*
D13*
%TO.C,G\u002A\u002A\u002A*%
G36*
X115780523Y-115052771D02*
G01*
X115755750Y-115137704D01*
X115719497Y-115270781D01*
X115673543Y-115445225D01*
X115619672Y-115654265D01*
X115559668Y-115891125D01*
X115495309Y-116149031D01*
X115489186Y-116173765D01*
X115204747Y-117323489D01*
X114006468Y-117407324D01*
X113702714Y-117429331D01*
X113436342Y-117450161D01*
X113211884Y-117469384D01*
X113033873Y-117486569D01*
X112906841Y-117501286D01*
X112835320Y-117513108D01*
X112820796Y-117519732D01*
X112849766Y-117542525D01*
X112926635Y-117594766D01*
X113045286Y-117672516D01*
X113199605Y-117771839D01*
X113383472Y-117888797D01*
X113590772Y-118019452D01*
X113810133Y-118156595D01*
X114034773Y-118297228D01*
X114242184Y-118428482D01*
X114426197Y-118546345D01*
X114580646Y-118646806D01*
X114699363Y-118725856D01*
X114776180Y-118779483D01*
X114804830Y-118803425D01*
X114802052Y-118843155D01*
X114785271Y-118936178D01*
X114756288Y-119074280D01*
X114716907Y-119249251D01*
X114668926Y-119452881D01*
X114614151Y-119676959D01*
X114605758Y-119710634D01*
X114521823Y-120047007D01*
X114452328Y-120326782D01*
X114396154Y-120554928D01*
X114352180Y-120736413D01*
X114319287Y-120876203D01*
X114296355Y-120979266D01*
X114282265Y-121050569D01*
X114275898Y-121095082D01*
X114276133Y-121117769D01*
X114281852Y-121123599D01*
X114287961Y-121120716D01*
X114319563Y-121095213D01*
X114394087Y-121033611D01*
X114505840Y-120940659D01*
X114649129Y-120821108D01*
X114818258Y-120679710D01*
X115007535Y-120521212D01*
X115203835Y-120356603D01*
X115406588Y-120187044D01*
X115594417Y-120031068D01*
X115761703Y-119893258D01*
X115902830Y-119778195D01*
X116012175Y-119690461D01*
X116084122Y-119634638D01*
X116112917Y-119615308D01*
X116145378Y-119631124D01*
X116225388Y-119676999D01*
X116346747Y-119749178D01*
X116503254Y-119843909D01*
X116688708Y-119957440D01*
X116896908Y-120086018D01*
X117117008Y-120222988D01*
X117342155Y-120363508D01*
X117551034Y-120493683D01*
X117737346Y-120609603D01*
X117894795Y-120707357D01*
X118017085Y-120783037D01*
X118097920Y-120832733D01*
X118130735Y-120852399D01*
X118142464Y-120838221D01*
X118127718Y-120773229D01*
X118099621Y-120693879D01*
X118070460Y-120619750D01*
X118021011Y-120495745D01*
X117954876Y-120330827D01*
X117875658Y-120133956D01*
X117786958Y-119914093D01*
X117692380Y-119680196D01*
X117656930Y-119592665D01*
X117565290Y-119364291D01*
X117482572Y-119153908D01*
X117411564Y-118968941D01*
X117355051Y-118816814D01*
X117315819Y-118704957D01*
X117296654Y-118640795D01*
X117295411Y-118629086D01*
X117321869Y-118600048D01*
X117391700Y-118535306D01*
X117499379Y-118439666D01*
X117639377Y-118317933D01*
X117806168Y-118174914D01*
X117994226Y-118015413D01*
X118197922Y-117844324D01*
X118400933Y-117673936D01*
X118587591Y-117515983D01*
X118752488Y-117375137D01*
X118890217Y-117256075D01*
X118995372Y-117163469D01*
X119062545Y-117101994D01*
X119086331Y-117076325D01*
X119086331Y-117076242D01*
X119055432Y-117072994D01*
X118968119Y-117074102D01*
X118831302Y-117079224D01*
X118651893Y-117088018D01*
X118436804Y-117100139D01*
X118192944Y-117115247D01*
X117927226Y-117132997D01*
X117888995Y-117135650D01*
X116693336Y-117219034D01*
X116251887Y-116120250D01*
X116151770Y-115872276D01*
X116058639Y-115643940D01*
X115975202Y-115441703D01*
X115904164Y-115272027D01*
X115848234Y-115141373D01*
X115810117Y-115056202D01*
X115792524Y-115022976D01*
X115792031Y-115022755D01*
X115780523Y-115052771D01*
G37*
X115780523Y-115052771D02*
X115755750Y-115137704D01*
X115719497Y-115270781D01*
X115673543Y-115445225D01*
X115619672Y-115654265D01*
X115559668Y-115891125D01*
X115495309Y-116149031D01*
X115489186Y-116173765D01*
X115204747Y-117323489D01*
X114006468Y-117407324D01*
X113702714Y-117429331D01*
X113436342Y-117450161D01*
X113211884Y-117469384D01*
X113033873Y-117486569D01*
X112906841Y-117501286D01*
X112835320Y-117513108D01*
X112820796Y-117519732D01*
X112849766Y-117542525D01*
X112926635Y-117594766D01*
X113045286Y-117672516D01*
X113199605Y-117771839D01*
X113383472Y-117888797D01*
X113590772Y-118019452D01*
X113810133Y-118156595D01*
X114034773Y-118297228D01*
X114242184Y-118428482D01*
X114426197Y-118546345D01*
X114580646Y-118646806D01*
X114699363Y-118725856D01*
X114776180Y-118779483D01*
X114804830Y-118803425D01*
X114802052Y-118843155D01*
X114785271Y-118936178D01*
X114756288Y-119074280D01*
X114716907Y-119249251D01*
X114668926Y-119452881D01*
X114614151Y-119676959D01*
X114605758Y-119710634D01*
X114521823Y-120047007D01*
X114452328Y-120326782D01*
X114396154Y-120554928D01*
X114352180Y-120736413D01*
X114319287Y-120876203D01*
X114296355Y-120979266D01*
X114282265Y-121050569D01*
X114275898Y-121095082D01*
X114276133Y-121117769D01*
X114281852Y-121123599D01*
X114287961Y-121120716D01*
X114319563Y-121095213D01*
X114394087Y-121033611D01*
X114505840Y-120940659D01*
X114649129Y-120821108D01*
X114818258Y-120679710D01*
X115007535Y-120521212D01*
X115203835Y-120356603D01*
X115406588Y-120187044D01*
X115594417Y-120031068D01*
X115761703Y-119893258D01*
X115902830Y-119778195D01*
X116012175Y-119690461D01*
X116084122Y-119634638D01*
X116112917Y-119615308D01*
X116145378Y-119631124D01*
X116225388Y-119676999D01*
X116346747Y-119749178D01*
X116503254Y-119843909D01*
X116688708Y-119957440D01*
X116896908Y-120086018D01*
X117117008Y-120222988D01*
X117342155Y-120363508D01*
X117551034Y-120493683D01*
X117737346Y-120609603D01*
X117894795Y-120707357D01*
X118017085Y-120783037D01*
X118097920Y-120832733D01*
X118130735Y-120852399D01*
X118142464Y-120838221D01*
X118127718Y-120773229D01*
X118099621Y-120693879D01*
X118070460Y-120619750D01*
X118021011Y-120495745D01*
X117954876Y-120330827D01*
X117875658Y-120133956D01*
X117786958Y-119914093D01*
X117692380Y-119680196D01*
X117656930Y-119592665D01*
X117565290Y-119364291D01*
X117482572Y-119153908D01*
X117411564Y-118968941D01*
X117355051Y-118816814D01*
X117315819Y-118704957D01*
X117296654Y-118640795D01*
X117295411Y-118629086D01*
X117321869Y-118600048D01*
X117391700Y-118535306D01*
X117499379Y-118439666D01*
X117639377Y-118317933D01*
X117806168Y-118174914D01*
X117994226Y-118015413D01*
X118197922Y-117844324D01*
X118400933Y-117673936D01*
X118587591Y-117515983D01*
X118752488Y-117375137D01*
X118890217Y-117256075D01*
X118995372Y-117163469D01*
X119062545Y-117101994D01*
X119086331Y-117076325D01*
X119086331Y-117076242D01*
X119055432Y-117072994D01*
X118968119Y-117074102D01*
X118831302Y-117079224D01*
X118651893Y-117088018D01*
X118436804Y-117100139D01*
X118192944Y-117115247D01*
X117927226Y-117132997D01*
X117888995Y-117135650D01*
X116693336Y-117219034D01*
X116251887Y-116120250D01*
X116151770Y-115872276D01*
X116058639Y-115643940D01*
X115975202Y-115441703D01*
X115904164Y-115272027D01*
X115848234Y-115141373D01*
X115810117Y-115056202D01*
X115792524Y-115022976D01*
X115792031Y-115022755D01*
X115780523Y-115052771D01*
G36*
X79950372Y-113558538D02*
G01*
X79901148Y-113628470D01*
X79891236Y-113704258D01*
X79919927Y-113792238D01*
X79923391Y-113799073D01*
X79939534Y-113827938D01*
X79975319Y-113890331D01*
X80028997Y-113983248D01*
X80098822Y-114103683D01*
X80183046Y-114248632D01*
X80279922Y-114415091D01*
X80387703Y-114600054D01*
X80504640Y-114800517D01*
X80628987Y-115013476D01*
X80758996Y-115235925D01*
X80762927Y-115242647D01*
X80901850Y-115480241D01*
X81041785Y-115719576D01*
X81180144Y-115956228D01*
X81314340Y-116185772D01*
X81441787Y-116403783D01*
X81559897Y-116605835D01*
X81666085Y-116787503D01*
X81757762Y-116944362D01*
X81832342Y-117071987D01*
X81870521Y-117137333D01*
X82173470Y-117655917D01*
X81370217Y-117666500D01*
X81164802Y-117669252D01*
X80997511Y-117671750D01*
X80864141Y-117674280D01*
X80760486Y-117677132D01*
X80682343Y-117680593D01*
X80625507Y-117684952D01*
X80585772Y-117690497D01*
X80558934Y-117697515D01*
X80540790Y-117706295D01*
X80527133Y-117717125D01*
X80519255Y-117724815D01*
X80480118Y-117789335D01*
X80471546Y-117853875D01*
X80472834Y-117871218D01*
X80477946Y-117890953D01*
X80488757Y-117915483D01*
X80507139Y-117947210D01*
X80534967Y-117988536D01*
X80574114Y-118041865D01*
X80626454Y-118109599D01*
X80693861Y-118194140D01*
X80778207Y-118297890D01*
X80881368Y-118423253D01*
X81005216Y-118572630D01*
X81151625Y-118748424D01*
X81322469Y-118953038D01*
X81416517Y-119065560D01*
X81742900Y-119455957D01*
X82046048Y-119818526D01*
X82329861Y-120157929D01*
X82598239Y-120478830D01*
X82855084Y-120785891D01*
X83104295Y-121083776D01*
X83349773Y-121377147D01*
X83595420Y-121670668D01*
X83845135Y-121969002D01*
X83920124Y-122058583D01*
X84053381Y-122217773D01*
X84207334Y-122401701D01*
X84375516Y-122602638D01*
X84551457Y-122812853D01*
X84728689Y-123024619D01*
X84900741Y-123230206D01*
X85061146Y-123421884D01*
X85100690Y-123469139D01*
X85232725Y-123626448D01*
X85358112Y-123774922D01*
X85473923Y-123911159D01*
X85577227Y-124031753D01*
X85665096Y-124133300D01*
X85734601Y-124212397D01*
X85782812Y-124265640D01*
X85806444Y-124289348D01*
X85884811Y-124328889D01*
X85963431Y-124326546D01*
X86038597Y-124282580D01*
X86049629Y-124272128D01*
X86092162Y-124215939D01*
X86111275Y-124161869D01*
X86111500Y-124156703D01*
X86104259Y-124126645D01*
X86083494Y-124061059D01*
X86050646Y-123964019D01*
X86007155Y-123839595D01*
X85954463Y-123691863D01*
X85894009Y-123524893D01*
X85827235Y-123342758D01*
X85755580Y-123149532D01*
X85749704Y-123133783D01*
X85661996Y-122898804D01*
X85565582Y-122640540D01*
X85464213Y-122369030D01*
X85361635Y-122094311D01*
X85261598Y-121826423D01*
X85167850Y-121575403D01*
X85084138Y-121351291D01*
X85063701Y-121296583D01*
X84982562Y-121079385D01*
X84894816Y-120844486D01*
X84804045Y-120601479D01*
X84713832Y-120359955D01*
X84627759Y-120129506D01*
X84549409Y-119919722D01*
X84483581Y-119743453D01*
X84423536Y-119582145D01*
X84368499Y-119433294D01*
X84320170Y-119301577D01*
X84280249Y-119191666D01*
X84250436Y-119108237D01*
X84232430Y-119055965D01*
X84227667Y-119039661D01*
X84248085Y-119035523D01*
X84306345Y-119031715D01*
X84397955Y-119028338D01*
X84518424Y-119025494D01*
X84663262Y-119023286D01*
X84827978Y-119021815D01*
X85008080Y-119021183D01*
X85043264Y-119021167D01*
X85266186Y-119020997D01*
X85450674Y-119020155D01*
X85600625Y-119018135D01*
X85719939Y-119014434D01*
X85812514Y-119008549D01*
X85882247Y-118999976D01*
X85933038Y-118988211D01*
X85968785Y-118972752D01*
X85993386Y-118953094D01*
X86010740Y-118928734D01*
X86024745Y-118899169D01*
X86026853Y-118894120D01*
X86044318Y-118824693D01*
X86033886Y-118751323D01*
X86033118Y-118748642D01*
X86023029Y-118717124D01*
X86000402Y-118648633D01*
X85990073Y-118617645D01*
X85579192Y-118617645D01*
X84711080Y-118623614D01*
X83842969Y-118629583D01*
X83791902Y-118688972D01*
X83754285Y-118752065D01*
X83740834Y-118812162D01*
X83748089Y-118844754D01*
X83768855Y-118912630D01*
X83801633Y-119011488D01*
X83844923Y-119137031D01*
X83897228Y-119284958D01*
X83957047Y-119450969D01*
X84022882Y-119630765D01*
X84078023Y-119779357D01*
X84152630Y-119979207D01*
X84239104Y-120210780D01*
X84334482Y-120466151D01*
X84435804Y-120737392D01*
X84540109Y-121016576D01*
X84644433Y-121295775D01*
X84745817Y-121567062D01*
X84841299Y-121822510D01*
X84861190Y-121875718D01*
X84954225Y-122124597D01*
X85033500Y-122336753D01*
X85100073Y-122515118D01*
X85155006Y-122662622D01*
X85199358Y-122782198D01*
X85234191Y-122876775D01*
X85260565Y-122949286D01*
X85279539Y-123002662D01*
X85292176Y-123039833D01*
X85299534Y-123063731D01*
X85302675Y-123077287D01*
X85302658Y-123083432D01*
X85300545Y-123085098D01*
X85298738Y-123085167D01*
X85283966Y-123069409D01*
X85244568Y-123024104D01*
X85183044Y-122952206D01*
X85101893Y-122856669D01*
X85003614Y-122740446D01*
X84890709Y-122606492D01*
X84765677Y-122457760D01*
X84631017Y-122297203D01*
X84552613Y-122203561D01*
X84396759Y-122017307D01*
X84235551Y-121824661D01*
X84073617Y-121631154D01*
X83915583Y-121442313D01*
X83766077Y-121263670D01*
X83629729Y-121100755D01*
X83511164Y-120959096D01*
X83415012Y-120844224D01*
X83412750Y-120841523D01*
X83085984Y-120451104D01*
X82785967Y-120092515D01*
X82512216Y-119765174D01*
X82264245Y-119468502D01*
X82041571Y-119201916D01*
X81843711Y-118964836D01*
X81670180Y-118756680D01*
X81520494Y-118576868D01*
X81394169Y-118424819D01*
X81290722Y-118299951D01*
X81209668Y-118201683D01*
X81150523Y-118129435D01*
X81112804Y-118082624D01*
X81096026Y-118060671D01*
X81095000Y-118058806D01*
X81115369Y-118056179D01*
X81173286Y-118053767D01*
X81263965Y-118051645D01*
X81382620Y-118049885D01*
X81524467Y-118048559D01*
X81684719Y-118047741D01*
X81837225Y-118047500D01*
X82071122Y-118046812D01*
X82264400Y-118044754D01*
X82416707Y-118041337D01*
X82527688Y-118036571D01*
X82596992Y-118030467D01*
X82622184Y-118024629D01*
X82670010Y-117978503D01*
X82701948Y-117909938D01*
X82710919Y-117837903D01*
X82704082Y-117805174D01*
X82689371Y-117776094D01*
X82655491Y-117714481D01*
X82604711Y-117624308D01*
X82539301Y-117509544D01*
X82461532Y-117374160D01*
X82373675Y-117222127D01*
X82277999Y-117057416D01*
X82204280Y-116931037D01*
X81970507Y-116530951D01*
X81757268Y-116165955D01*
X81563720Y-115834603D01*
X81389021Y-115535446D01*
X81232327Y-115267036D01*
X81092795Y-115027925D01*
X80969582Y-114816665D01*
X80861846Y-114631807D01*
X80768742Y-114471904D01*
X80689428Y-114335508D01*
X80623061Y-114221171D01*
X80568798Y-114127444D01*
X80525796Y-114052879D01*
X80493211Y-113996029D01*
X80470201Y-113955446D01*
X80455923Y-113929681D01*
X80449533Y-113917286D01*
X80449214Y-113916521D01*
X80453117Y-113911385D01*
X80470637Y-113906894D01*
X80504199Y-113903012D01*
X80556222Y-113899702D01*
X80629129Y-113896925D01*
X80725341Y-113894645D01*
X80847281Y-113892823D01*
X80997370Y-113891424D01*
X81178030Y-113890409D01*
X81391682Y-113889740D01*
X81640749Y-113889381D01*
X81927652Y-113889295D01*
X82205411Y-113889408D01*
X82475066Y-113889695D01*
X82732381Y-113890184D01*
X82974234Y-113890855D01*
X83197506Y-113891689D01*
X83399075Y-113892670D01*
X83575820Y-113893777D01*
X83724621Y-113894992D01*
X83842357Y-113896297D01*
X83925907Y-113897673D01*
X83972149Y-113899102D01*
X83980705Y-113899992D01*
X83989622Y-113922018D01*
X84009774Y-113978100D01*
X84039039Y-114062125D01*
X84075292Y-114167979D01*
X84116410Y-114289548D01*
X84127364Y-114322167D01*
X84160230Y-114420025D01*
X84203918Y-114549877D01*
X84257240Y-114708201D01*
X84319007Y-114891478D01*
X84388030Y-115096186D01*
X84463120Y-115318805D01*
X84543088Y-115555815D01*
X84626745Y-115803695D01*
X84712902Y-116058924D01*
X84800371Y-116317982D01*
X84887961Y-116577348D01*
X84974484Y-116833502D01*
X85058752Y-117082924D01*
X85139574Y-117322092D01*
X85215763Y-117547487D01*
X85286129Y-117755587D01*
X85349484Y-117942873D01*
X85404637Y-118105823D01*
X85450401Y-118240918D01*
X85485587Y-118344636D01*
X85509004Y-118413457D01*
X85515734Y-118433114D01*
X85579192Y-118617645D01*
X85990073Y-118617645D01*
X85966288Y-118546290D01*
X85921737Y-118413216D01*
X85867797Y-118252534D01*
X85805517Y-118067362D01*
X85735948Y-117860824D01*
X85660138Y-117636040D01*
X85579137Y-117396130D01*
X85493994Y-117144217D01*
X85445127Y-116999750D01*
X85349787Y-116717856D01*
X85251880Y-116428153D01*
X85153202Y-116135971D01*
X85055550Y-115846639D01*
X84960721Y-115565486D01*
X84870512Y-115297840D01*
X84786719Y-115049032D01*
X84711140Y-114824391D01*
X84645571Y-114629244D01*
X84592333Y-114470488D01*
X84518839Y-114252031D01*
X84456942Y-114070515D01*
X84405362Y-113922553D01*
X84362823Y-113804756D01*
X84328046Y-113713739D01*
X84299754Y-113646113D01*
X84276669Y-113598491D01*
X84257512Y-113567487D01*
X84246954Y-113555030D01*
X84188590Y-113496667D01*
X80012244Y-113496667D01*
X79950372Y-113558538D01*
G37*
X79950372Y-113558538D02*
X79901148Y-113628470D01*
X79891236Y-113704258D01*
X79919927Y-113792238D01*
X79923391Y-113799073D01*
X79939534Y-113827938D01*
X79975319Y-113890331D01*
X80028997Y-113983248D01*
X80098822Y-114103683D01*
X80183046Y-114248632D01*
X80279922Y-114415091D01*
X80387703Y-114600054D01*
X80504640Y-114800517D01*
X80628987Y-115013476D01*
X80758996Y-115235925D01*
X80762927Y-115242647D01*
X80901850Y-115480241D01*
X81041785Y-115719576D01*
X81180144Y-115956228D01*
X81314340Y-116185772D01*
X81441787Y-116403783D01*
X81559897Y-116605835D01*
X81666085Y-116787503D01*
X81757762Y-116944362D01*
X81832342Y-117071987D01*
X81870521Y-117137333D01*
X82173470Y-117655917D01*
X81370217Y-117666500D01*
X81164802Y-117669252D01*
X80997511Y-117671750D01*
X80864141Y-117674280D01*
X80760486Y-117677132D01*
X80682343Y-117680593D01*
X80625507Y-117684952D01*
X80585772Y-117690497D01*
X80558934Y-117697515D01*
X80540790Y-117706295D01*
X80527133Y-117717125D01*
X80519255Y-117724815D01*
X80480118Y-117789335D01*
X80471546Y-117853875D01*
X80472834Y-117871218D01*
X80477946Y-117890953D01*
X80488757Y-117915483D01*
X80507139Y-117947210D01*
X80534967Y-117988536D01*
X80574114Y-118041865D01*
X80626454Y-118109599D01*
X80693861Y-118194140D01*
X80778207Y-118297890D01*
X80881368Y-118423253D01*
X81005216Y-118572630D01*
X81151625Y-118748424D01*
X81322469Y-118953038D01*
X81416517Y-119065560D01*
X81742900Y-119455957D01*
X82046048Y-119818526D01*
X82329861Y-120157929D01*
X82598239Y-120478830D01*
X82855084Y-120785891D01*
X83104295Y-121083776D01*
X83349773Y-121377147D01*
X83595420Y-121670668D01*
X83845135Y-121969002D01*
X83920124Y-122058583D01*
X84053381Y-122217773D01*
X84207334Y-122401701D01*
X84375516Y-122602638D01*
X84551457Y-122812853D01*
X84728689Y-123024619D01*
X84900741Y-123230206D01*
X85061146Y-123421884D01*
X85100690Y-123469139D01*
X85232725Y-123626448D01*
X85358112Y-123774922D01*
X85473923Y-123911159D01*
X85577227Y-124031753D01*
X85665096Y-124133300D01*
X85734601Y-124212397D01*
X85782812Y-124265640D01*
X85806444Y-124289348D01*
X85884811Y-124328889D01*
X85963431Y-124326546D01*
X86038597Y-124282580D01*
X86049629Y-124272128D01*
X86092162Y-124215939D01*
X86111275Y-124161869D01*
X86111500Y-124156703D01*
X86104259Y-124126645D01*
X86083494Y-124061059D01*
X86050646Y-123964019D01*
X86007155Y-123839595D01*
X85954463Y-123691863D01*
X85894009Y-123524893D01*
X85827235Y-123342758D01*
X85755580Y-123149532D01*
X85749704Y-123133783D01*
X85661996Y-122898804D01*
X85565582Y-122640540D01*
X85464213Y-122369030D01*
X85361635Y-122094311D01*
X85261598Y-121826423D01*
X85167850Y-121575403D01*
X85084138Y-121351291D01*
X85063701Y-121296583D01*
X84982562Y-121079385D01*
X84894816Y-120844486D01*
X84804045Y-120601479D01*
X84713832Y-120359955D01*
X84627759Y-120129506D01*
X84549409Y-119919722D01*
X84483581Y-119743453D01*
X84423536Y-119582145D01*
X84368499Y-119433294D01*
X84320170Y-119301577D01*
X84280249Y-119191666D01*
X84250436Y-119108237D01*
X84232430Y-119055965D01*
X84227667Y-119039661D01*
X84248085Y-119035523D01*
X84306345Y-119031715D01*
X84397955Y-119028338D01*
X84518424Y-119025494D01*
X84663262Y-119023286D01*
X84827978Y-119021815D01*
X85008080Y-119021183D01*
X85043264Y-119021167D01*
X85266186Y-119020997D01*
X85450674Y-119020155D01*
X85600625Y-119018135D01*
X85719939Y-119014434D01*
X85812514Y-119008549D01*
X85882247Y-118999976D01*
X85933038Y-118988211D01*
X85968785Y-118972752D01*
X85993386Y-118953094D01*
X86010740Y-118928734D01*
X86024745Y-118899169D01*
X86026853Y-118894120D01*
X86044318Y-118824693D01*
X86033886Y-118751323D01*
X86033118Y-118748642D01*
X86023029Y-118717124D01*
X86000402Y-118648633D01*
X85990073Y-118617645D01*
X85579192Y-118617645D01*
X84711080Y-118623614D01*
X83842969Y-118629583D01*
X83791902Y-118688972D01*
X83754285Y-118752065D01*
X83740834Y-118812162D01*
X83748089Y-118844754D01*
X83768855Y-118912630D01*
X83801633Y-119011488D01*
X83844923Y-119137031D01*
X83897228Y-119284958D01*
X83957047Y-119450969D01*
X84022882Y-119630765D01*
X84078023Y-119779357D01*
X84152630Y-119979207D01*
X84239104Y-120210780D01*
X84334482Y-120466151D01*
X84435804Y-120737392D01*
X84540109Y-121016576D01*
X84644433Y-121295775D01*
X84745817Y-121567062D01*
X84841299Y-121822510D01*
X84861190Y-121875718D01*
X84954225Y-122124597D01*
X85033500Y-122336753D01*
X85100073Y-122515118D01*
X85155006Y-122662622D01*
X85199358Y-122782198D01*
X85234191Y-122876775D01*
X85260565Y-122949286D01*
X85279539Y-123002662D01*
X85292176Y-123039833D01*
X85299534Y-123063731D01*
X85302675Y-123077287D01*
X85302658Y-123083432D01*
X85300545Y-123085098D01*
X85298738Y-123085167D01*
X85283966Y-123069409D01*
X85244568Y-123024104D01*
X85183044Y-122952206D01*
X85101893Y-122856669D01*
X85003614Y-122740446D01*
X84890709Y-122606492D01*
X84765677Y-122457760D01*
X84631017Y-122297203D01*
X84552613Y-122203561D01*
X84396759Y-122017307D01*
X84235551Y-121824661D01*
X84073617Y-121631154D01*
X83915583Y-121442313D01*
X83766077Y-121263670D01*
X83629729Y-121100755D01*
X83511164Y-120959096D01*
X83415012Y-120844224D01*
X83412750Y-120841523D01*
X83085984Y-120451104D01*
X82785967Y-120092515D01*
X82512216Y-119765174D01*
X82264245Y-119468502D01*
X82041571Y-119201916D01*
X81843711Y-118964836D01*
X81670180Y-118756680D01*
X81520494Y-118576868D01*
X81394169Y-118424819D01*
X81290722Y-118299951D01*
X81209668Y-118201683D01*
X81150523Y-118129435D01*
X81112804Y-118082624D01*
X81096026Y-118060671D01*
X81095000Y-118058806D01*
X81115369Y-118056179D01*
X81173286Y-118053767D01*
X81263965Y-118051645D01*
X81382620Y-118049885D01*
X81524467Y-118048559D01*
X81684719Y-118047741D01*
X81837225Y-118047500D01*
X82071122Y-118046812D01*
X82264400Y-118044754D01*
X82416707Y-118041337D01*
X82527688Y-118036571D01*
X82596992Y-118030467D01*
X82622184Y-118024629D01*
X82670010Y-117978503D01*
X82701948Y-117909938D01*
X82710919Y-117837903D01*
X82704082Y-117805174D01*
X82689371Y-117776094D01*
X82655491Y-117714481D01*
X82604711Y-117624308D01*
X82539301Y-117509544D01*
X82461532Y-117374160D01*
X82373675Y-117222127D01*
X82277999Y-117057416D01*
X82204280Y-116931037D01*
X81970507Y-116530951D01*
X81757268Y-116165955D01*
X81563720Y-115834603D01*
X81389021Y-115535446D01*
X81232327Y-115267036D01*
X81092795Y-115027925D01*
X80969582Y-114816665D01*
X80861846Y-114631807D01*
X80768742Y-114471904D01*
X80689428Y-114335508D01*
X80623061Y-114221171D01*
X80568798Y-114127444D01*
X80525796Y-114052879D01*
X80493211Y-113996029D01*
X80470201Y-113955446D01*
X80455923Y-113929681D01*
X80449533Y-113917286D01*
X80449214Y-113916521D01*
X80453117Y-113911385D01*
X80470637Y-113906894D01*
X80504199Y-113903012D01*
X80556222Y-113899702D01*
X80629129Y-113896925D01*
X80725341Y-113894645D01*
X80847281Y-113892823D01*
X80997370Y-113891424D01*
X81178030Y-113890409D01*
X81391682Y-113889740D01*
X81640749Y-113889381D01*
X81927652Y-113889295D01*
X82205411Y-113889408D01*
X82475066Y-113889695D01*
X82732381Y-113890184D01*
X82974234Y-113890855D01*
X83197506Y-113891689D01*
X83399075Y-113892670D01*
X83575820Y-113893777D01*
X83724621Y-113894992D01*
X83842357Y-113896297D01*
X83925907Y-113897673D01*
X83972149Y-113899102D01*
X83980705Y-113899992D01*
X83989622Y-113922018D01*
X84009774Y-113978100D01*
X84039039Y-114062125D01*
X84075292Y-114167979D01*
X84116410Y-114289548D01*
X84127364Y-114322167D01*
X84160230Y-114420025D01*
X84203918Y-114549877D01*
X84257240Y-114708201D01*
X84319007Y-114891478D01*
X84388030Y-115096186D01*
X84463120Y-115318805D01*
X84543088Y-115555815D01*
X84626745Y-115803695D01*
X84712902Y-116058924D01*
X84800371Y-116317982D01*
X84887961Y-116577348D01*
X84974484Y-116833502D01*
X85058752Y-117082924D01*
X85139574Y-117322092D01*
X85215763Y-117547487D01*
X85286129Y-117755587D01*
X85349484Y-117942873D01*
X85404637Y-118105823D01*
X85450401Y-118240918D01*
X85485587Y-118344636D01*
X85509004Y-118413457D01*
X85515734Y-118433114D01*
X85579192Y-118617645D01*
X85990073Y-118617645D01*
X85966288Y-118546290D01*
X85921737Y-118413216D01*
X85867797Y-118252534D01*
X85805517Y-118067362D01*
X85735948Y-117860824D01*
X85660138Y-117636040D01*
X85579137Y-117396130D01*
X85493994Y-117144217D01*
X85445127Y-116999750D01*
X85349787Y-116717856D01*
X85251880Y-116428153D01*
X85153202Y-116135971D01*
X85055550Y-115846639D01*
X84960721Y-115565486D01*
X84870512Y-115297840D01*
X84786719Y-115049032D01*
X84711140Y-114824391D01*
X84645571Y-114629244D01*
X84592333Y-114470488D01*
X84518839Y-114252031D01*
X84456942Y-114070515D01*
X84405362Y-113922553D01*
X84362823Y-113804756D01*
X84328046Y-113713739D01*
X84299754Y-113646113D01*
X84276669Y-113598491D01*
X84257512Y-113567487D01*
X84246954Y-113555030D01*
X84188590Y-113496667D01*
X80012244Y-113496667D01*
X79950372Y-113558538D01*
G36*
X90660196Y-149422114D02*
G01*
X90642930Y-149397516D01*
X90608682Y-149348981D01*
X90558840Y-149278470D01*
X90494792Y-149187941D01*
X90417926Y-149079355D01*
X90329628Y-148954671D01*
X90231288Y-148815849D01*
X90124293Y-148664849D01*
X90010031Y-148503629D01*
X89889889Y-148334151D01*
X89765256Y-148158373D01*
X89748549Y-148134813D01*
X88892982Y-146928313D01*
X88116148Y-146924196D01*
X87339313Y-146920080D01*
X86791296Y-147694134D01*
X86692525Y-147833695D01*
X86599142Y-147965741D01*
X86512775Y-148087961D01*
X86435054Y-148198045D01*
X86367609Y-148293683D01*
X86312069Y-148372564D01*
X86270064Y-148432378D01*
X86243222Y-148470815D01*
X86233233Y-148485456D01*
X86239037Y-148502918D01*
X86260876Y-148542220D01*
X86296268Y-148599411D01*
X86342731Y-148670540D01*
X86397784Y-148751656D01*
X86424937Y-148790704D01*
X86626688Y-149078684D01*
X86923773Y-149079030D01*
X87220859Y-149079375D01*
X87074586Y-149287945D01*
X87025177Y-149358709D01*
X86982899Y-149419859D01*
X86950815Y-149466915D01*
X86931989Y-149495397D01*
X86928313Y-149501820D01*
X86937217Y-149515374D01*
X86962877Y-149552603D01*
X87003717Y-149611257D01*
X87058159Y-149689090D01*
X87124627Y-149783853D01*
X87201544Y-149893298D01*
X87287333Y-150015177D01*
X87380417Y-150147242D01*
X87479220Y-150287245D01*
X87483549Y-150293375D01*
X88038785Y-151079625D01*
X88185561Y-151079625D01*
X88185561Y-148902220D01*
X88173480Y-148891213D01*
X88146967Y-148859681D01*
X88110009Y-148812955D01*
X88066596Y-148756371D01*
X88020716Y-148695260D01*
X87976358Y-148634956D01*
X87937511Y-148580793D01*
X87908164Y-148538104D01*
X87892304Y-148512222D01*
X87890641Y-148507875D01*
X87898995Y-148492825D01*
X87922625Y-148456592D01*
X87958379Y-148403854D01*
X88003111Y-148339288D01*
X88028589Y-148302995D01*
X88077789Y-148234554D01*
X88121388Y-148176411D01*
X88155853Y-148133087D01*
X88177650Y-148109102D01*
X88182739Y-148105773D01*
X88195794Y-148117697D01*
X88223231Y-148150015D01*
X88260958Y-148197298D01*
X88304884Y-148254117D01*
X88350918Y-148315045D01*
X88394967Y-148374652D01*
X88432940Y-148427511D01*
X88460745Y-148468193D01*
X88474291Y-148491270D01*
X88474951Y-148493448D01*
X88466726Y-148509782D01*
X88443524Y-148546149D01*
X88409239Y-148597048D01*
X88367766Y-148656979D01*
X88322999Y-148720441D01*
X88278832Y-148781933D01*
X88239158Y-148835955D01*
X88207873Y-148877007D01*
X88188870Y-148899586D01*
X88185561Y-148902220D01*
X88185561Y-151079625D01*
X88525696Y-151079625D01*
X88525696Y-148404052D01*
X88507470Y-148381834D01*
X88477195Y-148340675D01*
X88438763Y-148286307D01*
X88396064Y-148224461D01*
X88352986Y-148160872D01*
X88313421Y-148101271D01*
X88281257Y-148051390D01*
X88260386Y-148016964D01*
X88254425Y-148004282D01*
X88262943Y-147985105D01*
X88286779Y-147945122D01*
X88322757Y-147889335D01*
X88367697Y-147822743D01*
X88392782Y-147786605D01*
X88441337Y-147718001D01*
X88483551Y-147659686D01*
X88516101Y-147616144D01*
X88535664Y-147591861D01*
X88539625Y-147588334D01*
X88553286Y-147600877D01*
X88580006Y-147634789D01*
X88616051Y-147684491D01*
X88657689Y-147744407D01*
X88701184Y-147808960D01*
X88742804Y-147872572D01*
X88778816Y-147929667D01*
X88805484Y-147974666D01*
X88819076Y-148001993D01*
X88819930Y-148007042D01*
X88806264Y-148031642D01*
X88778839Y-148073312D01*
X88741529Y-148126827D01*
X88698206Y-148186961D01*
X88652744Y-148248486D01*
X88609017Y-148306179D01*
X88570896Y-148354812D01*
X88542255Y-148389159D01*
X88526968Y-148403995D01*
X88525696Y-148404052D01*
X88525696Y-151079625D01*
X88886294Y-151079625D01*
X88886294Y-149922017D01*
X88738701Y-149711095D01*
X88591108Y-149500174D01*
X88654144Y-149412806D01*
X88694639Y-149356297D01*
X88743649Y-149287356D01*
X88791511Y-149219584D01*
X88798005Y-149210344D01*
X88834925Y-149159160D01*
X88865192Y-149119777D01*
X88884194Y-149098085D01*
X88887821Y-149095663D01*
X88888343Y-149096055D01*
X88888343Y-147896688D01*
X88875444Y-147884527D01*
X88848552Y-147851717D01*
X88811663Y-147803768D01*
X88768779Y-147746191D01*
X88723896Y-147684496D01*
X88681015Y-147624194D01*
X88644133Y-147570794D01*
X88617250Y-147529808D01*
X88604365Y-147506745D01*
X88603804Y-147504596D01*
X88612243Y-147488466D01*
X88635992Y-147451103D01*
X88671970Y-147397156D01*
X88717097Y-147331274D01*
X88748177Y-147286675D01*
X88893229Y-147079847D01*
X89189883Y-147496401D01*
X89136746Y-147569544D01*
X89103034Y-147616199D01*
X89058602Y-147678028D01*
X89011130Y-147744335D01*
X88993031Y-147769688D01*
X88953150Y-147823715D01*
X88919137Y-147866314D01*
X88895624Y-147891868D01*
X88888343Y-147896688D01*
X88888343Y-149096055D01*
X88894624Y-149100772D01*
X88909027Y-149117457D01*
X88932923Y-149148253D01*
X88968211Y-149195699D01*
X89016785Y-149262328D01*
X89080543Y-149350680D01*
X89131693Y-149421888D01*
X89189501Y-149502463D01*
X89076901Y-149660013D01*
X89028957Y-149726902D01*
X88983889Y-149789434D01*
X88947049Y-149840203D01*
X88925298Y-149869790D01*
X88886294Y-149922017D01*
X88886294Y-151079625D01*
X89240910Y-151079625D01*
X89240910Y-150412134D01*
X89228717Y-150399719D01*
X89202421Y-150366649D01*
X89165961Y-150318393D01*
X89123279Y-150260419D01*
X89078314Y-150198198D01*
X89035007Y-150137198D01*
X88997300Y-150082887D01*
X88969131Y-150040736D01*
X88954443Y-150016213D01*
X88953218Y-150012846D01*
X88961601Y-149996717D01*
X88985300Y-149959357D01*
X89021239Y-149905413D01*
X89066343Y-149839535D01*
X89097427Y-149794925D01*
X89232854Y-149601822D01*
X89232854Y-149396589D01*
X89228155Y-149393478D01*
X89204547Y-149365529D01*
X89170616Y-149320212D01*
X89130131Y-149263168D01*
X89086863Y-149200035D01*
X89044582Y-149136455D01*
X89007058Y-149078065D01*
X88978062Y-149030507D01*
X88961364Y-148999419D01*
X88958894Y-148990706D01*
X88969963Y-148972292D01*
X88996191Y-148933118D01*
X89034156Y-148878167D01*
X89080435Y-148812425D01*
X89103711Y-148779739D01*
X89152100Y-148712652D01*
X89193625Y-148656257D01*
X89225014Y-148614904D01*
X89242996Y-148592942D01*
X89245943Y-148590597D01*
X89247552Y-148592807D01*
X89247552Y-148398504D01*
X89233215Y-148388771D01*
X89205722Y-148357590D01*
X89168844Y-148310375D01*
X89126352Y-148252543D01*
X89082015Y-148189507D01*
X89039604Y-148126682D01*
X89002888Y-148069482D01*
X88975639Y-148023323D01*
X88961626Y-147993619D01*
X88960764Y-147986623D01*
X88972327Y-147966733D01*
X88999057Y-147926316D01*
X89037444Y-147870522D01*
X89083977Y-147804498D01*
X89105086Y-147774984D01*
X89153673Y-147709189D01*
X89196224Y-147655038D01*
X89229266Y-147616686D01*
X89249323Y-147598287D01*
X89253295Y-147597736D01*
X89266654Y-147615449D01*
X89294023Y-147653227D01*
X89331151Y-147705164D01*
X89365641Y-147753813D01*
X89411044Y-147817839D01*
X89453545Y-147877342D01*
X89487461Y-147924390D01*
X89503120Y-147945755D01*
X89539665Y-147994823D01*
X89400801Y-148193571D01*
X89351707Y-148262938D01*
X89308297Y-148322587D01*
X89274074Y-148367837D01*
X89252538Y-148394006D01*
X89247552Y-148398504D01*
X89247552Y-148592807D01*
X89255998Y-148604409D01*
X89281295Y-148639540D01*
X89318597Y-148691488D01*
X89364671Y-148755750D01*
X89394400Y-148797255D01*
X89539085Y-148999321D01*
X89393712Y-149206607D01*
X89337349Y-149285920D01*
X89295709Y-149341609D01*
X89266165Y-149376640D01*
X89246089Y-149393978D01*
X89232854Y-149396589D01*
X89232854Y-149601822D01*
X89242479Y-149588097D01*
X89391032Y-149796691D01*
X89539584Y-150005284D01*
X89502882Y-150054299D01*
X89479045Y-150087107D01*
X89442477Y-150138591D01*
X89398455Y-150201277D01*
X89358906Y-150258094D01*
X89316296Y-150318288D01*
X89279817Y-150367422D01*
X89253371Y-150400402D01*
X89240910Y-150412134D01*
X89240910Y-151079625D01*
X89587555Y-151079625D01*
X89587555Y-150910241D01*
X89574713Y-150893156D01*
X89547267Y-150854883D01*
X89508697Y-150800329D01*
X89462483Y-150734403D01*
X89438659Y-150700235D01*
X89383068Y-150617957D01*
X89342974Y-150553383D01*
X89319727Y-150508853D01*
X89314675Y-150486709D01*
X89315137Y-150485923D01*
X89328726Y-150467145D01*
X89356826Y-150427532D01*
X89395768Y-150372280D01*
X89441884Y-150306585D01*
X89459166Y-150281907D01*
X89506387Y-150215486D01*
X89547535Y-150159584D01*
X89579098Y-150118821D01*
X89597564Y-150097818D01*
X89598854Y-150096997D01*
X89598854Y-148919964D01*
X89451207Y-148710839D01*
X89401976Y-148639276D01*
X89360975Y-148576141D01*
X89331079Y-148526150D01*
X89315158Y-148494022D01*
X89313666Y-148484951D01*
X89326092Y-148466541D01*
X89353345Y-148427389D01*
X89391834Y-148372615D01*
X89437969Y-148307341D01*
X89456185Y-148281657D01*
X89504009Y-148215376D01*
X89545753Y-148159562D01*
X89577869Y-148118804D01*
X89596810Y-148097693D01*
X89599893Y-148095777D01*
X89611675Y-148108099D01*
X89637628Y-148141031D01*
X89673810Y-148189110D01*
X89716277Y-148246872D01*
X89761083Y-148308854D01*
X89804285Y-148369592D01*
X89841940Y-148423622D01*
X89870102Y-148465481D01*
X89884829Y-148489706D01*
X89885745Y-148491762D01*
X89878669Y-148508330D01*
X89856095Y-148546059D01*
X89821005Y-148600290D01*
X89776382Y-148666366D01*
X89744640Y-148712089D01*
X89598854Y-148919964D01*
X89598854Y-150096997D01*
X89600450Y-150095981D01*
X89614067Y-150108455D01*
X89639607Y-150140638D01*
X89671626Y-150185656D01*
X89672718Y-150187262D01*
X89712770Y-150245881D01*
X89761301Y-150316329D01*
X89808551Y-150384445D01*
X89813588Y-150391672D01*
X89892930Y-150505405D01*
X89746187Y-150714413D01*
X89696152Y-150783917D01*
X89651958Y-150841992D01*
X89616879Y-150884597D01*
X89594189Y-150907690D01*
X89587555Y-150910241D01*
X89587555Y-151079625D01*
X89601683Y-151079625D01*
X90013113Y-150504685D01*
X89863448Y-150296061D01*
X89713783Y-150087438D01*
X89954329Y-150081098D01*
X89954329Y-149415532D01*
X89878008Y-149309045D01*
X89830571Y-149243306D01*
X89779391Y-149173075D01*
X89735502Y-149113491D01*
X89735275Y-149113185D01*
X89701933Y-149065817D01*
X89677746Y-149026703D01*
X89667827Y-149004132D01*
X89667806Y-149003841D01*
X89676188Y-148983596D01*
X89699738Y-148943835D01*
X89734711Y-148890546D01*
X89772009Y-148837154D01*
X89818764Y-148772162D01*
X89862794Y-148711274D01*
X89898391Y-148662367D01*
X89916257Y-148638103D01*
X89955247Y-148585768D01*
X90096749Y-148785888D01*
X90145569Y-148855797D01*
X90187102Y-148916916D01*
X90218175Y-148964447D01*
X90235617Y-148993590D01*
X90238250Y-149000000D01*
X90229518Y-149017171D01*
X90205430Y-149055339D01*
X90169155Y-149109715D01*
X90123858Y-149175507D01*
X90096290Y-149214762D01*
X89954329Y-149415532D01*
X89954329Y-150081098D01*
X90014951Y-150079500D01*
X90311689Y-150071680D01*
X90311689Y-149904043D01*
X90297166Y-149893290D01*
X90269391Y-149861245D01*
X90232198Y-149813379D01*
X90189416Y-149755163D01*
X90144878Y-149692067D01*
X90102416Y-149629562D01*
X90065860Y-149573119D01*
X90039044Y-149528208D01*
X90025797Y-149500301D01*
X90025196Y-149494988D01*
X90036221Y-149475169D01*
X90062235Y-149434546D01*
X90099861Y-149378214D01*
X90145724Y-149311270D01*
X90169619Y-149276941D01*
X90217547Y-149208943D01*
X90258649Y-149151592D01*
X90289731Y-149109271D01*
X90307598Y-149086360D01*
X90310612Y-149083578D01*
X90321756Y-149098974D01*
X90347084Y-149134808D01*
X90382659Y-149185446D01*
X90424547Y-149245254D01*
X90468810Y-149308599D01*
X90511514Y-149369847D01*
X90548722Y-149423364D01*
X90576498Y-149463516D01*
X90590907Y-149484670D01*
X90591806Y-149486072D01*
X90586485Y-149503557D01*
X90566165Y-149541144D01*
X90534561Y-149593289D01*
X90495391Y-149654446D01*
X90452370Y-149719071D01*
X90409214Y-149781618D01*
X90369640Y-149836544D01*
X90337363Y-149878302D01*
X90316100Y-149901347D01*
X90311689Y-149904043D01*
X90311689Y-150071680D01*
X90316120Y-150071563D01*
X90516198Y-149787239D01*
X90716275Y-149502915D01*
X90660196Y-149422114D01*
G37*
X90660196Y-149422114D02*
X90642930Y-149397516D01*
X90608682Y-149348981D01*
X90558840Y-149278470D01*
X90494792Y-149187941D01*
X90417926Y-149079355D01*
X90329628Y-148954671D01*
X90231288Y-148815849D01*
X90124293Y-148664849D01*
X90010031Y-148503629D01*
X89889889Y-148334151D01*
X89765256Y-148158373D01*
X89748549Y-148134813D01*
X88892982Y-146928313D01*
X88116148Y-146924196D01*
X87339313Y-146920080D01*
X86791296Y-147694134D01*
X86692525Y-147833695D01*
X86599142Y-147965741D01*
X86512775Y-148087961D01*
X86435054Y-148198045D01*
X86367609Y-148293683D01*
X86312069Y-148372564D01*
X86270064Y-148432378D01*
X86243222Y-148470815D01*
X86233233Y-148485456D01*
X86239037Y-148502918D01*
X86260876Y-148542220D01*
X86296268Y-148599411D01*
X86342731Y-148670540D01*
X86397784Y-148751656D01*
X86424937Y-148790704D01*
X86626688Y-149078684D01*
X86923773Y-149079030D01*
X87220859Y-149079375D01*
X87074586Y-149287945D01*
X87025177Y-149358709D01*
X86982899Y-149419859D01*
X86950815Y-149466915D01*
X86931989Y-149495397D01*
X86928313Y-149501820D01*
X86937217Y-149515374D01*
X86962877Y-149552603D01*
X87003717Y-149611257D01*
X87058159Y-149689090D01*
X87124627Y-149783853D01*
X87201544Y-149893298D01*
X87287333Y-150015177D01*
X87380417Y-150147242D01*
X87479220Y-150287245D01*
X87483549Y-150293375D01*
X88038785Y-151079625D01*
X88185561Y-151079625D01*
X88185561Y-148902220D01*
X88173480Y-148891213D01*
X88146967Y-148859681D01*
X88110009Y-148812955D01*
X88066596Y-148756371D01*
X88020716Y-148695260D01*
X87976358Y-148634956D01*
X87937511Y-148580793D01*
X87908164Y-148538104D01*
X87892304Y-148512222D01*
X87890641Y-148507875D01*
X87898995Y-148492825D01*
X87922625Y-148456592D01*
X87958379Y-148403854D01*
X88003111Y-148339288D01*
X88028589Y-148302995D01*
X88077789Y-148234554D01*
X88121388Y-148176411D01*
X88155853Y-148133087D01*
X88177650Y-148109102D01*
X88182739Y-148105773D01*
X88195794Y-148117697D01*
X88223231Y-148150015D01*
X88260958Y-148197298D01*
X88304884Y-148254117D01*
X88350918Y-148315045D01*
X88394967Y-148374652D01*
X88432940Y-148427511D01*
X88460745Y-148468193D01*
X88474291Y-148491270D01*
X88474951Y-148493448D01*
X88466726Y-148509782D01*
X88443524Y-148546149D01*
X88409239Y-148597048D01*
X88367766Y-148656979D01*
X88322999Y-148720441D01*
X88278832Y-148781933D01*
X88239158Y-148835955D01*
X88207873Y-148877007D01*
X88188870Y-148899586D01*
X88185561Y-148902220D01*
X88185561Y-151079625D01*
X88525696Y-151079625D01*
X88525696Y-148404052D01*
X88507470Y-148381834D01*
X88477195Y-148340675D01*
X88438763Y-148286307D01*
X88396064Y-148224461D01*
X88352986Y-148160872D01*
X88313421Y-148101271D01*
X88281257Y-148051390D01*
X88260386Y-148016964D01*
X88254425Y-148004282D01*
X88262943Y-147985105D01*
X88286779Y-147945122D01*
X88322757Y-147889335D01*
X88367697Y-147822743D01*
X88392782Y-147786605D01*
X88441337Y-147718001D01*
X88483551Y-147659686D01*
X88516101Y-147616144D01*
X88535664Y-147591861D01*
X88539625Y-147588334D01*
X88553286Y-147600877D01*
X88580006Y-147634789D01*
X88616051Y-147684491D01*
X88657689Y-147744407D01*
X88701184Y-147808960D01*
X88742804Y-147872572D01*
X88778816Y-147929667D01*
X88805484Y-147974666D01*
X88819076Y-148001993D01*
X88819930Y-148007042D01*
X88806264Y-148031642D01*
X88778839Y-148073312D01*
X88741529Y-148126827D01*
X88698206Y-148186961D01*
X88652744Y-148248486D01*
X88609017Y-148306179D01*
X88570896Y-148354812D01*
X88542255Y-148389159D01*
X88526968Y-148403995D01*
X88525696Y-148404052D01*
X88525696Y-151079625D01*
X88886294Y-151079625D01*
X88886294Y-149922017D01*
X88738701Y-149711095D01*
X88591108Y-149500174D01*
X88654144Y-149412806D01*
X88694639Y-149356297D01*
X88743649Y-149287356D01*
X88791511Y-149219584D01*
X88798005Y-149210344D01*
X88834925Y-149159160D01*
X88865192Y-149119777D01*
X88884194Y-149098085D01*
X88887821Y-149095663D01*
X88888343Y-149096055D01*
X88888343Y-147896688D01*
X88875444Y-147884527D01*
X88848552Y-147851717D01*
X88811663Y-147803768D01*
X88768779Y-147746191D01*
X88723896Y-147684496D01*
X88681015Y-147624194D01*
X88644133Y-147570794D01*
X88617250Y-147529808D01*
X88604365Y-147506745D01*
X88603804Y-147504596D01*
X88612243Y-147488466D01*
X88635992Y-147451103D01*
X88671970Y-147397156D01*
X88717097Y-147331274D01*
X88748177Y-147286675D01*
X88893229Y-147079847D01*
X89189883Y-147496401D01*
X89136746Y-147569544D01*
X89103034Y-147616199D01*
X89058602Y-147678028D01*
X89011130Y-147744335D01*
X88993031Y-147769688D01*
X88953150Y-147823715D01*
X88919137Y-147866314D01*
X88895624Y-147891868D01*
X88888343Y-147896688D01*
X88888343Y-149096055D01*
X88894624Y-149100772D01*
X88909027Y-149117457D01*
X88932923Y-149148253D01*
X88968211Y-149195699D01*
X89016785Y-149262328D01*
X89080543Y-149350680D01*
X89131693Y-149421888D01*
X89189501Y-149502463D01*
X89076901Y-149660013D01*
X89028957Y-149726902D01*
X88983889Y-149789434D01*
X88947049Y-149840203D01*
X88925298Y-149869790D01*
X88886294Y-149922017D01*
X88886294Y-151079625D01*
X89240910Y-151079625D01*
X89240910Y-150412134D01*
X89228717Y-150399719D01*
X89202421Y-150366649D01*
X89165961Y-150318393D01*
X89123279Y-150260419D01*
X89078314Y-150198198D01*
X89035007Y-150137198D01*
X88997300Y-150082887D01*
X88969131Y-150040736D01*
X88954443Y-150016213D01*
X88953218Y-150012846D01*
X88961601Y-149996717D01*
X88985300Y-149959357D01*
X89021239Y-149905413D01*
X89066343Y-149839535D01*
X89097427Y-149794925D01*
X89232854Y-149601822D01*
X89232854Y-149396589D01*
X89228155Y-149393478D01*
X89204547Y-149365529D01*
X89170616Y-149320212D01*
X89130131Y-149263168D01*
X89086863Y-149200035D01*
X89044582Y-149136455D01*
X89007058Y-149078065D01*
X88978062Y-149030507D01*
X88961364Y-148999419D01*
X88958894Y-148990706D01*
X88969963Y-148972292D01*
X88996191Y-148933118D01*
X89034156Y-148878167D01*
X89080435Y-148812425D01*
X89103711Y-148779739D01*
X89152100Y-148712652D01*
X89193625Y-148656257D01*
X89225014Y-148614904D01*
X89242996Y-148592942D01*
X89245943Y-148590597D01*
X89247552Y-148592807D01*
X89247552Y-148398504D01*
X89233215Y-148388771D01*
X89205722Y-148357590D01*
X89168844Y-148310375D01*
X89126352Y-148252543D01*
X89082015Y-148189507D01*
X89039604Y-148126682D01*
X89002888Y-148069482D01*
X88975639Y-148023323D01*
X88961626Y-147993619D01*
X88960764Y-147986623D01*
X88972327Y-147966733D01*
X88999057Y-147926316D01*
X89037444Y-147870522D01*
X89083977Y-147804498D01*
X89105086Y-147774984D01*
X89153673Y-147709189D01*
X89196224Y-147655038D01*
X89229266Y-147616686D01*
X89249323Y-147598287D01*
X89253295Y-147597736D01*
X89266654Y-147615449D01*
X89294023Y-147653227D01*
X89331151Y-147705164D01*
X89365641Y-147753813D01*
X89411044Y-147817839D01*
X89453545Y-147877342D01*
X89487461Y-147924390D01*
X89503120Y-147945755D01*
X89539665Y-147994823D01*
X89400801Y-148193571D01*
X89351707Y-148262938D01*
X89308297Y-148322587D01*
X89274074Y-148367837D01*
X89252538Y-148394006D01*
X89247552Y-148398504D01*
X89247552Y-148592807D01*
X89255998Y-148604409D01*
X89281295Y-148639540D01*
X89318597Y-148691488D01*
X89364671Y-148755750D01*
X89394400Y-148797255D01*
X89539085Y-148999321D01*
X89393712Y-149206607D01*
X89337349Y-149285920D01*
X89295709Y-149341609D01*
X89266165Y-149376640D01*
X89246089Y-149393978D01*
X89232854Y-149396589D01*
X89232854Y-149601822D01*
X89242479Y-149588097D01*
X89391032Y-149796691D01*
X89539584Y-150005284D01*
X89502882Y-150054299D01*
X89479045Y-150087107D01*
X89442477Y-150138591D01*
X89398455Y-150201277D01*
X89358906Y-150258094D01*
X89316296Y-150318288D01*
X89279817Y-150367422D01*
X89253371Y-150400402D01*
X89240910Y-150412134D01*
X89240910Y-151079625D01*
X89587555Y-151079625D01*
X89587555Y-150910241D01*
X89574713Y-150893156D01*
X89547267Y-150854883D01*
X89508697Y-150800329D01*
X89462483Y-150734403D01*
X89438659Y-150700235D01*
X89383068Y-150617957D01*
X89342974Y-150553383D01*
X89319727Y-150508853D01*
X89314675Y-150486709D01*
X89315137Y-150485923D01*
X89328726Y-150467145D01*
X89356826Y-150427532D01*
X89395768Y-150372280D01*
X89441884Y-150306585D01*
X89459166Y-150281907D01*
X89506387Y-150215486D01*
X89547535Y-150159584D01*
X89579098Y-150118821D01*
X89597564Y-150097818D01*
X89598854Y-150096997D01*
X89598854Y-148919964D01*
X89451207Y-148710839D01*
X89401976Y-148639276D01*
X89360975Y-148576141D01*
X89331079Y-148526150D01*
X89315158Y-148494022D01*
X89313666Y-148484951D01*
X89326092Y-148466541D01*
X89353345Y-148427389D01*
X89391834Y-148372615D01*
X89437969Y-148307341D01*
X89456185Y-148281657D01*
X89504009Y-148215376D01*
X89545753Y-148159562D01*
X89577869Y-148118804D01*
X89596810Y-148097693D01*
X89599893Y-148095777D01*
X89611675Y-148108099D01*
X89637628Y-148141031D01*
X89673810Y-148189110D01*
X89716277Y-148246872D01*
X89761083Y-148308854D01*
X89804285Y-148369592D01*
X89841940Y-148423622D01*
X89870102Y-148465481D01*
X89884829Y-148489706D01*
X89885745Y-148491762D01*
X89878669Y-148508330D01*
X89856095Y-148546059D01*
X89821005Y-148600290D01*
X89776382Y-148666366D01*
X89744640Y-148712089D01*
X89598854Y-148919964D01*
X89598854Y-150096997D01*
X89600450Y-150095981D01*
X89614067Y-150108455D01*
X89639607Y-150140638D01*
X89671626Y-150185656D01*
X89672718Y-150187262D01*
X89712770Y-150245881D01*
X89761301Y-150316329D01*
X89808551Y-150384445D01*
X89813588Y-150391672D01*
X89892930Y-150505405D01*
X89746187Y-150714413D01*
X89696152Y-150783917D01*
X89651958Y-150841992D01*
X89616879Y-150884597D01*
X89594189Y-150907690D01*
X89587555Y-150910241D01*
X89587555Y-151079625D01*
X89601683Y-151079625D01*
X90013113Y-150504685D01*
X89863448Y-150296061D01*
X89713783Y-150087438D01*
X89954329Y-150081098D01*
X89954329Y-149415532D01*
X89878008Y-149309045D01*
X89830571Y-149243306D01*
X89779391Y-149173075D01*
X89735502Y-149113491D01*
X89735275Y-149113185D01*
X89701933Y-149065817D01*
X89677746Y-149026703D01*
X89667827Y-149004132D01*
X89667806Y-149003841D01*
X89676188Y-148983596D01*
X89699738Y-148943835D01*
X89734711Y-148890546D01*
X89772009Y-148837154D01*
X89818764Y-148772162D01*
X89862794Y-148711274D01*
X89898391Y-148662367D01*
X89916257Y-148638103D01*
X89955247Y-148585768D01*
X90096749Y-148785888D01*
X90145569Y-148855797D01*
X90187102Y-148916916D01*
X90218175Y-148964447D01*
X90235617Y-148993590D01*
X90238250Y-149000000D01*
X90229518Y-149017171D01*
X90205430Y-149055339D01*
X90169155Y-149109715D01*
X90123858Y-149175507D01*
X90096290Y-149214762D01*
X89954329Y-149415532D01*
X89954329Y-150081098D01*
X90014951Y-150079500D01*
X90311689Y-150071680D01*
X90311689Y-149904043D01*
X90297166Y-149893290D01*
X90269391Y-149861245D01*
X90232198Y-149813379D01*
X90189416Y-149755163D01*
X90144878Y-149692067D01*
X90102416Y-149629562D01*
X90065860Y-149573119D01*
X90039044Y-149528208D01*
X90025797Y-149500301D01*
X90025196Y-149494988D01*
X90036221Y-149475169D01*
X90062235Y-149434546D01*
X90099861Y-149378214D01*
X90145724Y-149311270D01*
X90169619Y-149276941D01*
X90217547Y-149208943D01*
X90258649Y-149151592D01*
X90289731Y-149109271D01*
X90307598Y-149086360D01*
X90310612Y-149083578D01*
X90321756Y-149098974D01*
X90347084Y-149134808D01*
X90382659Y-149185446D01*
X90424547Y-149245254D01*
X90468810Y-149308599D01*
X90511514Y-149369847D01*
X90548722Y-149423364D01*
X90576498Y-149463516D01*
X90590907Y-149484670D01*
X90591806Y-149486072D01*
X90586485Y-149503557D01*
X90566165Y-149541144D01*
X90534561Y-149593289D01*
X90495391Y-149654446D01*
X90452370Y-149719071D01*
X90409214Y-149781618D01*
X90369640Y-149836544D01*
X90337363Y-149878302D01*
X90316100Y-149901347D01*
X90311689Y-149904043D01*
X90311689Y-150071680D01*
X90316120Y-150071563D01*
X90516198Y-149787239D01*
X90716275Y-149502915D01*
X90660196Y-149422114D01*
G36*
X90687227Y-156668642D02*
G01*
X90673007Y-156647977D01*
X90642135Y-156603885D01*
X90596345Y-156538823D01*
X90537375Y-156455246D01*
X90466960Y-156355613D01*
X90386834Y-156242378D01*
X90298736Y-156117998D01*
X90204399Y-155984930D01*
X90127403Y-155876405D01*
X89595869Y-155127456D01*
X88040323Y-155135688D01*
X87531943Y-155852402D01*
X87435314Y-155988612D01*
X87342888Y-156118862D01*
X87256540Y-156240513D01*
X87178145Y-156350923D01*
X87109581Y-156447451D01*
X87052722Y-156527457D01*
X87009444Y-156588298D01*
X86981623Y-156627335D01*
X86973587Y-156638558D01*
X86923610Y-156707999D01*
X87481350Y-157497583D01*
X88039091Y-158287168D01*
X88823363Y-158283053D01*
X88886521Y-158282722D01*
X88886521Y-157129591D01*
X88738814Y-156918508D01*
X88591108Y-156707424D01*
X88654144Y-156620056D01*
X88694639Y-156563547D01*
X88743649Y-156494606D01*
X88791511Y-156426834D01*
X88798005Y-156417594D01*
X88834925Y-156366408D01*
X88865193Y-156327021D01*
X88884195Y-156305323D01*
X88887821Y-156302898D01*
X88902163Y-156315740D01*
X88929455Y-156349954D01*
X88965951Y-156399946D01*
X89007905Y-156460122D01*
X89051571Y-156524890D01*
X89093201Y-156588655D01*
X89129051Y-156645823D01*
X89155374Y-156690803D01*
X89168422Y-156718000D01*
X89169041Y-156722782D01*
X89157361Y-156742601D01*
X89130623Y-156783066D01*
X89092308Y-156839047D01*
X89045899Y-156905418D01*
X89023759Y-156936667D01*
X88886521Y-157129591D01*
X88886521Y-158282722D01*
X89240618Y-158280864D01*
X89240618Y-157619660D01*
X89229109Y-157607293D01*
X89203587Y-157574107D01*
X89167883Y-157525540D01*
X89125832Y-157467032D01*
X89081265Y-157404022D01*
X89038018Y-157341949D01*
X88999922Y-157286253D01*
X88970811Y-157242373D01*
X88954518Y-157215748D01*
X88952375Y-157210652D01*
X88961103Y-157195964D01*
X88985202Y-157160020D01*
X89021545Y-157107371D01*
X89067005Y-157042565D01*
X89097400Y-156999677D01*
X89232854Y-156809249D01*
X89232854Y-156603839D01*
X89228155Y-156600728D01*
X89204547Y-156572779D01*
X89170616Y-156527462D01*
X89130131Y-156470418D01*
X89086863Y-156407285D01*
X89044582Y-156343705D01*
X89007058Y-156285315D01*
X88978062Y-156237757D01*
X88961364Y-156206669D01*
X88958894Y-156197956D01*
X88969963Y-156179542D01*
X88996191Y-156140368D01*
X89034156Y-156085417D01*
X89080435Y-156019675D01*
X89103711Y-155986989D01*
X89152100Y-155919902D01*
X89193625Y-155863507D01*
X89225014Y-155822154D01*
X89242996Y-155800192D01*
X89245943Y-155797847D01*
X89255998Y-155811659D01*
X89281295Y-155846790D01*
X89318597Y-155898738D01*
X89364671Y-155963000D01*
X89394400Y-156004505D01*
X89539085Y-156206571D01*
X89393712Y-156413857D01*
X89337349Y-156493170D01*
X89295709Y-156548859D01*
X89266165Y-156583890D01*
X89246089Y-156601228D01*
X89232854Y-156603839D01*
X89232854Y-156809249D01*
X89242424Y-156795795D01*
X89284735Y-156854742D01*
X89311246Y-156892103D01*
X89350127Y-156947428D01*
X89395673Y-157012579D01*
X89432589Y-157065609D01*
X89538130Y-157217530D01*
X89394589Y-157418828D01*
X89344753Y-157487797D01*
X89301068Y-157546524D01*
X89266913Y-157590600D01*
X89245669Y-157615618D01*
X89240618Y-157619660D01*
X89240618Y-158280864D01*
X89594504Y-158279007D01*
X89594504Y-158124204D01*
X89584619Y-158110535D01*
X89559632Y-158075406D01*
X89522728Y-158023311D01*
X89477094Y-157958744D01*
X89446845Y-157915881D01*
X89302733Y-157711575D01*
X89376956Y-157606319D01*
X89423109Y-157541041D01*
X89472398Y-157471592D01*
X89513622Y-157413750D01*
X89547033Y-157367477D01*
X89573812Y-157331197D01*
X89587778Y-157313236D01*
X89598723Y-157321077D01*
X89598723Y-156127028D01*
X89450838Y-155917566D01*
X89395901Y-155839515D01*
X89357131Y-155782941D01*
X89332380Y-155743383D01*
X89319498Y-155716385D01*
X89316338Y-155697486D01*
X89320750Y-155682229D01*
X89330070Y-155666940D01*
X89349595Y-155637888D01*
X89382505Y-155589524D01*
X89424147Y-155528666D01*
X89468313Y-155464391D01*
X89511583Y-155402672D01*
X89548720Y-155351797D01*
X89575936Y-155316812D01*
X89589441Y-155302759D01*
X89589766Y-155302690D01*
X89601229Y-155314662D01*
X89627133Y-155347201D01*
X89663555Y-155394976D01*
X89706570Y-155452655D01*
X89752255Y-155514905D01*
X89796687Y-155576394D01*
X89835940Y-155631791D01*
X89866093Y-155675762D01*
X89878895Y-155695598D01*
X89874791Y-155717080D01*
X89851472Y-155761530D01*
X89809871Y-155827375D01*
X89750920Y-155913044D01*
X89744994Y-155921393D01*
X89598723Y-156127028D01*
X89598723Y-157321077D01*
X89599557Y-157321675D01*
X89625787Y-157350949D01*
X89662587Y-157395968D01*
X89706078Y-157451644D01*
X89752378Y-157512887D01*
X89797608Y-157574608D01*
X89837887Y-157631719D01*
X89869335Y-157679130D01*
X89879515Y-157695848D01*
X89875074Y-157716816D01*
X89852258Y-157760160D01*
X89812512Y-157823456D01*
X89757283Y-157904275D01*
X89744659Y-157922114D01*
X89694875Y-157991571D01*
X89651887Y-158050533D01*
X89618850Y-158094753D01*
X89598922Y-158119984D01*
X89594504Y-158124204D01*
X89594504Y-158279007D01*
X89607636Y-158278938D01*
X89949283Y-157795706D01*
X89949283Y-157619520D01*
X89936844Y-157607459D01*
X89910673Y-157574482D01*
X89874637Y-157526099D01*
X89832606Y-157467820D01*
X89788448Y-157405155D01*
X89746030Y-157343612D01*
X89709223Y-157288702D01*
X89681893Y-157245935D01*
X89667911Y-157220818D01*
X89666884Y-157217319D01*
X89675521Y-157200114D01*
X89699407Y-157161923D01*
X89735354Y-157107614D01*
X89780176Y-157042052D01*
X89804636Y-157006976D01*
X89853249Y-156938672D01*
X89895810Y-156880689D01*
X89928902Y-156837540D01*
X89949110Y-156813737D01*
X89952500Y-156811141D01*
X89952500Y-156619585D01*
X89940239Y-156607230D01*
X89914221Y-156573942D01*
X89878288Y-156525220D01*
X89836279Y-156466559D01*
X89792035Y-156403456D01*
X89749395Y-156341407D01*
X89712200Y-156285909D01*
X89684289Y-156242458D01*
X89669503Y-156216551D01*
X89668129Y-156212541D01*
X89676299Y-156193607D01*
X89699717Y-156153844D01*
X89735217Y-156098286D01*
X89779634Y-156031967D01*
X89802608Y-155998631D01*
X89850371Y-155930081D01*
X89891480Y-155871348D01*
X89922651Y-155827103D01*
X89940601Y-155802018D01*
X89943562Y-155798147D01*
X89954221Y-155807988D01*
X89978672Y-155839098D01*
X90013282Y-155886210D01*
X90054414Y-155944052D01*
X90098436Y-156007355D01*
X90141712Y-156070850D01*
X90180609Y-156129266D01*
X90211491Y-156177335D01*
X90230724Y-156209786D01*
X90235246Y-156221063D01*
X90223446Y-156240727D01*
X90197745Y-156279249D01*
X90162013Y-156331174D01*
X90120119Y-156391049D01*
X90075933Y-156453420D01*
X90033324Y-156512833D01*
X89996161Y-156563835D01*
X89968314Y-156600971D01*
X89953653Y-156618788D01*
X89952500Y-156619585D01*
X89952500Y-156811141D01*
X89953336Y-156810500D01*
X89965674Y-156822852D01*
X89992575Y-156856910D01*
X90030666Y-156908185D01*
X90076574Y-156972183D01*
X90103243Y-157010186D01*
X90242336Y-157209872D01*
X90162917Y-157323717D01*
X90116453Y-157390637D01*
X90067564Y-157461547D01*
X90025997Y-157522307D01*
X90021968Y-157528239D01*
X89989765Y-157573569D01*
X89963779Y-157606281D01*
X89949486Y-157619496D01*
X89949283Y-157619520D01*
X89949283Y-157795706D01*
X90297999Y-157302475D01*
X90297999Y-157108229D01*
X90281471Y-157092933D01*
X90252480Y-157056866D01*
X90214885Y-157005757D01*
X90172546Y-156945329D01*
X90129321Y-156881309D01*
X90089069Y-156819423D01*
X90055651Y-156765397D01*
X90032926Y-156724956D01*
X90024752Y-156703827D01*
X90024878Y-156703015D01*
X90035768Y-156683298D01*
X90061458Y-156642800D01*
X90098528Y-156586740D01*
X90143560Y-156520341D01*
X90162472Y-156492871D01*
X90209446Y-156425681D01*
X90250105Y-156368943D01*
X90281066Y-156327268D01*
X90298947Y-156305266D01*
X90301750Y-156303001D01*
X90316394Y-156315698D01*
X90343859Y-156349871D01*
X90380408Y-156399905D01*
X90422304Y-156460187D01*
X90465810Y-156525101D01*
X90507190Y-156589033D01*
X90542705Y-156646370D01*
X90568618Y-156691496D01*
X90581194Y-156718797D01*
X90581643Y-156723492D01*
X90566680Y-156751415D01*
X90538226Y-156795694D01*
X90500281Y-156850901D01*
X90456848Y-156911607D01*
X90411929Y-156972384D01*
X90369525Y-157027804D01*
X90333639Y-157072440D01*
X90308272Y-157100862D01*
X90297999Y-157108229D01*
X90297999Y-157302475D01*
X90715516Y-156711930D01*
X90687227Y-156668642D01*
G37*
X90687227Y-156668642D02*
X90673007Y-156647977D01*
X90642135Y-156603885D01*
X90596345Y-156538823D01*
X90537375Y-156455246D01*
X90466960Y-156355613D01*
X90386834Y-156242378D01*
X90298736Y-156117998D01*
X90204399Y-155984930D01*
X90127403Y-155876405D01*
X89595869Y-155127456D01*
X88040323Y-155135688D01*
X87531943Y-155852402D01*
X87435314Y-155988612D01*
X87342888Y-156118862D01*
X87256540Y-156240513D01*
X87178145Y-156350923D01*
X87109581Y-156447451D01*
X87052722Y-156527457D01*
X87009444Y-156588298D01*
X86981623Y-156627335D01*
X86973587Y-156638558D01*
X86923610Y-156707999D01*
X87481350Y-157497583D01*
X88039091Y-158287168D01*
X88823363Y-158283053D01*
X88886521Y-158282722D01*
X88886521Y-157129591D01*
X88738814Y-156918508D01*
X88591108Y-156707424D01*
X88654144Y-156620056D01*
X88694639Y-156563547D01*
X88743649Y-156494606D01*
X88791511Y-156426834D01*
X88798005Y-156417594D01*
X88834925Y-156366408D01*
X88865193Y-156327021D01*
X88884195Y-156305323D01*
X88887821Y-156302898D01*
X88902163Y-156315740D01*
X88929455Y-156349954D01*
X88965951Y-156399946D01*
X89007905Y-156460122D01*
X89051571Y-156524890D01*
X89093201Y-156588655D01*
X89129051Y-156645823D01*
X89155374Y-156690803D01*
X89168422Y-156718000D01*
X89169041Y-156722782D01*
X89157361Y-156742601D01*
X89130623Y-156783066D01*
X89092308Y-156839047D01*
X89045899Y-156905418D01*
X89023759Y-156936667D01*
X88886521Y-157129591D01*
X88886521Y-158282722D01*
X89240618Y-158280864D01*
X89240618Y-157619660D01*
X89229109Y-157607293D01*
X89203587Y-157574107D01*
X89167883Y-157525540D01*
X89125832Y-157467032D01*
X89081265Y-157404022D01*
X89038018Y-157341949D01*
X88999922Y-157286253D01*
X88970811Y-157242373D01*
X88954518Y-157215748D01*
X88952375Y-157210652D01*
X88961103Y-157195964D01*
X88985202Y-157160020D01*
X89021545Y-157107371D01*
X89067005Y-157042565D01*
X89097400Y-156999677D01*
X89232854Y-156809249D01*
X89232854Y-156603839D01*
X89228155Y-156600728D01*
X89204547Y-156572779D01*
X89170616Y-156527462D01*
X89130131Y-156470418D01*
X89086863Y-156407285D01*
X89044582Y-156343705D01*
X89007058Y-156285315D01*
X88978062Y-156237757D01*
X88961364Y-156206669D01*
X88958894Y-156197956D01*
X88969963Y-156179542D01*
X88996191Y-156140368D01*
X89034156Y-156085417D01*
X89080435Y-156019675D01*
X89103711Y-155986989D01*
X89152100Y-155919902D01*
X89193625Y-155863507D01*
X89225014Y-155822154D01*
X89242996Y-155800192D01*
X89245943Y-155797847D01*
X89255998Y-155811659D01*
X89281295Y-155846790D01*
X89318597Y-155898738D01*
X89364671Y-155963000D01*
X89394400Y-156004505D01*
X89539085Y-156206571D01*
X89393712Y-156413857D01*
X89337349Y-156493170D01*
X89295709Y-156548859D01*
X89266165Y-156583890D01*
X89246089Y-156601228D01*
X89232854Y-156603839D01*
X89232854Y-156809249D01*
X89242424Y-156795795D01*
X89284735Y-156854742D01*
X89311246Y-156892103D01*
X89350127Y-156947428D01*
X89395673Y-157012579D01*
X89432589Y-157065609D01*
X89538130Y-157217530D01*
X89394589Y-157418828D01*
X89344753Y-157487797D01*
X89301068Y-157546524D01*
X89266913Y-157590600D01*
X89245669Y-157615618D01*
X89240618Y-157619660D01*
X89240618Y-158280864D01*
X89594504Y-158279007D01*
X89594504Y-158124204D01*
X89584619Y-158110535D01*
X89559632Y-158075406D01*
X89522728Y-158023311D01*
X89477094Y-157958744D01*
X89446845Y-157915881D01*
X89302733Y-157711575D01*
X89376956Y-157606319D01*
X89423109Y-157541041D01*
X89472398Y-157471592D01*
X89513622Y-157413750D01*
X89547033Y-157367477D01*
X89573812Y-157331197D01*
X89587778Y-157313236D01*
X89598723Y-157321077D01*
X89598723Y-156127028D01*
X89450838Y-155917566D01*
X89395901Y-155839515D01*
X89357131Y-155782941D01*
X89332380Y-155743383D01*
X89319498Y-155716385D01*
X89316338Y-155697486D01*
X89320750Y-155682229D01*
X89330070Y-155666940D01*
X89349595Y-155637888D01*
X89382505Y-155589524D01*
X89424147Y-155528666D01*
X89468313Y-155464391D01*
X89511583Y-155402672D01*
X89548720Y-155351797D01*
X89575936Y-155316812D01*
X89589441Y-155302759D01*
X89589766Y-155302690D01*
X89601229Y-155314662D01*
X89627133Y-155347201D01*
X89663555Y-155394976D01*
X89706570Y-155452655D01*
X89752255Y-155514905D01*
X89796687Y-155576394D01*
X89835940Y-155631791D01*
X89866093Y-155675762D01*
X89878895Y-155695598D01*
X89874791Y-155717080D01*
X89851472Y-155761530D01*
X89809871Y-155827375D01*
X89750920Y-155913044D01*
X89744994Y-155921393D01*
X89598723Y-156127028D01*
X89598723Y-157321077D01*
X89599557Y-157321675D01*
X89625787Y-157350949D01*
X89662587Y-157395968D01*
X89706078Y-157451644D01*
X89752378Y-157512887D01*
X89797608Y-157574608D01*
X89837887Y-157631719D01*
X89869335Y-157679130D01*
X89879515Y-157695848D01*
X89875074Y-157716816D01*
X89852258Y-157760160D01*
X89812512Y-157823456D01*
X89757283Y-157904275D01*
X89744659Y-157922114D01*
X89694875Y-157991571D01*
X89651887Y-158050533D01*
X89618850Y-158094753D01*
X89598922Y-158119984D01*
X89594504Y-158124204D01*
X89594504Y-158279007D01*
X89607636Y-158278938D01*
X89949283Y-157795706D01*
X89949283Y-157619520D01*
X89936844Y-157607459D01*
X89910673Y-157574482D01*
X89874637Y-157526099D01*
X89832606Y-157467820D01*
X89788448Y-157405155D01*
X89746030Y-157343612D01*
X89709223Y-157288702D01*
X89681893Y-157245935D01*
X89667911Y-157220818D01*
X89666884Y-157217319D01*
X89675521Y-157200114D01*
X89699407Y-157161923D01*
X89735354Y-157107614D01*
X89780176Y-157042052D01*
X89804636Y-157006976D01*
X89853249Y-156938672D01*
X89895810Y-156880689D01*
X89928902Y-156837540D01*
X89949110Y-156813737D01*
X89952500Y-156811141D01*
X89952500Y-156619585D01*
X89940239Y-156607230D01*
X89914221Y-156573942D01*
X89878288Y-156525220D01*
X89836279Y-156466559D01*
X89792035Y-156403456D01*
X89749395Y-156341407D01*
X89712200Y-156285909D01*
X89684289Y-156242458D01*
X89669503Y-156216551D01*
X89668129Y-156212541D01*
X89676299Y-156193607D01*
X89699717Y-156153844D01*
X89735217Y-156098286D01*
X89779634Y-156031967D01*
X89802608Y-155998631D01*
X89850371Y-155930081D01*
X89891480Y-155871348D01*
X89922651Y-155827103D01*
X89940601Y-155802018D01*
X89943562Y-155798147D01*
X89954221Y-155807988D01*
X89978672Y-155839098D01*
X90013282Y-155886210D01*
X90054414Y-155944052D01*
X90098436Y-156007355D01*
X90141712Y-156070850D01*
X90180609Y-156129266D01*
X90211491Y-156177335D01*
X90230724Y-156209786D01*
X90235246Y-156221063D01*
X90223446Y-156240727D01*
X90197745Y-156279249D01*
X90162013Y-156331174D01*
X90120119Y-156391049D01*
X90075933Y-156453420D01*
X90033324Y-156512833D01*
X89996161Y-156563835D01*
X89968314Y-156600971D01*
X89953653Y-156618788D01*
X89952500Y-156619585D01*
X89952500Y-156811141D01*
X89953336Y-156810500D01*
X89965674Y-156822852D01*
X89992575Y-156856910D01*
X90030666Y-156908185D01*
X90076574Y-156972183D01*
X90103243Y-157010186D01*
X90242336Y-157209872D01*
X90162917Y-157323717D01*
X90116453Y-157390637D01*
X90067564Y-157461547D01*
X90025997Y-157522307D01*
X90021968Y-157528239D01*
X89989765Y-157573569D01*
X89963779Y-157606281D01*
X89949486Y-157619496D01*
X89949283Y-157619520D01*
X89949283Y-157795706D01*
X90297999Y-157302475D01*
X90297999Y-157108229D01*
X90281471Y-157092933D01*
X90252480Y-157056866D01*
X90214885Y-157005757D01*
X90172546Y-156945329D01*
X90129321Y-156881309D01*
X90089069Y-156819423D01*
X90055651Y-156765397D01*
X90032926Y-156724956D01*
X90024752Y-156703827D01*
X90024878Y-156703015D01*
X90035768Y-156683298D01*
X90061458Y-156642800D01*
X90098528Y-156586740D01*
X90143560Y-156520341D01*
X90162472Y-156492871D01*
X90209446Y-156425681D01*
X90250105Y-156368943D01*
X90281066Y-156327268D01*
X90298947Y-156305266D01*
X90301750Y-156303001D01*
X90316394Y-156315698D01*
X90343859Y-156349871D01*
X90380408Y-156399905D01*
X90422304Y-156460187D01*
X90465810Y-156525101D01*
X90507190Y-156589033D01*
X90542705Y-156646370D01*
X90568618Y-156691496D01*
X90581194Y-156718797D01*
X90581643Y-156723492D01*
X90566680Y-156751415D01*
X90538226Y-156795694D01*
X90500281Y-156850901D01*
X90456848Y-156911607D01*
X90411929Y-156972384D01*
X90369525Y-157027804D01*
X90333639Y-157072440D01*
X90308272Y-157100862D01*
X90297999Y-157108229D01*
X90297999Y-157302475D01*
X90715516Y-156711930D01*
X90687227Y-156668642D01*
G36*
X89806855Y-152818478D02*
G01*
X88896813Y-151525283D01*
X88117534Y-151524704D01*
X87338256Y-151524125D01*
X87194044Y-151726532D01*
X87138277Y-151804752D01*
X87083353Y-151881698D01*
X87034486Y-151950072D01*
X86996889Y-152002578D01*
X86986881Y-152016519D01*
X86923928Y-152104100D01*
X87787398Y-153326206D01*
X87912897Y-153503792D01*
X88034096Y-153675221D01*
X88149622Y-153838553D01*
X88258102Y-153991852D01*
X88358161Y-154133176D01*
X88448426Y-154260588D01*
X88527523Y-154372149D01*
X88594079Y-154465920D01*
X88646720Y-154539962D01*
X88684072Y-154592336D01*
X88704762Y-154621103D01*
X88706792Y-154623870D01*
X88762716Y-154699427D01*
X88896789Y-154698714D01*
X88896789Y-152520901D01*
X88886837Y-152510579D01*
X88862649Y-152479342D01*
X88827957Y-152432452D01*
X88786494Y-152375169D01*
X88741994Y-152312754D01*
X88698189Y-152250468D01*
X88658813Y-152193571D01*
X88627599Y-152147326D01*
X88608279Y-152116992D01*
X88603831Y-152108044D01*
X88612349Y-152091772D01*
X88636269Y-152054620D01*
X88672353Y-152001412D01*
X88717365Y-151936973D01*
X88739691Y-151905569D01*
X88788562Y-151837785D01*
X88831346Y-151779564D01*
X88864486Y-151735659D01*
X88884427Y-151710826D01*
X88888111Y-151707161D01*
X88901647Y-151716127D01*
X88928724Y-151746147D01*
X88964956Y-151792069D01*
X88992948Y-151830261D01*
X89039681Y-151895814D01*
X89086115Y-151960946D01*
X89124861Y-152015294D01*
X89137916Y-152033605D01*
X89189902Y-152106522D01*
X89045275Y-152311417D01*
X88995796Y-152381462D01*
X88953108Y-152441793D01*
X88920401Y-152487909D01*
X88900867Y-152515308D01*
X88896789Y-152520901D01*
X88896789Y-154698714D01*
X89232040Y-154696928D01*
X89232040Y-153000765D01*
X89217785Y-152982759D01*
X89189132Y-152943803D01*
X89149788Y-152889027D01*
X89103461Y-152823563D01*
X89085865Y-152798477D01*
X89034761Y-152724947D01*
X88999819Y-152672512D01*
X88978764Y-152636421D01*
X88969319Y-152611924D01*
X88969205Y-152594270D01*
X88976148Y-152578709D01*
X88978627Y-152574731D01*
X88996549Y-152548227D01*
X89028693Y-152502105D01*
X89070740Y-152442518D01*
X89118365Y-152375619D01*
X89125718Y-152365340D01*
X89249246Y-152192781D01*
X89385789Y-152387951D01*
X89433928Y-152457322D01*
X89475278Y-152517975D01*
X89506512Y-152564948D01*
X89524304Y-152593277D01*
X89527073Y-152598729D01*
X89520762Y-152618339D01*
X89499096Y-152656316D01*
X89465894Y-152707455D01*
X89424978Y-152766550D01*
X89380167Y-152828397D01*
X89335280Y-152887789D01*
X89294138Y-152939522D01*
X89260560Y-152978390D01*
X89238367Y-152999187D01*
X89232040Y-153000765D01*
X89232040Y-154696928D01*
X89536000Y-154695308D01*
X89587555Y-154695034D01*
X89587555Y-153513741D01*
X89574713Y-153496656D01*
X89547267Y-153458383D01*
X89508697Y-153403829D01*
X89462483Y-153337903D01*
X89438659Y-153303735D01*
X89383068Y-153221457D01*
X89342974Y-153156883D01*
X89319727Y-153112353D01*
X89314675Y-153090209D01*
X89315137Y-153089423D01*
X89328726Y-153070645D01*
X89356826Y-153031032D01*
X89395768Y-152975780D01*
X89441884Y-152910085D01*
X89459166Y-152885407D01*
X89506387Y-152818986D01*
X89547535Y-152763084D01*
X89579098Y-152722321D01*
X89597564Y-152701318D01*
X89600450Y-152699481D01*
X89614067Y-152711955D01*
X89639607Y-152744138D01*
X89671626Y-152789156D01*
X89672718Y-152790762D01*
X89712770Y-152849381D01*
X89761301Y-152919829D01*
X89808551Y-152987945D01*
X89813588Y-152995172D01*
X89892930Y-153108905D01*
X89746187Y-153317913D01*
X89696152Y-153387417D01*
X89651958Y-153445492D01*
X89616879Y-153488097D01*
X89594189Y-153511190D01*
X89587555Y-153513741D01*
X89587555Y-154695034D01*
X89955499Y-154693074D01*
X89955499Y-154012182D01*
X89943111Y-154001308D01*
X89916789Y-153969556D01*
X89880418Y-153922324D01*
X89837884Y-153865014D01*
X89793071Y-153803023D01*
X89749864Y-153741753D01*
X89712149Y-153686602D01*
X89683810Y-153642970D01*
X89668734Y-153616257D01*
X89667289Y-153611624D01*
X89675710Y-153592990D01*
X89698996Y-153554348D01*
X89733502Y-153501486D01*
X89772256Y-153444936D01*
X89818614Y-153378963D01*
X89862303Y-153317253D01*
X89897790Y-153267596D01*
X89916505Y-153241853D01*
X89955247Y-153189518D01*
X90096749Y-153389638D01*
X90145592Y-153459660D01*
X90187138Y-153521025D01*
X90218212Y-153568897D01*
X90235635Y-153598439D01*
X90238250Y-153605065D01*
X90229577Y-153622730D01*
X90206158Y-153660372D01*
X90171901Y-153712366D01*
X90130711Y-153773090D01*
X90086493Y-153836921D01*
X90043153Y-153898235D01*
X90004595Y-153951408D01*
X89974727Y-153990819D01*
X89957452Y-154010843D01*
X89955499Y-154012182D01*
X89955499Y-154693074D01*
X90308641Y-154691192D01*
X90308641Y-154516563D01*
X90297971Y-154504503D01*
X90272840Y-154471902D01*
X90237144Y-154424122D01*
X90194775Y-154366531D01*
X90149628Y-154304492D01*
X90105598Y-154243371D01*
X90066577Y-154188533D01*
X90036461Y-154145343D01*
X90019142Y-154119166D01*
X90016484Y-154114035D01*
X90024903Y-154099746D01*
X90048429Y-154064101D01*
X90083932Y-154011738D01*
X90128285Y-153947291D01*
X90153502Y-153910981D01*
X90202138Y-153841768D01*
X90244827Y-153782165D01*
X90278119Y-153736900D01*
X90298562Y-153710704D01*
X90302871Y-153706246D01*
X90315492Y-153716045D01*
X90342692Y-153747860D01*
X90381161Y-153797474D01*
X90427589Y-153860673D01*
X90459529Y-153905701D01*
X90604318Y-154112491D01*
X90459873Y-154314527D01*
X90410093Y-154383580D01*
X90366850Y-154442479D01*
X90333432Y-154486829D01*
X90313130Y-154512237D01*
X90308641Y-154516563D01*
X90308641Y-154691192D01*
X90309283Y-154691188D01*
X90513090Y-154401431D01*
X90716898Y-154111673D01*
X89806855Y-152818478D01*
G37*
X89806855Y-152818478D02*
X88896813Y-151525283D01*
X88117534Y-151524704D01*
X87338256Y-151524125D01*
X87194044Y-151726532D01*
X87138277Y-151804752D01*
X87083353Y-151881698D01*
X87034486Y-151950072D01*
X86996889Y-152002578D01*
X86986881Y-152016519D01*
X86923928Y-152104100D01*
X87787398Y-153326206D01*
X87912897Y-153503792D01*
X88034096Y-153675221D01*
X88149622Y-153838553D01*
X88258102Y-153991852D01*
X88358161Y-154133176D01*
X88448426Y-154260588D01*
X88527523Y-154372149D01*
X88594079Y-154465920D01*
X88646720Y-154539962D01*
X88684072Y-154592336D01*
X88704762Y-154621103D01*
X88706792Y-154623870D01*
X88762716Y-154699427D01*
X88896789Y-154698714D01*
X88896789Y-152520901D01*
X88886837Y-152510579D01*
X88862649Y-152479342D01*
X88827957Y-152432452D01*
X88786494Y-152375169D01*
X88741994Y-152312754D01*
X88698189Y-152250468D01*
X88658813Y-152193571D01*
X88627599Y-152147326D01*
X88608279Y-152116992D01*
X88603831Y-152108044D01*
X88612349Y-152091772D01*
X88636269Y-152054620D01*
X88672353Y-152001412D01*
X88717365Y-151936973D01*
X88739691Y-151905569D01*
X88788562Y-151837785D01*
X88831346Y-151779564D01*
X88864486Y-151735659D01*
X88884427Y-151710826D01*
X88888111Y-151707161D01*
X88901647Y-151716127D01*
X88928724Y-151746147D01*
X88964956Y-151792069D01*
X88992948Y-151830261D01*
X89039681Y-151895814D01*
X89086115Y-151960946D01*
X89124861Y-152015294D01*
X89137916Y-152033605D01*
X89189902Y-152106522D01*
X89045275Y-152311417D01*
X88995796Y-152381462D01*
X88953108Y-152441793D01*
X88920401Y-152487909D01*
X88900867Y-152515308D01*
X88896789Y-152520901D01*
X88896789Y-154698714D01*
X89232040Y-154696928D01*
X89232040Y-153000765D01*
X89217785Y-152982759D01*
X89189132Y-152943803D01*
X89149788Y-152889027D01*
X89103461Y-152823563D01*
X89085865Y-152798477D01*
X89034761Y-152724947D01*
X88999819Y-152672512D01*
X88978764Y-152636421D01*
X88969319Y-152611924D01*
X88969205Y-152594270D01*
X88976148Y-152578709D01*
X88978627Y-152574731D01*
X88996549Y-152548227D01*
X89028693Y-152502105D01*
X89070740Y-152442518D01*
X89118365Y-152375619D01*
X89125718Y-152365340D01*
X89249246Y-152192781D01*
X89385789Y-152387951D01*
X89433928Y-152457322D01*
X89475278Y-152517975D01*
X89506512Y-152564948D01*
X89524304Y-152593277D01*
X89527073Y-152598729D01*
X89520762Y-152618339D01*
X89499096Y-152656316D01*
X89465894Y-152707455D01*
X89424978Y-152766550D01*
X89380167Y-152828397D01*
X89335280Y-152887789D01*
X89294138Y-152939522D01*
X89260560Y-152978390D01*
X89238367Y-152999187D01*
X89232040Y-153000765D01*
X89232040Y-154696928D01*
X89536000Y-154695308D01*
X89587555Y-154695034D01*
X89587555Y-153513741D01*
X89574713Y-153496656D01*
X89547267Y-153458383D01*
X89508697Y-153403829D01*
X89462483Y-153337903D01*
X89438659Y-153303735D01*
X89383068Y-153221457D01*
X89342974Y-153156883D01*
X89319727Y-153112353D01*
X89314675Y-153090209D01*
X89315137Y-153089423D01*
X89328726Y-153070645D01*
X89356826Y-153031032D01*
X89395768Y-152975780D01*
X89441884Y-152910085D01*
X89459166Y-152885407D01*
X89506387Y-152818986D01*
X89547535Y-152763084D01*
X89579098Y-152722321D01*
X89597564Y-152701318D01*
X89600450Y-152699481D01*
X89614067Y-152711955D01*
X89639607Y-152744138D01*
X89671626Y-152789156D01*
X89672718Y-152790762D01*
X89712770Y-152849381D01*
X89761301Y-152919829D01*
X89808551Y-152987945D01*
X89813588Y-152995172D01*
X89892930Y-153108905D01*
X89746187Y-153317913D01*
X89696152Y-153387417D01*
X89651958Y-153445492D01*
X89616879Y-153488097D01*
X89594189Y-153511190D01*
X89587555Y-153513741D01*
X89587555Y-154695034D01*
X89955499Y-154693074D01*
X89955499Y-154012182D01*
X89943111Y-154001308D01*
X89916789Y-153969556D01*
X89880418Y-153922324D01*
X89837884Y-153865014D01*
X89793071Y-153803023D01*
X89749864Y-153741753D01*
X89712149Y-153686602D01*
X89683810Y-153642970D01*
X89668734Y-153616257D01*
X89667289Y-153611624D01*
X89675710Y-153592990D01*
X89698996Y-153554348D01*
X89733502Y-153501486D01*
X89772256Y-153444936D01*
X89818614Y-153378963D01*
X89862303Y-153317253D01*
X89897790Y-153267596D01*
X89916505Y-153241853D01*
X89955247Y-153189518D01*
X90096749Y-153389638D01*
X90145592Y-153459660D01*
X90187138Y-153521025D01*
X90218212Y-153568897D01*
X90235635Y-153598439D01*
X90238250Y-153605065D01*
X90229577Y-153622730D01*
X90206158Y-153660372D01*
X90171901Y-153712366D01*
X90130711Y-153773090D01*
X90086493Y-153836921D01*
X90043153Y-153898235D01*
X90004595Y-153951408D01*
X89974727Y-153990819D01*
X89957452Y-154010843D01*
X89955499Y-154012182D01*
X89955499Y-154693074D01*
X90308641Y-154691192D01*
X90308641Y-154516563D01*
X90297971Y-154504503D01*
X90272840Y-154471902D01*
X90237144Y-154424122D01*
X90194775Y-154366531D01*
X90149628Y-154304492D01*
X90105598Y-154243371D01*
X90066577Y-154188533D01*
X90036461Y-154145343D01*
X90019142Y-154119166D01*
X90016484Y-154114035D01*
X90024903Y-154099746D01*
X90048429Y-154064101D01*
X90083932Y-154011738D01*
X90128285Y-153947291D01*
X90153502Y-153910981D01*
X90202138Y-153841768D01*
X90244827Y-153782165D01*
X90278119Y-153736900D01*
X90298562Y-153710704D01*
X90302871Y-153706246D01*
X90315492Y-153716045D01*
X90342692Y-153747860D01*
X90381161Y-153797474D01*
X90427589Y-153860673D01*
X90459529Y-153905701D01*
X90604318Y-154112491D01*
X90459873Y-154314527D01*
X90410093Y-154383580D01*
X90366850Y-154442479D01*
X90333432Y-154486829D01*
X90313130Y-154512237D01*
X90308641Y-154516563D01*
X90308641Y-154691192D01*
X90309283Y-154691188D01*
X90513090Y-154401431D01*
X90716898Y-154111673D01*
X89806855Y-152818478D01*
G36*
X90690713Y-141260443D02*
G01*
X90662927Y-141219767D01*
X90622780Y-141161464D01*
X90573172Y-141089741D01*
X90517002Y-141008808D01*
X90501039Y-140985853D01*
X90311390Y-140713250D01*
X89715101Y-140713250D01*
X89858059Y-140510844D01*
X89907209Y-140440567D01*
X89949237Y-140379162D01*
X89980961Y-140331383D01*
X89999199Y-140301982D01*
X90002340Y-140295284D01*
X89993668Y-140280305D01*
X89968219Y-140241697D01*
X89927571Y-140181738D01*
X89873301Y-140102708D01*
X89806985Y-140006883D01*
X89730201Y-139896544D01*
X89644525Y-139773969D01*
X89551535Y-139641435D01*
X89452807Y-139501223D01*
X89450238Y-139497580D01*
X88896813Y-138713030D01*
X87336283Y-138713000D01*
X87141724Y-138986844D01*
X87083278Y-139069104D01*
X87030774Y-139142993D01*
X86987098Y-139204449D01*
X86955140Y-139249408D01*
X86937786Y-139273808D01*
X86935823Y-139276563D01*
X86942714Y-139292003D01*
X86966490Y-139331022D01*
X87005609Y-139391346D01*
X87058527Y-139470701D01*
X87123700Y-139566811D01*
X87199587Y-139677402D01*
X87284643Y-139800199D01*
X87377326Y-139932927D01*
X87476092Y-140073312D01*
X87482021Y-140081707D01*
X88039563Y-140870977D01*
X88336131Y-140875457D01*
X88632698Y-140879938D01*
X88489454Y-141082970D01*
X88434301Y-141163455D01*
X88392175Y-141229743D01*
X88365057Y-141278487D01*
X88354928Y-141306340D01*
X88355290Y-141309667D01*
X88366936Y-141329262D01*
X88394242Y-141370390D01*
X88434304Y-141428828D01*
X88484219Y-141500350D01*
X88541082Y-141580733D01*
X88556765Y-141602729D01*
X88749158Y-141872125D01*
X88893015Y-141872125D01*
X88893015Y-139712174D01*
X88749438Y-139510244D01*
X88700075Y-139440153D01*
X88657860Y-139378946D01*
X88625990Y-139331355D01*
X88607658Y-139302116D01*
X88604493Y-139295489D01*
X88612723Y-139278699D01*
X88636310Y-139240927D01*
X88672096Y-139186987D01*
X88716923Y-139121691D01*
X88742032Y-139085875D01*
X88790903Y-139017517D01*
X88833649Y-138959377D01*
X88866858Y-138915970D01*
X88887115Y-138891811D01*
X88891368Y-138888355D01*
X88903679Y-138900358D01*
X88930837Y-138933957D01*
X88969462Y-138984753D01*
X89016176Y-139048343D01*
X89045339Y-139088923D01*
X89188880Y-139290221D01*
X89083339Y-139442142D01*
X89036551Y-139509319D01*
X88991912Y-139573108D01*
X88955133Y-139625366D01*
X88935406Y-139653119D01*
X88893015Y-139712174D01*
X88893015Y-141872125D01*
X89232819Y-141872125D01*
X89232819Y-140189106D01*
X89228087Y-140185978D01*
X89214657Y-140168829D01*
X89187423Y-140131656D01*
X89150472Y-140080247D01*
X89107892Y-140020391D01*
X89063767Y-139957875D01*
X89022186Y-139898488D01*
X88987235Y-139848018D01*
X88963000Y-139812253D01*
X88953698Y-139797350D01*
X88961933Y-139784063D01*
X88985533Y-139749386D01*
X89021414Y-139697767D01*
X89066491Y-139633657D01*
X89096719Y-139590975D01*
X89146309Y-139521243D01*
X89189161Y-139461190D01*
X89222040Y-139415336D01*
X89241710Y-139388198D01*
X89245809Y-139382795D01*
X89255952Y-139393437D01*
X89280911Y-139426000D01*
X89317552Y-139476218D01*
X89362744Y-139539821D01*
X89394512Y-139585303D01*
X89538466Y-139792703D01*
X89393403Y-139999548D01*
X89337128Y-140078738D01*
X89295569Y-140134314D01*
X89266090Y-140169252D01*
X89246052Y-140186524D01*
X89232819Y-140189106D01*
X89232819Y-141872125D01*
X89593527Y-141872125D01*
X89593527Y-140708819D01*
X89582873Y-140694438D01*
X89557307Y-140658587D01*
X89520067Y-140605845D01*
X89474393Y-140540791D01*
X89445252Y-140499136D01*
X89302859Y-140295335D01*
X89408594Y-140143137D01*
X89455375Y-140075968D01*
X89499964Y-140012246D01*
X89536675Y-139960079D01*
X89556443Y-139932264D01*
X89598558Y-139873590D01*
X89739810Y-140074004D01*
X89788866Y-140143913D01*
X89831176Y-140204790D01*
X89863460Y-140251869D01*
X89882437Y-140280383D01*
X89885996Y-140286385D01*
X89879161Y-140302261D01*
X89857628Y-140338004D01*
X89825041Y-140388354D01*
X89785040Y-140448050D01*
X89741269Y-140511831D01*
X89697368Y-140574437D01*
X89656981Y-140630608D01*
X89623750Y-140675082D01*
X89601315Y-140702601D01*
X89593527Y-140708819D01*
X89593527Y-141872125D01*
X90306380Y-141872125D01*
X90306380Y-141707304D01*
X90294172Y-141691712D01*
X90268030Y-141656178D01*
X90231808Y-141606116D01*
X90189362Y-141546940D01*
X90144546Y-141484066D01*
X90101214Y-141422909D01*
X90063221Y-141368883D01*
X90034422Y-141327403D01*
X90018672Y-141303883D01*
X90016870Y-141300625D01*
X90025265Y-141285564D01*
X90048902Y-141249294D01*
X90084637Y-141196493D01*
X90129325Y-141131837D01*
X90154967Y-141095212D01*
X90204140Y-141026751D01*
X90247795Y-140968733D01*
X90282400Y-140925641D01*
X90304419Y-140901961D01*
X90309688Y-140898805D01*
X90323846Y-140911545D01*
X90352401Y-140945965D01*
X90391835Y-140997530D01*
X90438631Y-141061706D01*
X90465028Y-141099016D01*
X90604492Y-141298160D01*
X90457090Y-141504328D01*
X90407087Y-141573804D01*
X90363931Y-141632888D01*
X90330783Y-141677324D01*
X90310802Y-141702855D01*
X90306380Y-141707304D01*
X90306380Y-141872125D01*
X90312332Y-141872125D01*
X90514061Y-141586119D01*
X90589814Y-141476930D01*
X90646579Y-141391119D01*
X90684122Y-141329064D01*
X90702209Y-141291147D01*
X90703239Y-141279283D01*
X90690713Y-141260443D01*
G37*
X90690713Y-141260443D02*
X90662927Y-141219767D01*
X90622780Y-141161464D01*
X90573172Y-141089741D01*
X90517002Y-141008808D01*
X90501039Y-140985853D01*
X90311390Y-140713250D01*
X89715101Y-140713250D01*
X89858059Y-140510844D01*
X89907209Y-140440567D01*
X89949237Y-140379162D01*
X89980961Y-140331383D01*
X89999199Y-140301982D01*
X90002340Y-140295284D01*
X89993668Y-140280305D01*
X89968219Y-140241697D01*
X89927571Y-140181738D01*
X89873301Y-140102708D01*
X89806985Y-140006883D01*
X89730201Y-139896544D01*
X89644525Y-139773969D01*
X89551535Y-139641435D01*
X89452807Y-139501223D01*
X89450238Y-139497580D01*
X88896813Y-138713030D01*
X87336283Y-138713000D01*
X87141724Y-138986844D01*
X87083278Y-139069104D01*
X87030774Y-139142993D01*
X86987098Y-139204449D01*
X86955140Y-139249408D01*
X86937786Y-139273808D01*
X86935823Y-139276563D01*
X86942714Y-139292003D01*
X86966490Y-139331022D01*
X87005609Y-139391346D01*
X87058527Y-139470701D01*
X87123700Y-139566811D01*
X87199587Y-139677402D01*
X87284643Y-139800199D01*
X87377326Y-139932927D01*
X87476092Y-140073312D01*
X87482021Y-140081707D01*
X88039563Y-140870977D01*
X88336131Y-140875457D01*
X88632698Y-140879938D01*
X88489454Y-141082970D01*
X88434301Y-141163455D01*
X88392175Y-141229743D01*
X88365057Y-141278487D01*
X88354928Y-141306340D01*
X88355290Y-141309667D01*
X88366936Y-141329262D01*
X88394242Y-141370390D01*
X88434304Y-141428828D01*
X88484219Y-141500350D01*
X88541082Y-141580733D01*
X88556765Y-141602729D01*
X88749158Y-141872125D01*
X88893015Y-141872125D01*
X88893015Y-139712174D01*
X88749438Y-139510244D01*
X88700075Y-139440153D01*
X88657860Y-139378946D01*
X88625990Y-139331355D01*
X88607658Y-139302116D01*
X88604493Y-139295489D01*
X88612723Y-139278699D01*
X88636310Y-139240927D01*
X88672096Y-139186987D01*
X88716923Y-139121691D01*
X88742032Y-139085875D01*
X88790903Y-139017517D01*
X88833649Y-138959377D01*
X88866858Y-138915970D01*
X88887115Y-138891811D01*
X88891368Y-138888355D01*
X88903679Y-138900358D01*
X88930837Y-138933957D01*
X88969462Y-138984753D01*
X89016176Y-139048343D01*
X89045339Y-139088923D01*
X89188880Y-139290221D01*
X89083339Y-139442142D01*
X89036551Y-139509319D01*
X88991912Y-139573108D01*
X88955133Y-139625366D01*
X88935406Y-139653119D01*
X88893015Y-139712174D01*
X88893015Y-141872125D01*
X89232819Y-141872125D01*
X89232819Y-140189106D01*
X89228087Y-140185978D01*
X89214657Y-140168829D01*
X89187423Y-140131656D01*
X89150472Y-140080247D01*
X89107892Y-140020391D01*
X89063767Y-139957875D01*
X89022186Y-139898488D01*
X88987235Y-139848018D01*
X88963000Y-139812253D01*
X88953698Y-139797350D01*
X88961933Y-139784063D01*
X88985533Y-139749386D01*
X89021414Y-139697767D01*
X89066491Y-139633657D01*
X89096719Y-139590975D01*
X89146309Y-139521243D01*
X89189161Y-139461190D01*
X89222040Y-139415336D01*
X89241710Y-139388198D01*
X89245809Y-139382795D01*
X89255952Y-139393437D01*
X89280911Y-139426000D01*
X89317552Y-139476218D01*
X89362744Y-139539821D01*
X89394512Y-139585303D01*
X89538466Y-139792703D01*
X89393403Y-139999548D01*
X89337128Y-140078738D01*
X89295569Y-140134314D01*
X89266090Y-140169252D01*
X89246052Y-140186524D01*
X89232819Y-140189106D01*
X89232819Y-141872125D01*
X89593527Y-141872125D01*
X89593527Y-140708819D01*
X89582873Y-140694438D01*
X89557307Y-140658587D01*
X89520067Y-140605845D01*
X89474393Y-140540791D01*
X89445252Y-140499136D01*
X89302859Y-140295335D01*
X89408594Y-140143137D01*
X89455375Y-140075968D01*
X89499964Y-140012246D01*
X89536675Y-139960079D01*
X89556443Y-139932264D01*
X89598558Y-139873590D01*
X89739810Y-140074004D01*
X89788866Y-140143913D01*
X89831176Y-140204790D01*
X89863460Y-140251869D01*
X89882437Y-140280383D01*
X89885996Y-140286385D01*
X89879161Y-140302261D01*
X89857628Y-140338004D01*
X89825041Y-140388354D01*
X89785040Y-140448050D01*
X89741269Y-140511831D01*
X89697368Y-140574437D01*
X89656981Y-140630608D01*
X89623750Y-140675082D01*
X89601315Y-140702601D01*
X89593527Y-140708819D01*
X89593527Y-141872125D01*
X90306380Y-141872125D01*
X90306380Y-141707304D01*
X90294172Y-141691712D01*
X90268030Y-141656178D01*
X90231808Y-141606116D01*
X90189362Y-141546940D01*
X90144546Y-141484066D01*
X90101214Y-141422909D01*
X90063221Y-141368883D01*
X90034422Y-141327403D01*
X90018672Y-141303883D01*
X90016870Y-141300625D01*
X90025265Y-141285564D01*
X90048902Y-141249294D01*
X90084637Y-141196493D01*
X90129325Y-141131837D01*
X90154967Y-141095212D01*
X90204140Y-141026751D01*
X90247795Y-140968733D01*
X90282400Y-140925641D01*
X90304419Y-140901961D01*
X90309688Y-140898805D01*
X90323846Y-140911545D01*
X90352401Y-140945965D01*
X90391835Y-140997530D01*
X90438631Y-141061706D01*
X90465028Y-141099016D01*
X90604492Y-141298160D01*
X90457090Y-141504328D01*
X90407087Y-141573804D01*
X90363931Y-141632888D01*
X90330783Y-141677324D01*
X90310802Y-141702855D01*
X90306380Y-141707304D01*
X90306380Y-141872125D01*
X90312332Y-141872125D01*
X90514061Y-141586119D01*
X90589814Y-141476930D01*
X90646579Y-141391119D01*
X90684122Y-141329064D01*
X90702209Y-141291147D01*
X90703239Y-141279283D01*
X90690713Y-141260443D01*
G36*
X91757705Y-160307555D02*
G01*
X91732780Y-160268745D01*
X91692619Y-160208586D01*
X91638786Y-160129356D01*
X91572845Y-160033332D01*
X91496360Y-159922788D01*
X91410893Y-159800003D01*
X91318010Y-159667253D01*
X91219272Y-159526814D01*
X91214563Y-159520133D01*
X90658938Y-158731860D01*
X89880181Y-158731618D01*
X89101425Y-158731375D01*
X88743761Y-159239375D01*
X87334858Y-159239375D01*
X87135554Y-159517538D01*
X87076837Y-159600393D01*
X87025026Y-159675239D01*
X86982818Y-159738033D01*
X86952912Y-159784733D01*
X86938009Y-159811295D01*
X86936836Y-159815194D01*
X86945904Y-159830629D01*
X86972112Y-159870175D01*
X87014222Y-159932056D01*
X87070994Y-160014495D01*
X87141189Y-160115715D01*
X87223567Y-160233939D01*
X87316888Y-160367390D01*
X87419914Y-160514291D01*
X87531404Y-160672866D01*
X87650120Y-160841337D01*
X87774822Y-161017927D01*
X87844608Y-161116594D01*
X88751794Y-162398500D01*
X88891266Y-162398500D01*
X88891266Y-160223160D01*
X88879880Y-160210811D01*
X88854443Y-160177667D01*
X88818792Y-160129163D01*
X88776766Y-160070736D01*
X88732201Y-160007822D01*
X88688934Y-159945857D01*
X88650803Y-159890276D01*
X88621645Y-159846516D01*
X88605297Y-159820013D01*
X88603125Y-159814963D01*
X88611656Y-159800401D01*
X88635165Y-159764436D01*
X88670524Y-159711751D01*
X88714608Y-159647025D01*
X88739131Y-159611341D01*
X88787240Y-159542663D01*
X88829551Y-159484381D01*
X88862642Y-159441042D01*
X88883094Y-159417194D01*
X88887512Y-159414000D01*
X88900902Y-159426321D01*
X88927986Y-159459640D01*
X88964912Y-159508494D01*
X89007831Y-159567422D01*
X89052890Y-159630959D01*
X89096238Y-159693643D01*
X89134025Y-159750011D01*
X89162397Y-159794600D01*
X89177505Y-159821947D01*
X89178914Y-159827345D01*
X89168221Y-159846404D01*
X89143036Y-159884353D01*
X89107310Y-159935756D01*
X89064994Y-159995176D01*
X89020037Y-160057178D01*
X88976390Y-160116327D01*
X88938002Y-160167187D01*
X88908825Y-160204322D01*
X88892808Y-160222296D01*
X88891266Y-160223160D01*
X88891266Y-162398500D01*
X89253540Y-162398500D01*
X89253540Y-160721272D01*
X89240990Y-160713492D01*
X89214121Y-160683334D01*
X89176175Y-160634874D01*
X89130391Y-160572185D01*
X89097533Y-160525109D01*
X88953696Y-160315488D01*
X89064500Y-160155354D01*
X89111094Y-160088445D01*
X89154528Y-160026841D01*
X89189750Y-159977658D01*
X89210749Y-159949257D01*
X89246195Y-159903293D01*
X89328008Y-160019803D01*
X89375282Y-160086824D01*
X89425361Y-160157343D01*
X89468558Y-160217725D01*
X89474375Y-160225801D01*
X89538930Y-160315289D01*
X89402320Y-160511551D01*
X89353722Y-160581114D01*
X89311074Y-160641680D01*
X89277871Y-160688322D01*
X89257607Y-160716114D01*
X89253540Y-160721272D01*
X89253540Y-162398500D01*
X89598854Y-162398500D01*
X89598854Y-161238964D01*
X89451207Y-161029839D01*
X89401976Y-160958276D01*
X89360975Y-160895141D01*
X89331079Y-160845150D01*
X89315158Y-160813022D01*
X89313666Y-160803951D01*
X89326092Y-160785541D01*
X89353345Y-160746389D01*
X89391834Y-160691615D01*
X89437969Y-160626341D01*
X89456185Y-160600657D01*
X89504009Y-160534376D01*
X89545753Y-160478562D01*
X89577869Y-160437804D01*
X89596810Y-160416693D01*
X89599893Y-160414777D01*
X89611675Y-160427099D01*
X89637628Y-160460031D01*
X89673810Y-160508110D01*
X89716277Y-160565872D01*
X89761083Y-160627854D01*
X89804285Y-160688592D01*
X89841940Y-160742622D01*
X89870102Y-160784481D01*
X89884829Y-160808706D01*
X89885745Y-160810762D01*
X89878669Y-160827330D01*
X89856095Y-160865059D01*
X89821005Y-160919290D01*
X89776382Y-160985366D01*
X89744640Y-161031089D01*
X89598854Y-161238964D01*
X89598854Y-162398500D01*
X89954002Y-162398500D01*
X89954002Y-161734078D01*
X89877845Y-161627817D01*
X89830422Y-161562100D01*
X89779238Y-161491866D01*
X89735358Y-161432297D01*
X89735275Y-161432185D01*
X89701933Y-161384817D01*
X89677746Y-161345703D01*
X89667827Y-161323132D01*
X89667806Y-161322841D01*
X89676188Y-161302596D01*
X89699738Y-161262835D01*
X89734711Y-161209546D01*
X89772009Y-161156154D01*
X89818740Y-161091194D01*
X89862722Y-161030370D01*
X89898256Y-160981544D01*
X89916085Y-160957329D01*
X89952500Y-160908445D01*
X89952500Y-160730383D01*
X89940857Y-160717968D01*
X89915492Y-160684508D01*
X89880158Y-160635471D01*
X89838610Y-160576320D01*
X89794601Y-160512520D01*
X89751885Y-160449536D01*
X89714215Y-160392833D01*
X89685345Y-160347875D01*
X89669029Y-160320128D01*
X89666750Y-160314369D01*
X89675465Y-160297432D01*
X89699478Y-160259515D01*
X89735596Y-160205446D01*
X89780625Y-160140054D01*
X89805657Y-160104375D01*
X89854337Y-160036081D01*
X89896632Y-159978015D01*
X89929192Y-159934674D01*
X89948668Y-159910558D01*
X89952500Y-159907110D01*
X89963888Y-159919233D01*
X89990070Y-159952981D01*
X90027730Y-160003901D01*
X90073547Y-160067542D01*
X90100654Y-160105831D01*
X90156361Y-160187389D01*
X90198006Y-160253473D01*
X90223822Y-160301073D01*
X90232043Y-160327179D01*
X90231650Y-160329052D01*
X90219472Y-160350814D01*
X90193665Y-160391127D01*
X90158061Y-160444483D01*
X90116490Y-160505375D01*
X90072785Y-160568293D01*
X90030777Y-160627728D01*
X89994298Y-160678173D01*
X89967178Y-160714120D01*
X89953250Y-160730058D01*
X89952500Y-160730383D01*
X89952500Y-160908445D01*
X89954903Y-160905219D01*
X90091412Y-161100204D01*
X90139337Y-161170181D01*
X90179905Y-161232320D01*
X90209881Y-161281436D01*
X90226028Y-161312343D01*
X90227922Y-161319000D01*
X90219188Y-161339822D01*
X90195140Y-161381241D01*
X90159008Y-161438081D01*
X90114021Y-161505168D01*
X90090962Y-161538445D01*
X89954002Y-161734078D01*
X89954002Y-162398500D01*
X90301143Y-162398500D01*
X90301143Y-162210842D01*
X90295784Y-162208698D01*
X90270165Y-162179433D01*
X90234494Y-162133330D01*
X90192645Y-162076043D01*
X90148494Y-162013227D01*
X90105915Y-161950536D01*
X90068784Y-161893625D01*
X90040975Y-161848147D01*
X90026365Y-161819759D01*
X90025184Y-161813840D01*
X90036190Y-161793727D01*
X90061896Y-161752833D01*
X90098873Y-161696443D01*
X90143692Y-161629842D01*
X90161695Y-161603496D01*
X90208513Y-161536306D01*
X90249377Y-161479619D01*
X90280827Y-161438086D01*
X90299403Y-161416356D01*
X90302474Y-161414250D01*
X90309688Y-161420300D01*
X90309688Y-160212550D01*
X90297202Y-160200693D01*
X90270442Y-160168251D01*
X90233386Y-160120622D01*
X90190010Y-160063203D01*
X90144290Y-160001389D01*
X90100203Y-159940579D01*
X90061726Y-159886168D01*
X90032834Y-159843555D01*
X90017504Y-159818134D01*
X90016061Y-159814044D01*
X90024764Y-159800179D01*
X90048844Y-159764973D01*
X90085189Y-159712896D01*
X90130686Y-159648419D01*
X90162073Y-159604252D01*
X90211730Y-159534975D01*
X90254478Y-159476136D01*
X90287170Y-159432001D01*
X90306660Y-159406838D01*
X90310742Y-159402646D01*
X90320382Y-159416037D01*
X90345313Y-159450794D01*
X90382345Y-159502465D01*
X90428289Y-159566601D01*
X90459034Y-159609533D01*
X90604729Y-159813003D01*
X90465146Y-160012316D01*
X90415871Y-160081327D01*
X90372104Y-160140100D01*
X90337363Y-160184108D01*
X90315160Y-160208823D01*
X90309688Y-160212550D01*
X90309688Y-161420300D01*
X90317558Y-161426901D01*
X90345324Y-161461100D01*
X90382039Y-161511215D01*
X90423973Y-161571617D01*
X90467393Y-161636674D01*
X90508569Y-161700756D01*
X90543767Y-161758232D01*
X90569258Y-161803471D01*
X90581308Y-161830842D01*
X90581581Y-161835403D01*
X90569541Y-161856325D01*
X90542658Y-161897692D01*
X90504537Y-161954109D01*
X90458787Y-162020182D01*
X90443134Y-162042469D01*
X90387630Y-162119449D01*
X90346798Y-162171666D01*
X90318635Y-162201378D01*
X90301143Y-162210842D01*
X90301143Y-162398500D01*
X90310916Y-162398500D01*
X90650626Y-161915731D01*
X90650626Y-161718451D01*
X90645749Y-161716974D01*
X90631611Y-161699249D01*
X90604078Y-161662037D01*
X90567076Y-161610888D01*
X90524531Y-161551349D01*
X90480369Y-161488969D01*
X90438513Y-161429297D01*
X90402892Y-161377881D01*
X90377429Y-161340269D01*
X90366050Y-161322011D01*
X90365800Y-161321285D01*
X90374196Y-161306996D01*
X90397701Y-161271353D01*
X90433189Y-161218991D01*
X90477533Y-161154546D01*
X90502752Y-161118231D01*
X90551388Y-161049018D01*
X90594077Y-160989415D01*
X90627369Y-160944150D01*
X90647812Y-160917954D01*
X90652121Y-160913496D01*
X90663060Y-160921984D01*
X90663060Y-159734059D01*
X90602815Y-159649436D01*
X90564348Y-159595845D01*
X90516006Y-159529110D01*
X90466775Y-159461628D01*
X90455130Y-159445750D01*
X90417545Y-159391492D01*
X90389615Y-159345200D01*
X90375259Y-159313685D01*
X90374426Y-159305498D01*
X90385713Y-159285591D01*
X90412192Y-159245190D01*
X90450360Y-159189460D01*
X90496715Y-159123569D01*
X90517030Y-159095154D01*
X90565235Y-159028543D01*
X90606689Y-158972208D01*
X90638004Y-158930677D01*
X90655796Y-158908477D01*
X90658475Y-158906000D01*
X90668984Y-158918311D01*
X90694413Y-158952320D01*
X90731573Y-159003645D01*
X90777279Y-159067904D01*
X90808949Y-159112944D01*
X90953846Y-159319888D01*
X90808453Y-159526973D01*
X90663060Y-159734059D01*
X90663060Y-160921984D01*
X90664745Y-160923292D01*
X90691944Y-160955101D01*
X90730405Y-161004703D01*
X90776813Y-161067879D01*
X90808520Y-161112581D01*
X90953050Y-161319000D01*
X90807825Y-161526413D01*
X90746996Y-161611419D01*
X90701365Y-161670767D01*
X90669664Y-161705948D01*
X90650626Y-161718451D01*
X90650626Y-161915731D01*
X91012980Y-161400781D01*
X91012980Y-161240086D01*
X90865436Y-161029512D01*
X90816312Y-160957673D01*
X90775308Y-160894373D01*
X90745288Y-160844308D01*
X90729112Y-160812174D01*
X90727415Y-160803063D01*
X90739526Y-160784980D01*
X90766395Y-160745983D01*
X90804514Y-160691129D01*
X90850377Y-160625476D01*
X90870549Y-160596688D01*
X90917968Y-160529158D01*
X90958578Y-160471470D01*
X90989059Y-160428330D01*
X91006091Y-160404445D01*
X91008459Y-160401258D01*
X91011029Y-160403940D01*
X91011029Y-160211872D01*
X90997685Y-160198742D01*
X90969560Y-160164227D01*
X90930183Y-160112877D01*
X90883085Y-160049243D01*
X90857633Y-160014089D01*
X90803990Y-159939003D01*
X90766801Y-159884990D01*
X90743775Y-159847499D01*
X90732621Y-159821978D01*
X90731047Y-159803873D01*
X90736763Y-159788635D01*
X90740794Y-159781981D01*
X90758660Y-159755540D01*
X90790779Y-159709439D01*
X90832860Y-159649790D01*
X90880609Y-159582705D01*
X90888959Y-159571031D01*
X91013603Y-159396912D01*
X91153771Y-159596290D01*
X91202576Y-159666128D01*
X91244584Y-159727031D01*
X91276517Y-159774183D01*
X91295097Y-159802769D01*
X91298401Y-159808723D01*
X91291425Y-159825961D01*
X91269239Y-159862769D01*
X91235732Y-159913689D01*
X91194797Y-159973265D01*
X91150322Y-160036037D01*
X91106199Y-160096548D01*
X91066318Y-160149340D01*
X91034569Y-160188956D01*
X91014843Y-160209937D01*
X91011029Y-160211872D01*
X91011029Y-160403940D01*
X91018405Y-160411638D01*
X91042525Y-160442996D01*
X91077116Y-160490074D01*
X91118474Y-160547613D01*
X91162893Y-160610354D01*
X91206669Y-160673038D01*
X91246099Y-160730407D01*
X91277477Y-160777202D01*
X91297101Y-160808164D01*
X91301876Y-160817803D01*
X91293222Y-160833455D01*
X91269322Y-160870400D01*
X91233270Y-160924014D01*
X91188158Y-160989673D01*
X91157428Y-161033784D01*
X91012980Y-161240086D01*
X91012980Y-161400781D01*
X91036196Y-161367788D01*
X91149725Y-161206349D01*
X91257907Y-161052318D01*
X91355935Y-160912559D01*
X91355935Y-160712414D01*
X91354267Y-160711043D01*
X91336960Y-160689901D01*
X91307209Y-160649861D01*
X91268935Y-160596572D01*
X91226059Y-160535688D01*
X91182501Y-160472859D01*
X91142183Y-160413736D01*
X91109025Y-160363971D01*
X91086947Y-160329214D01*
X91079792Y-160315419D01*
X91088502Y-160299143D01*
X91112589Y-160261981D01*
X91148801Y-160208760D01*
X91193887Y-160144306D01*
X91216191Y-160112944D01*
X91264922Y-160045278D01*
X91307401Y-159987268D01*
X91340119Y-159943632D01*
X91359565Y-159919089D01*
X91363034Y-159915541D01*
X91375258Y-159925580D01*
X91402331Y-159957410D01*
X91440910Y-160006801D01*
X91487650Y-160069522D01*
X91518416Y-160112067D01*
X91663518Y-160314914D01*
X91518416Y-160522531D01*
X91461208Y-160603128D01*
X91418726Y-160659692D01*
X91388601Y-160694947D01*
X91368460Y-160711613D01*
X91355935Y-160712414D01*
X91355935Y-160912559D01*
X91359357Y-160907680D01*
X91452688Y-160774421D01*
X91536513Y-160654526D01*
X91609448Y-160549981D01*
X91670105Y-160462770D01*
X91717098Y-160394880D01*
X91749042Y-160348295D01*
X91764550Y-160325001D01*
X91765832Y-160322741D01*
X91757705Y-160307555D01*
G37*
X91757705Y-160307555D02*
X91732780Y-160268745D01*
X91692619Y-160208586D01*
X91638786Y-160129356D01*
X91572845Y-160033332D01*
X91496360Y-159922788D01*
X91410893Y-159800003D01*
X91318010Y-159667253D01*
X91219272Y-159526814D01*
X91214563Y-159520133D01*
X90658938Y-158731860D01*
X89880181Y-158731618D01*
X89101425Y-158731375D01*
X88743761Y-159239375D01*
X87334858Y-159239375D01*
X87135554Y-159517538D01*
X87076837Y-159600393D01*
X87025026Y-159675239D01*
X86982818Y-159738033D01*
X86952912Y-159784733D01*
X86938009Y-159811295D01*
X86936836Y-159815194D01*
X86945904Y-159830629D01*
X86972112Y-159870175D01*
X87014222Y-159932056D01*
X87070994Y-160014495D01*
X87141189Y-160115715D01*
X87223567Y-160233939D01*
X87316888Y-160367390D01*
X87419914Y-160514291D01*
X87531404Y-160672866D01*
X87650120Y-160841337D01*
X87774822Y-161017927D01*
X87844608Y-161116594D01*
X88751794Y-162398500D01*
X88891266Y-162398500D01*
X88891266Y-160223160D01*
X88879880Y-160210811D01*
X88854443Y-160177667D01*
X88818792Y-160129163D01*
X88776766Y-160070736D01*
X88732201Y-160007822D01*
X88688934Y-159945857D01*
X88650803Y-159890276D01*
X88621645Y-159846516D01*
X88605297Y-159820013D01*
X88603125Y-159814963D01*
X88611656Y-159800401D01*
X88635165Y-159764436D01*
X88670524Y-159711751D01*
X88714608Y-159647025D01*
X88739131Y-159611341D01*
X88787240Y-159542663D01*
X88829551Y-159484381D01*
X88862642Y-159441042D01*
X88883094Y-159417194D01*
X88887512Y-159414000D01*
X88900902Y-159426321D01*
X88927986Y-159459640D01*
X88964912Y-159508494D01*
X89007831Y-159567422D01*
X89052890Y-159630959D01*
X89096238Y-159693643D01*
X89134025Y-159750011D01*
X89162397Y-159794600D01*
X89177505Y-159821947D01*
X89178914Y-159827345D01*
X89168221Y-159846404D01*
X89143036Y-159884353D01*
X89107310Y-159935756D01*
X89064994Y-159995176D01*
X89020037Y-160057178D01*
X88976390Y-160116327D01*
X88938002Y-160167187D01*
X88908825Y-160204322D01*
X88892808Y-160222296D01*
X88891266Y-160223160D01*
X88891266Y-162398500D01*
X89253540Y-162398500D01*
X89253540Y-160721272D01*
X89240990Y-160713492D01*
X89214121Y-160683334D01*
X89176175Y-160634874D01*
X89130391Y-160572185D01*
X89097533Y-160525109D01*
X88953696Y-160315488D01*
X89064500Y-160155354D01*
X89111094Y-160088445D01*
X89154528Y-160026841D01*
X89189750Y-159977658D01*
X89210749Y-159949257D01*
X89246195Y-159903293D01*
X89328008Y-160019803D01*
X89375282Y-160086824D01*
X89425361Y-160157343D01*
X89468558Y-160217725D01*
X89474375Y-160225801D01*
X89538930Y-160315289D01*
X89402320Y-160511551D01*
X89353722Y-160581114D01*
X89311074Y-160641680D01*
X89277871Y-160688322D01*
X89257607Y-160716114D01*
X89253540Y-160721272D01*
X89253540Y-162398500D01*
X89598854Y-162398500D01*
X89598854Y-161238964D01*
X89451207Y-161029839D01*
X89401976Y-160958276D01*
X89360975Y-160895141D01*
X89331079Y-160845150D01*
X89315158Y-160813022D01*
X89313666Y-160803951D01*
X89326092Y-160785541D01*
X89353345Y-160746389D01*
X89391834Y-160691615D01*
X89437969Y-160626341D01*
X89456185Y-160600657D01*
X89504009Y-160534376D01*
X89545753Y-160478562D01*
X89577869Y-160437804D01*
X89596810Y-160416693D01*
X89599893Y-160414777D01*
X89611675Y-160427099D01*
X89637628Y-160460031D01*
X89673810Y-160508110D01*
X89716277Y-160565872D01*
X89761083Y-160627854D01*
X89804285Y-160688592D01*
X89841940Y-160742622D01*
X89870102Y-160784481D01*
X89884829Y-160808706D01*
X89885745Y-160810762D01*
X89878669Y-160827330D01*
X89856095Y-160865059D01*
X89821005Y-160919290D01*
X89776382Y-160985366D01*
X89744640Y-161031089D01*
X89598854Y-161238964D01*
X89598854Y-162398500D01*
X89954002Y-162398500D01*
X89954002Y-161734078D01*
X89877845Y-161627817D01*
X89830422Y-161562100D01*
X89779238Y-161491866D01*
X89735358Y-161432297D01*
X89735275Y-161432185D01*
X89701933Y-161384817D01*
X89677746Y-161345703D01*
X89667827Y-161323132D01*
X89667806Y-161322841D01*
X89676188Y-161302596D01*
X89699738Y-161262835D01*
X89734711Y-161209546D01*
X89772009Y-161156154D01*
X89818740Y-161091194D01*
X89862722Y-161030370D01*
X89898256Y-160981544D01*
X89916085Y-160957329D01*
X89952500Y-160908445D01*
X89952500Y-160730383D01*
X89940857Y-160717968D01*
X89915492Y-160684508D01*
X89880158Y-160635471D01*
X89838610Y-160576320D01*
X89794601Y-160512520D01*
X89751885Y-160449536D01*
X89714215Y-160392833D01*
X89685345Y-160347875D01*
X89669029Y-160320128D01*
X89666750Y-160314369D01*
X89675465Y-160297432D01*
X89699478Y-160259515D01*
X89735596Y-160205446D01*
X89780625Y-160140054D01*
X89805657Y-160104375D01*
X89854337Y-160036081D01*
X89896632Y-159978015D01*
X89929192Y-159934674D01*
X89948668Y-159910558D01*
X89952500Y-159907110D01*
X89963888Y-159919233D01*
X89990070Y-159952981D01*
X90027730Y-160003901D01*
X90073547Y-160067542D01*
X90100654Y-160105831D01*
X90156361Y-160187389D01*
X90198006Y-160253473D01*
X90223822Y-160301073D01*
X90232043Y-160327179D01*
X90231650Y-160329052D01*
X90219472Y-160350814D01*
X90193665Y-160391127D01*
X90158061Y-160444483D01*
X90116490Y-160505375D01*
X90072785Y-160568293D01*
X90030777Y-160627728D01*
X89994298Y-160678173D01*
X89967178Y-160714120D01*
X89953250Y-160730058D01*
X89952500Y-160730383D01*
X89952500Y-160908445D01*
X89954903Y-160905219D01*
X90091412Y-161100204D01*
X90139337Y-161170181D01*
X90179905Y-161232320D01*
X90209881Y-161281436D01*
X90226028Y-161312343D01*
X90227922Y-161319000D01*
X90219188Y-161339822D01*
X90195140Y-161381241D01*
X90159008Y-161438081D01*
X90114021Y-161505168D01*
X90090962Y-161538445D01*
X89954002Y-161734078D01*
X89954002Y-162398500D01*
X90301143Y-162398500D01*
X90301143Y-162210842D01*
X90295784Y-162208698D01*
X90270165Y-162179433D01*
X90234494Y-162133330D01*
X90192645Y-162076043D01*
X90148494Y-162013227D01*
X90105915Y-161950536D01*
X90068784Y-161893625D01*
X90040975Y-161848147D01*
X90026365Y-161819759D01*
X90025184Y-161813840D01*
X90036190Y-161793727D01*
X90061896Y-161752833D01*
X90098873Y-161696443D01*
X90143692Y-161629842D01*
X90161695Y-161603496D01*
X90208513Y-161536306D01*
X90249377Y-161479619D01*
X90280827Y-161438086D01*
X90299403Y-161416356D01*
X90302474Y-161414250D01*
X90309688Y-161420300D01*
X90309688Y-160212550D01*
X90297202Y-160200693D01*
X90270442Y-160168251D01*
X90233386Y-160120622D01*
X90190010Y-160063203D01*
X90144290Y-160001389D01*
X90100203Y-159940579D01*
X90061726Y-159886168D01*
X90032834Y-159843555D01*
X90017504Y-159818134D01*
X90016061Y-159814044D01*
X90024764Y-159800179D01*
X90048844Y-159764973D01*
X90085189Y-159712896D01*
X90130686Y-159648419D01*
X90162073Y-159604252D01*
X90211730Y-159534975D01*
X90254478Y-159476136D01*
X90287170Y-159432001D01*
X90306660Y-159406838D01*
X90310742Y-159402646D01*
X90320382Y-159416037D01*
X90345313Y-159450794D01*
X90382345Y-159502465D01*
X90428289Y-159566601D01*
X90459034Y-159609533D01*
X90604729Y-159813003D01*
X90465146Y-160012316D01*
X90415871Y-160081327D01*
X90372104Y-160140100D01*
X90337363Y-160184108D01*
X90315160Y-160208823D01*
X90309688Y-160212550D01*
X90309688Y-161420300D01*
X90317558Y-161426901D01*
X90345324Y-161461100D01*
X90382039Y-161511215D01*
X90423973Y-161571617D01*
X90467393Y-161636674D01*
X90508569Y-161700756D01*
X90543767Y-161758232D01*
X90569258Y-161803471D01*
X90581308Y-161830842D01*
X90581581Y-161835403D01*
X90569541Y-161856325D01*
X90542658Y-161897692D01*
X90504537Y-161954109D01*
X90458787Y-162020182D01*
X90443134Y-162042469D01*
X90387630Y-162119449D01*
X90346798Y-162171666D01*
X90318635Y-162201378D01*
X90301143Y-162210842D01*
X90301143Y-162398500D01*
X90310916Y-162398500D01*
X90650626Y-161915731D01*
X90650626Y-161718451D01*
X90645749Y-161716974D01*
X90631611Y-161699249D01*
X90604078Y-161662037D01*
X90567076Y-161610888D01*
X90524531Y-161551349D01*
X90480369Y-161488969D01*
X90438513Y-161429297D01*
X90402892Y-161377881D01*
X90377429Y-161340269D01*
X90366050Y-161322011D01*
X90365800Y-161321285D01*
X90374196Y-161306996D01*
X90397701Y-161271353D01*
X90433189Y-161218991D01*
X90477533Y-161154546D01*
X90502752Y-161118231D01*
X90551388Y-161049018D01*
X90594077Y-160989415D01*
X90627369Y-160944150D01*
X90647812Y-160917954D01*
X90652121Y-160913496D01*
X90663060Y-160921984D01*
X90663060Y-159734059D01*
X90602815Y-159649436D01*
X90564348Y-159595845D01*
X90516006Y-159529110D01*
X90466775Y-159461628D01*
X90455130Y-159445750D01*
X90417545Y-159391492D01*
X90389615Y-159345200D01*
X90375259Y-159313685D01*
X90374426Y-159305498D01*
X90385713Y-159285591D01*
X90412192Y-159245190D01*
X90450360Y-159189460D01*
X90496715Y-159123569D01*
X90517030Y-159095154D01*
X90565235Y-159028543D01*
X90606689Y-158972208D01*
X90638004Y-158930677D01*
X90655796Y-158908477D01*
X90658475Y-158906000D01*
X90668984Y-158918311D01*
X90694413Y-158952320D01*
X90731573Y-159003645D01*
X90777279Y-159067904D01*
X90808949Y-159112944D01*
X90953846Y-159319888D01*
X90808453Y-159526973D01*
X90663060Y-159734059D01*
X90663060Y-160921984D01*
X90664745Y-160923292D01*
X90691944Y-160955101D01*
X90730405Y-161004703D01*
X90776813Y-161067879D01*
X90808520Y-161112581D01*
X90953050Y-161319000D01*
X90807825Y-161526413D01*
X90746996Y-161611419D01*
X90701365Y-161670767D01*
X90669664Y-161705948D01*
X90650626Y-161718451D01*
X90650626Y-161915731D01*
X91012980Y-161400781D01*
X91012980Y-161240086D01*
X90865436Y-161029512D01*
X90816312Y-160957673D01*
X90775308Y-160894373D01*
X90745288Y-160844308D01*
X90729112Y-160812174D01*
X90727415Y-160803063D01*
X90739526Y-160784980D01*
X90766395Y-160745983D01*
X90804514Y-160691129D01*
X90850377Y-160625476D01*
X90870549Y-160596688D01*
X90917968Y-160529158D01*
X90958578Y-160471470D01*
X90989059Y-160428330D01*
X91006091Y-160404445D01*
X91008459Y-160401258D01*
X91011029Y-160403940D01*
X91011029Y-160211872D01*
X90997685Y-160198742D01*
X90969560Y-160164227D01*
X90930183Y-160112877D01*
X90883085Y-160049243D01*
X90857633Y-160014089D01*
X90803990Y-159939003D01*
X90766801Y-159884990D01*
X90743775Y-159847499D01*
X90732621Y-159821978D01*
X90731047Y-159803873D01*
X90736763Y-159788635D01*
X90740794Y-159781981D01*
X90758660Y-159755540D01*
X90790779Y-159709439D01*
X90832860Y-159649790D01*
X90880609Y-159582705D01*
X90888959Y-159571031D01*
X91013603Y-159396912D01*
X91153771Y-159596290D01*
X91202576Y-159666128D01*
X91244584Y-159727031D01*
X91276517Y-159774183D01*
X91295097Y-159802769D01*
X91298401Y-159808723D01*
X91291425Y-159825961D01*
X91269239Y-159862769D01*
X91235732Y-159913689D01*
X91194797Y-159973265D01*
X91150322Y-160036037D01*
X91106199Y-160096548D01*
X91066318Y-160149340D01*
X91034569Y-160188956D01*
X91014843Y-160209937D01*
X91011029Y-160211872D01*
X91011029Y-160403940D01*
X91018405Y-160411638D01*
X91042525Y-160442996D01*
X91077116Y-160490074D01*
X91118474Y-160547613D01*
X91162893Y-160610354D01*
X91206669Y-160673038D01*
X91246099Y-160730407D01*
X91277477Y-160777202D01*
X91297101Y-160808164D01*
X91301876Y-160817803D01*
X91293222Y-160833455D01*
X91269322Y-160870400D01*
X91233270Y-160924014D01*
X91188158Y-160989673D01*
X91157428Y-161033784D01*
X91012980Y-161240086D01*
X91012980Y-161400781D01*
X91036196Y-161367788D01*
X91149725Y-161206349D01*
X91257907Y-161052318D01*
X91355935Y-160912559D01*
X91355935Y-160712414D01*
X91354267Y-160711043D01*
X91336960Y-160689901D01*
X91307209Y-160649861D01*
X91268935Y-160596572D01*
X91226059Y-160535688D01*
X91182501Y-160472859D01*
X91142183Y-160413736D01*
X91109025Y-160363971D01*
X91086947Y-160329214D01*
X91079792Y-160315419D01*
X91088502Y-160299143D01*
X91112589Y-160261981D01*
X91148801Y-160208760D01*
X91193887Y-160144306D01*
X91216191Y-160112944D01*
X91264922Y-160045278D01*
X91307401Y-159987268D01*
X91340119Y-159943632D01*
X91359565Y-159919089D01*
X91363034Y-159915541D01*
X91375258Y-159925580D01*
X91402331Y-159957410D01*
X91440910Y-160006801D01*
X91487650Y-160069522D01*
X91518416Y-160112067D01*
X91663518Y-160314914D01*
X91518416Y-160522531D01*
X91461208Y-160603128D01*
X91418726Y-160659692D01*
X91388601Y-160694947D01*
X91368460Y-160711613D01*
X91355935Y-160712414D01*
X91355935Y-160912559D01*
X91359357Y-160907680D01*
X91452688Y-160774421D01*
X91536513Y-160654526D01*
X91609448Y-160549981D01*
X91670105Y-160462770D01*
X91717098Y-160394880D01*
X91749042Y-160348295D01*
X91764550Y-160325001D01*
X91765832Y-160322741D01*
X91757705Y-160307555D01*
G36*
X90700813Y-143872766D02*
G01*
X90675056Y-143835404D01*
X90636353Y-143779987D01*
X90587434Y-143710423D01*
X90531033Y-143630617D01*
X90508125Y-143598302D01*
X90309688Y-143318611D01*
X89714650Y-143308813D01*
X89858522Y-143105840D01*
X89907411Y-143035682D01*
X89948515Y-142974422D01*
X89978812Y-142926749D01*
X89995278Y-142897355D01*
X89997291Y-142890508D01*
X89987047Y-142874389D01*
X89961266Y-142836262D01*
X89922674Y-142780086D01*
X89873997Y-142709823D01*
X89817963Y-142629435D01*
X89795539Y-142597387D01*
X89598890Y-142316625D01*
X88819227Y-142317029D01*
X88039563Y-142317432D01*
X87949504Y-142447997D01*
X87901549Y-142517378D01*
X87843857Y-142600636D01*
X87784860Y-142685608D01*
X87747820Y-142738852D01*
X87636197Y-142899140D01*
X87779344Y-143103977D01*
X87922492Y-143308813D01*
X87628962Y-143316750D01*
X87335432Y-143324688D01*
X87135841Y-143609066D01*
X87077610Y-143692475D01*
X87026120Y-143767069D01*
X86983994Y-143828981D01*
X86953854Y-143874343D01*
X86938320Y-143899288D01*
X86936782Y-143902754D01*
X86945823Y-143916748D01*
X86971971Y-143954896D01*
X87013990Y-144015438D01*
X87070642Y-144096611D01*
X87140692Y-144196656D01*
X87222902Y-144313810D01*
X87316038Y-144446313D01*
X87418862Y-144592404D01*
X87530138Y-144750322D01*
X87648629Y-144918305D01*
X87773100Y-145094593D01*
X87843317Y-145193969D01*
X88749320Y-146475875D01*
X88893424Y-146475875D01*
X88893424Y-144315881D01*
X88748754Y-144113972D01*
X88699583Y-144043417D01*
X88658554Y-143980834D01*
X88628687Y-143931131D01*
X88613001Y-143899219D01*
X88611561Y-143890873D01*
X88623107Y-143870983D01*
X88649822Y-143830568D01*
X88688198Y-143774775D01*
X88734725Y-143708752D01*
X88755836Y-143679234D01*
X88804423Y-143613439D01*
X88846974Y-143559288D01*
X88880016Y-143520936D01*
X88900073Y-143502537D01*
X88904045Y-143501986D01*
X88917404Y-143519699D01*
X88944773Y-143557477D01*
X88981901Y-143609414D01*
X89016391Y-143658063D01*
X89061789Y-143722082D01*
X89104277Y-143781569D01*
X89138179Y-143828598D01*
X89153830Y-143849952D01*
X89190334Y-143898967D01*
X88893424Y-144315881D01*
X88893424Y-146475875D01*
X89254033Y-146475875D01*
X89254033Y-144781980D01*
X89227610Y-144774519D01*
X89197532Y-144744517D01*
X89159085Y-144692414D01*
X89107557Y-144618648D01*
X89099485Y-144607255D01*
X89050124Y-144537687D01*
X89007849Y-144477834D01*
X88975815Y-144432187D01*
X88957179Y-144405236D01*
X88953743Y-144399916D01*
X88961895Y-144386163D01*
X88985301Y-144350931D01*
X89020921Y-144298692D01*
X89065717Y-144233918D01*
X89097171Y-144188846D01*
X89146415Y-144119143D01*
X89188997Y-144060059D01*
X89221780Y-144015853D01*
X89241626Y-143990784D01*
X89246084Y-143986743D01*
X89256133Y-144000679D01*
X89281204Y-144036106D01*
X89318113Y-144088508D01*
X89363676Y-144153367D01*
X89394019Y-144196634D01*
X89537837Y-144401830D01*
X89417402Y-144577634D01*
X89358483Y-144664727D01*
X89314757Y-144727523D01*
X89281511Y-144766460D01*
X89254033Y-144781980D01*
X89254033Y-146475875D01*
X89593527Y-146475875D01*
X89593527Y-145312569D01*
X89582874Y-145298189D01*
X89557306Y-145262335D01*
X89520061Y-145209584D01*
X89474373Y-145144512D01*
X89445061Y-145102613D01*
X89390764Y-145022680D01*
X89349718Y-144957608D01*
X89323765Y-144910544D01*
X89314750Y-144884635D01*
X89315549Y-144881551D01*
X89328982Y-144862964D01*
X89356942Y-144823522D01*
X89395778Y-144768401D01*
X89441837Y-144702778D01*
X89459271Y-144677882D01*
X89506591Y-144612089D01*
X89548197Y-144557644D01*
X89580535Y-144518942D01*
X89598854Y-144501516D01*
X89598854Y-144316214D01*
X89451207Y-144107089D01*
X89401976Y-144035526D01*
X89360975Y-143972391D01*
X89331079Y-143922400D01*
X89315158Y-143890272D01*
X89313666Y-143881201D01*
X89326092Y-143862791D01*
X89353345Y-143823639D01*
X89391834Y-143768865D01*
X89437969Y-143703591D01*
X89456185Y-143677907D01*
X89504009Y-143611626D01*
X89545753Y-143555812D01*
X89577869Y-143515054D01*
X89596810Y-143493943D01*
X89599767Y-143492106D01*
X89599767Y-143300146D01*
X89584824Y-143288168D01*
X89557073Y-143254952D01*
X89520228Y-143205972D01*
X89478001Y-143146702D01*
X89434106Y-143082617D01*
X89392255Y-143019192D01*
X89356161Y-142961901D01*
X89329538Y-142916218D01*
X89316098Y-142887618D01*
X89315628Y-142881206D01*
X89329031Y-142862654D01*
X89356965Y-142823245D01*
X89395780Y-142768151D01*
X89441826Y-142702544D01*
X89459271Y-142677632D01*
X89506591Y-142611839D01*
X89548197Y-142557394D01*
X89580535Y-142518692D01*
X89600051Y-142500127D01*
X89603472Y-142499325D01*
X89616125Y-142514041D01*
X89642845Y-142549138D01*
X89679560Y-142598937D01*
X89722199Y-142657762D01*
X89766688Y-142719935D01*
X89808956Y-142779778D01*
X89844930Y-142831615D01*
X89870537Y-142869768D01*
X89879356Y-142883945D01*
X89874045Y-142901850D01*
X89853686Y-142939776D01*
X89822021Y-142992151D01*
X89782791Y-143053406D01*
X89739740Y-143117968D01*
X89696609Y-143180267D01*
X89657141Y-143234732D01*
X89625079Y-143275791D01*
X89604165Y-143297874D01*
X89599767Y-143300146D01*
X89599767Y-143492106D01*
X89599893Y-143492027D01*
X89611675Y-143504349D01*
X89637628Y-143537281D01*
X89673810Y-143585360D01*
X89716277Y-143643122D01*
X89761083Y-143705104D01*
X89804285Y-143765842D01*
X89841940Y-143819872D01*
X89870102Y-143861731D01*
X89884829Y-143885956D01*
X89885745Y-143888012D01*
X89878669Y-143904580D01*
X89856095Y-143942309D01*
X89821005Y-143996540D01*
X89776382Y-144062616D01*
X89744640Y-144108339D01*
X89598854Y-144316214D01*
X89598854Y-144501516D01*
X89600051Y-144500377D01*
X89603472Y-144499575D01*
X89616112Y-144514282D01*
X89642821Y-144549364D01*
X89679523Y-144599144D01*
X89722146Y-144657940D01*
X89766614Y-144720074D01*
X89808852Y-144779866D01*
X89844788Y-144831637D01*
X89870346Y-144869707D01*
X89879147Y-144883857D01*
X89873826Y-144901014D01*
X89853929Y-144937978D01*
X89822981Y-144989457D01*
X89784508Y-145050159D01*
X89742037Y-145114791D01*
X89699092Y-145178060D01*
X89659202Y-145234675D01*
X89625890Y-145279343D01*
X89602683Y-145306772D01*
X89593527Y-145312569D01*
X89593527Y-146475875D01*
X89953849Y-146475875D01*
X89953849Y-145801188D01*
X89940039Y-145788932D01*
X89912489Y-145755848D01*
X89875167Y-145707460D01*
X89832041Y-145649293D01*
X89787080Y-145586872D01*
X89744252Y-145525721D01*
X89707525Y-145471364D01*
X89680866Y-145429327D01*
X89668245Y-145405134D01*
X89667752Y-145402874D01*
X89676192Y-145384421D01*
X89700084Y-145345355D01*
X89736161Y-145290711D01*
X89781154Y-145225520D01*
X89801716Y-145196499D01*
X89850347Y-145129305D01*
X89893076Y-145072004D01*
X89926296Y-145029302D01*
X89946400Y-145005906D01*
X89950066Y-145002967D01*
X89962696Y-145013775D01*
X89989130Y-145045565D01*
X90025513Y-145092932D01*
X90067988Y-145150475D01*
X90112699Y-145212789D01*
X90155789Y-145274472D01*
X90193402Y-145330119D01*
X90221681Y-145374329D01*
X90236771Y-145401698D01*
X90238250Y-145406753D01*
X90229438Y-145425518D01*
X90205662Y-145463443D01*
X90170911Y-145514995D01*
X90129176Y-145574640D01*
X90084445Y-145636846D01*
X90040710Y-145696078D01*
X90001961Y-145746804D01*
X89972186Y-145783489D01*
X89955375Y-145800599D01*
X89953849Y-145801188D01*
X89953849Y-146475875D01*
X90306668Y-146475875D01*
X90306668Y-146311460D01*
X90286743Y-146287562D01*
X90255209Y-146245279D01*
X90215802Y-146190096D01*
X90172256Y-146127500D01*
X90128306Y-146062978D01*
X90087688Y-146002016D01*
X90054135Y-145950100D01*
X90031384Y-145912717D01*
X90023168Y-145895353D01*
X90023215Y-145895081D01*
X90034039Y-145876665D01*
X90060048Y-145837504D01*
X90097833Y-145782592D01*
X90143983Y-145716918D01*
X90166891Y-145684737D01*
X90215307Y-145617360D01*
X90256865Y-145560223D01*
X90288260Y-145517813D01*
X90306191Y-145494618D01*
X90309057Y-145491625D01*
X90319046Y-145503947D01*
X90343859Y-145537925D01*
X90380293Y-145589082D01*
X90425145Y-145652939D01*
X90451678Y-145691040D01*
X90509443Y-145776801D01*
X90551007Y-145844131D01*
X90575161Y-145890927D01*
X90580693Y-145915083D01*
X90580623Y-145915276D01*
X90569022Y-145935795D01*
X90543962Y-145974873D01*
X90509205Y-146027068D01*
X90468515Y-146086939D01*
X90425652Y-146149045D01*
X90384379Y-146207946D01*
X90348458Y-146258201D01*
X90321652Y-146294369D01*
X90307723Y-146311010D01*
X90306668Y-146311460D01*
X90306668Y-146475875D01*
X90312332Y-146475875D01*
X90514586Y-146189124D01*
X90580397Y-146095515D01*
X90629724Y-146024164D01*
X90664553Y-145971504D01*
X90686866Y-145933968D01*
X90698650Y-145907988D01*
X90701888Y-145889997D01*
X90698564Y-145876426D01*
X90693402Y-145867656D01*
X90679900Y-145848249D01*
X90649882Y-145805491D01*
X90605164Y-145741955D01*
X90547559Y-145660213D01*
X90478883Y-145562840D01*
X90400949Y-145452408D01*
X90315572Y-145331491D01*
X90224567Y-145202662D01*
X90193185Y-145158250D01*
X89716405Y-144483563D01*
X90012370Y-144475625D01*
X90301750Y-144467865D01*
X90301750Y-144300563D01*
X90291244Y-144288416D01*
X90266602Y-144255502D01*
X90231637Y-144207246D01*
X90190160Y-144149069D01*
X90145985Y-144086397D01*
X90102922Y-144024653D01*
X90064786Y-143969260D01*
X90035387Y-143925642D01*
X90018539Y-143899222D01*
X90016000Y-143894031D01*
X90024555Y-143880405D01*
X90048123Y-143845349D01*
X90083560Y-143793477D01*
X90127724Y-143729407D01*
X90151703Y-143694804D01*
X90200000Y-143626513D01*
X90242642Y-143568621D01*
X90276136Y-143525690D01*
X90296987Y-143502278D01*
X90301488Y-143499313D01*
X90314884Y-143511507D01*
X90342180Y-143544416D01*
X90379384Y-143592525D01*
X90422499Y-143650323D01*
X90467534Y-143712297D01*
X90510492Y-143772935D01*
X90547381Y-143826722D01*
X90574206Y-143868148D01*
X90586972Y-143891698D01*
X90587500Y-143894063D01*
X90578880Y-143910967D01*
X90555586Y-143947645D01*
X90521464Y-143998623D01*
X90480364Y-144058426D01*
X90436132Y-144121582D01*
X90392618Y-144182615D01*
X90353668Y-144236053D01*
X90323132Y-144276420D01*
X90304856Y-144298243D01*
X90301750Y-144300563D01*
X90301750Y-144467865D01*
X90308336Y-144467688D01*
X90511777Y-144183015D01*
X90570740Y-144099805D01*
X90622601Y-144025266D01*
X90664770Y-143963233D01*
X90694657Y-143917541D01*
X90709670Y-143892028D01*
X90710891Y-143888168D01*
X90700813Y-143872766D01*
G37*
X90700813Y-143872766D02*
X90675056Y-143835404D01*
X90636353Y-143779987D01*
X90587434Y-143710423D01*
X90531033Y-143630617D01*
X90508125Y-143598302D01*
X90309688Y-143318611D01*
X89714650Y-143308813D01*
X89858522Y-143105840D01*
X89907411Y-143035682D01*
X89948515Y-142974422D01*
X89978812Y-142926749D01*
X89995278Y-142897355D01*
X89997291Y-142890508D01*
X89987047Y-142874389D01*
X89961266Y-142836262D01*
X89922674Y-142780086D01*
X89873997Y-142709823D01*
X89817963Y-142629435D01*
X89795539Y-142597387D01*
X89598890Y-142316625D01*
X88819227Y-142317029D01*
X88039563Y-142317432D01*
X87949504Y-142447997D01*
X87901549Y-142517378D01*
X87843857Y-142600636D01*
X87784860Y-142685608D01*
X87747820Y-142738852D01*
X87636197Y-142899140D01*
X87779344Y-143103977D01*
X87922492Y-143308813D01*
X87628962Y-143316750D01*
X87335432Y-143324688D01*
X87135841Y-143609066D01*
X87077610Y-143692475D01*
X87026120Y-143767069D01*
X86983994Y-143828981D01*
X86953854Y-143874343D01*
X86938320Y-143899288D01*
X86936782Y-143902754D01*
X86945823Y-143916748D01*
X86971971Y-143954896D01*
X87013990Y-144015438D01*
X87070642Y-144096611D01*
X87140692Y-144196656D01*
X87222902Y-144313810D01*
X87316038Y-144446313D01*
X87418862Y-144592404D01*
X87530138Y-144750322D01*
X87648629Y-144918305D01*
X87773100Y-145094593D01*
X87843317Y-145193969D01*
X88749320Y-146475875D01*
X88893424Y-146475875D01*
X88893424Y-144315881D01*
X88748754Y-144113972D01*
X88699583Y-144043417D01*
X88658554Y-143980834D01*
X88628687Y-143931131D01*
X88613001Y-143899219D01*
X88611561Y-143890873D01*
X88623107Y-143870983D01*
X88649822Y-143830568D01*
X88688198Y-143774775D01*
X88734725Y-143708752D01*
X88755836Y-143679234D01*
X88804423Y-143613439D01*
X88846974Y-143559288D01*
X88880016Y-143520936D01*
X88900073Y-143502537D01*
X88904045Y-143501986D01*
X88917404Y-143519699D01*
X88944773Y-143557477D01*
X88981901Y-143609414D01*
X89016391Y-143658063D01*
X89061789Y-143722082D01*
X89104277Y-143781569D01*
X89138179Y-143828598D01*
X89153830Y-143849952D01*
X89190334Y-143898967D01*
X88893424Y-144315881D01*
X88893424Y-146475875D01*
X89254033Y-146475875D01*
X89254033Y-144781980D01*
X89227610Y-144774519D01*
X89197532Y-144744517D01*
X89159085Y-144692414D01*
X89107557Y-144618648D01*
X89099485Y-144607255D01*
X89050124Y-144537687D01*
X89007849Y-144477834D01*
X88975815Y-144432187D01*
X88957179Y-144405236D01*
X88953743Y-144399916D01*
X88961895Y-144386163D01*
X88985301Y-144350931D01*
X89020921Y-144298692D01*
X89065717Y-144233918D01*
X89097171Y-144188846D01*
X89146415Y-144119143D01*
X89188997Y-144060059D01*
X89221780Y-144015853D01*
X89241626Y-143990784D01*
X89246084Y-143986743D01*
X89256133Y-144000679D01*
X89281204Y-144036106D01*
X89318113Y-144088508D01*
X89363676Y-144153367D01*
X89394019Y-144196634D01*
X89537837Y-144401830D01*
X89417402Y-144577634D01*
X89358483Y-144664727D01*
X89314757Y-144727523D01*
X89281511Y-144766460D01*
X89254033Y-144781980D01*
X89254033Y-146475875D01*
X89593527Y-146475875D01*
X89593527Y-145312569D01*
X89582874Y-145298189D01*
X89557306Y-145262335D01*
X89520061Y-145209584D01*
X89474373Y-145144512D01*
X89445061Y-145102613D01*
X89390764Y-145022680D01*
X89349718Y-144957608D01*
X89323765Y-144910544D01*
X89314750Y-144884635D01*
X89315549Y-144881551D01*
X89328982Y-144862964D01*
X89356942Y-144823522D01*
X89395778Y-144768401D01*
X89441837Y-144702778D01*
X89459271Y-144677882D01*
X89506591Y-144612089D01*
X89548197Y-144557644D01*
X89580535Y-144518942D01*
X89598854Y-144501516D01*
X89598854Y-144316214D01*
X89451207Y-144107089D01*
X89401976Y-144035526D01*
X89360975Y-143972391D01*
X89331079Y-143922400D01*
X89315158Y-143890272D01*
X89313666Y-143881201D01*
X89326092Y-143862791D01*
X89353345Y-143823639D01*
X89391834Y-143768865D01*
X89437969Y-143703591D01*
X89456185Y-143677907D01*
X89504009Y-143611626D01*
X89545753Y-143555812D01*
X89577869Y-143515054D01*
X89596810Y-143493943D01*
X89599767Y-143492106D01*
X89599767Y-143300146D01*
X89584824Y-143288168D01*
X89557073Y-143254952D01*
X89520228Y-143205972D01*
X89478001Y-143146702D01*
X89434106Y-143082617D01*
X89392255Y-143019192D01*
X89356161Y-142961901D01*
X89329538Y-142916218D01*
X89316098Y-142887618D01*
X89315628Y-142881206D01*
X89329031Y-142862654D01*
X89356965Y-142823245D01*
X89395780Y-142768151D01*
X89441826Y-142702544D01*
X89459271Y-142677632D01*
X89506591Y-142611839D01*
X89548197Y-142557394D01*
X89580535Y-142518692D01*
X89600051Y-142500127D01*
X89603472Y-142499325D01*
X89616125Y-142514041D01*
X89642845Y-142549138D01*
X89679560Y-142598937D01*
X89722199Y-142657762D01*
X89766688Y-142719935D01*
X89808956Y-142779778D01*
X89844930Y-142831615D01*
X89870537Y-142869768D01*
X89879356Y-142883945D01*
X89874045Y-142901850D01*
X89853686Y-142939776D01*
X89822021Y-142992151D01*
X89782791Y-143053406D01*
X89739740Y-143117968D01*
X89696609Y-143180267D01*
X89657141Y-143234732D01*
X89625079Y-143275791D01*
X89604165Y-143297874D01*
X89599767Y-143300146D01*
X89599767Y-143492106D01*
X89599893Y-143492027D01*
X89611675Y-143504349D01*
X89637628Y-143537281D01*
X89673810Y-143585360D01*
X89716277Y-143643122D01*
X89761083Y-143705104D01*
X89804285Y-143765842D01*
X89841940Y-143819872D01*
X89870102Y-143861731D01*
X89884829Y-143885956D01*
X89885745Y-143888012D01*
X89878669Y-143904580D01*
X89856095Y-143942309D01*
X89821005Y-143996540D01*
X89776382Y-144062616D01*
X89744640Y-144108339D01*
X89598854Y-144316214D01*
X89598854Y-144501516D01*
X89600051Y-144500377D01*
X89603472Y-144499575D01*
X89616112Y-144514282D01*
X89642821Y-144549364D01*
X89679523Y-144599144D01*
X89722146Y-144657940D01*
X89766614Y-144720074D01*
X89808852Y-144779866D01*
X89844788Y-144831637D01*
X89870346Y-144869707D01*
X89879147Y-144883857D01*
X89873826Y-144901014D01*
X89853929Y-144937978D01*
X89822981Y-144989457D01*
X89784508Y-145050159D01*
X89742037Y-145114791D01*
X89699092Y-145178060D01*
X89659202Y-145234675D01*
X89625890Y-145279343D01*
X89602683Y-145306772D01*
X89593527Y-145312569D01*
X89593527Y-146475875D01*
X89953849Y-146475875D01*
X89953849Y-145801188D01*
X89940039Y-145788932D01*
X89912489Y-145755848D01*
X89875167Y-145707460D01*
X89832041Y-145649293D01*
X89787080Y-145586872D01*
X89744252Y-145525721D01*
X89707525Y-145471364D01*
X89680866Y-145429327D01*
X89668245Y-145405134D01*
X89667752Y-145402874D01*
X89676192Y-145384421D01*
X89700084Y-145345355D01*
X89736161Y-145290711D01*
X89781154Y-145225520D01*
X89801716Y-145196499D01*
X89850347Y-145129305D01*
X89893076Y-145072004D01*
X89926296Y-145029302D01*
X89946400Y-145005906D01*
X89950066Y-145002967D01*
X89962696Y-145013775D01*
X89989130Y-145045565D01*
X90025513Y-145092932D01*
X90067988Y-145150475D01*
X90112699Y-145212789D01*
X90155789Y-145274472D01*
X90193402Y-145330119D01*
X90221681Y-145374329D01*
X90236771Y-145401698D01*
X90238250Y-145406753D01*
X90229438Y-145425518D01*
X90205662Y-145463443D01*
X90170911Y-145514995D01*
X90129176Y-145574640D01*
X90084445Y-145636846D01*
X90040710Y-145696078D01*
X90001961Y-145746804D01*
X89972186Y-145783489D01*
X89955375Y-145800599D01*
X89953849Y-145801188D01*
X89953849Y-146475875D01*
X90306668Y-146475875D01*
X90306668Y-146311460D01*
X90286743Y-146287562D01*
X90255209Y-146245279D01*
X90215802Y-146190096D01*
X90172256Y-146127500D01*
X90128306Y-146062978D01*
X90087688Y-146002016D01*
X90054135Y-145950100D01*
X90031384Y-145912717D01*
X90023168Y-145895353D01*
X90023215Y-145895081D01*
X90034039Y-145876665D01*
X90060048Y-145837504D01*
X90097833Y-145782592D01*
X90143983Y-145716918D01*
X90166891Y-145684737D01*
X90215307Y-145617360D01*
X90256865Y-145560223D01*
X90288260Y-145517813D01*
X90306191Y-145494618D01*
X90309057Y-145491625D01*
X90319046Y-145503947D01*
X90343859Y-145537925D01*
X90380293Y-145589082D01*
X90425145Y-145652939D01*
X90451678Y-145691040D01*
X90509443Y-145776801D01*
X90551007Y-145844131D01*
X90575161Y-145890927D01*
X90580693Y-145915083D01*
X90580623Y-145915276D01*
X90569022Y-145935795D01*
X90543962Y-145974873D01*
X90509205Y-146027068D01*
X90468515Y-146086939D01*
X90425652Y-146149045D01*
X90384379Y-146207946D01*
X90348458Y-146258201D01*
X90321652Y-146294369D01*
X90307723Y-146311010D01*
X90306668Y-146311460D01*
X90306668Y-146475875D01*
X90312332Y-146475875D01*
X90514586Y-146189124D01*
X90580397Y-146095515D01*
X90629724Y-146024164D01*
X90664553Y-145971504D01*
X90686866Y-145933968D01*
X90698650Y-145907988D01*
X90701888Y-145889997D01*
X90698564Y-145876426D01*
X90693402Y-145867656D01*
X90679900Y-145848249D01*
X90649882Y-145805491D01*
X90605164Y-145741955D01*
X90547559Y-145660213D01*
X90478883Y-145562840D01*
X90400949Y-145452408D01*
X90315572Y-145331491D01*
X90224567Y-145202662D01*
X90193185Y-145158250D01*
X89716405Y-144483563D01*
X90012370Y-144475625D01*
X90301750Y-144467865D01*
X90301750Y-144300563D01*
X90291244Y-144288416D01*
X90266602Y-144255502D01*
X90231637Y-144207246D01*
X90190160Y-144149069D01*
X90145985Y-144086397D01*
X90102922Y-144024653D01*
X90064786Y-143969260D01*
X90035387Y-143925642D01*
X90018539Y-143899222D01*
X90016000Y-143894031D01*
X90024555Y-143880405D01*
X90048123Y-143845349D01*
X90083560Y-143793477D01*
X90127724Y-143729407D01*
X90151703Y-143694804D01*
X90200000Y-143626513D01*
X90242642Y-143568621D01*
X90276136Y-143525690D01*
X90296987Y-143502278D01*
X90301488Y-143499313D01*
X90314884Y-143511507D01*
X90342180Y-143544416D01*
X90379384Y-143592525D01*
X90422499Y-143650323D01*
X90467534Y-143712297D01*
X90510492Y-143772935D01*
X90547381Y-143826722D01*
X90574206Y-143868148D01*
X90586972Y-143891698D01*
X90587500Y-143894063D01*
X90578880Y-143910967D01*
X90555586Y-143947645D01*
X90521464Y-143998623D01*
X90480364Y-144058426D01*
X90436132Y-144121582D01*
X90392618Y-144182615D01*
X90353668Y-144236053D01*
X90323132Y-144276420D01*
X90304856Y-144298243D01*
X90301750Y-144300563D01*
X90301750Y-144467865D01*
X90308336Y-144467688D01*
X90511777Y-144183015D01*
X90570740Y-144099805D01*
X90622601Y-144025266D01*
X90664770Y-143963233D01*
X90694657Y-143917541D01*
X90709670Y-143892028D01*
X90710891Y-143888168D01*
X90700813Y-143872766D01*
G36*
X90351809Y-136686190D02*
G01*
X90342807Y-136669822D01*
X90318239Y-136631434D01*
X90280759Y-136575006D01*
X90233024Y-136504518D01*
X90177688Y-136423949D01*
X90155580Y-136392038D01*
X89960438Y-136111012D01*
X89603250Y-136109285D01*
X89246063Y-136107557D01*
X89071012Y-135858498D01*
X88895961Y-135609438D01*
X87340361Y-135601206D01*
X87138306Y-135885245D01*
X87079316Y-135969209D01*
X87027247Y-136045317D01*
X86984749Y-136109525D01*
X86954477Y-136157791D01*
X86939083Y-136186072D01*
X86937690Y-136190986D01*
X86946960Y-136208406D01*
X86972743Y-136248622D01*
X87013002Y-136308663D01*
X87065700Y-136385560D01*
X87128798Y-136476343D01*
X87200260Y-136578040D01*
X87278047Y-136687681D01*
X87287473Y-136700900D01*
X87635816Y-137189112D01*
X87459896Y-137436801D01*
X87405392Y-137514512D01*
X87358254Y-137583582D01*
X87321243Y-137639810D01*
X87297120Y-137678996D01*
X87288645Y-137696939D01*
X87288707Y-137697285D01*
X87298936Y-137713470D01*
X87324880Y-137751529D01*
X87363789Y-137807512D01*
X87412909Y-137877467D01*
X87469488Y-137957445D01*
X87491875Y-137988946D01*
X87690313Y-138267812D01*
X88825375Y-138267400D01*
X88898302Y-138267374D01*
X88898302Y-136587504D01*
X88883965Y-136577771D01*
X88856472Y-136546590D01*
X88819594Y-136499375D01*
X88777102Y-136441543D01*
X88732765Y-136378507D01*
X88690354Y-136315682D01*
X88653638Y-136258482D01*
X88626389Y-136212323D01*
X88612376Y-136182619D01*
X88611514Y-136175623D01*
X88623077Y-136155733D01*
X88649807Y-136115316D01*
X88688194Y-136059522D01*
X88734727Y-135993498D01*
X88755836Y-135963984D01*
X88804423Y-135898189D01*
X88846974Y-135844038D01*
X88880016Y-135805686D01*
X88900073Y-135787287D01*
X88904045Y-135786736D01*
X88917404Y-135804449D01*
X88944773Y-135842227D01*
X88981901Y-135894164D01*
X89016391Y-135942813D01*
X89061794Y-136006839D01*
X89104295Y-136066342D01*
X89138211Y-136113390D01*
X89153870Y-136134755D01*
X89190415Y-136183823D01*
X89051551Y-136382571D01*
X89002457Y-136451938D01*
X88959047Y-136511587D01*
X88924824Y-136556837D01*
X88903288Y-136583006D01*
X88898302Y-136587504D01*
X88898302Y-138267374D01*
X89251508Y-138267246D01*
X89251508Y-138093266D01*
X89236967Y-138081205D01*
X89209404Y-138047884D01*
X89172558Y-137998785D01*
X89130167Y-137939387D01*
X89085971Y-137875172D01*
X89043708Y-137811623D01*
X89007117Y-137754218D01*
X88979936Y-137708441D01*
X88965904Y-137679772D01*
X88965093Y-137673361D01*
X88977663Y-137654459D01*
X89004759Y-137614552D01*
X89042879Y-137558768D01*
X89088523Y-137492241D01*
X89109139Y-137462263D01*
X89242091Y-137269086D01*
X89242409Y-137269529D01*
X89242409Y-137108476D01*
X89098516Y-136899342D01*
X89050364Y-136827502D01*
X89010341Y-136764209D01*
X88981278Y-136714234D01*
X88966004Y-136682350D01*
X88964737Y-136673698D01*
X88977197Y-136655412D01*
X89004545Y-136616411D01*
X89043185Y-136561792D01*
X89089518Y-136496651D01*
X89108067Y-136470657D01*
X89156054Y-136404451D01*
X89197827Y-136348675D01*
X89229854Y-136307903D01*
X89248605Y-136286707D01*
X89251610Y-136284735D01*
X89263685Y-136297365D01*
X89290186Y-136331792D01*
X89327790Y-136383491D01*
X89373172Y-136447935D01*
X89399746Y-136486446D01*
X89537555Y-136687546D01*
X89432301Y-136839055D01*
X89385571Y-136906148D01*
X89340992Y-136969852D01*
X89304285Y-137022007D01*
X89284728Y-137049519D01*
X89242409Y-137108476D01*
X89242409Y-137269529D01*
X89284569Y-137328262D01*
X89311179Y-137365761D01*
X89350135Y-137421190D01*
X89395707Y-137486378D01*
X89432301Y-137538946D01*
X89537555Y-137690455D01*
X89399746Y-137891555D01*
X89351539Y-137961001D01*
X89309303Y-138020147D01*
X89276366Y-138064464D01*
X89256055Y-138089427D01*
X89251508Y-138093266D01*
X89251508Y-138267246D01*
X89603489Y-138267119D01*
X89603489Y-137593666D01*
X89591848Y-137583514D01*
X89565689Y-137552742D01*
X89528934Y-137506578D01*
X89485504Y-137450248D01*
X89439322Y-137388979D01*
X89394307Y-137327999D01*
X89354383Y-137272533D01*
X89323469Y-137227811D01*
X89305489Y-137199058D01*
X89302648Y-137192666D01*
X89310917Y-137178909D01*
X89334421Y-137143678D01*
X89370106Y-137091454D01*
X89414922Y-137026717D01*
X89445944Y-136982277D01*
X89495692Y-136912839D01*
X89539714Y-136854419D01*
X89574664Y-136811223D01*
X89597196Y-136787455D01*
X89603482Y-136784331D01*
X89620187Y-136802037D01*
X89649576Y-136840104D01*
X89687701Y-136892732D01*
X89730616Y-136954120D01*
X89774371Y-137018467D01*
X89815019Y-137079972D01*
X89848613Y-137132834D01*
X89871204Y-137171251D01*
X89878879Y-137189000D01*
X89870209Y-137208580D01*
X89846831Y-137248049D01*
X89812692Y-137301606D01*
X89771741Y-137363452D01*
X89727924Y-137427784D01*
X89685191Y-137488801D01*
X89647488Y-137540704D01*
X89618764Y-137577690D01*
X89603489Y-137593666D01*
X89603489Y-138267119D01*
X89953417Y-138266992D01*
X89953417Y-138085938D01*
X89939863Y-138073744D01*
X89912411Y-138040837D01*
X89875064Y-137992728D01*
X89831823Y-137934928D01*
X89786689Y-137872947D01*
X89743663Y-137812298D01*
X89706748Y-137758490D01*
X89679944Y-137717035D01*
X89667253Y-137693445D01*
X89666750Y-137691114D01*
X89675435Y-137673894D01*
X89699365Y-137635686D01*
X89735351Y-137581353D01*
X89780207Y-137515758D01*
X89804829Y-137480450D01*
X89853539Y-137412433D01*
X89896413Y-137355172D01*
X89930011Y-137313062D01*
X89950889Y-137290501D01*
X89952918Y-137289387D01*
X89952918Y-137085813D01*
X89939127Y-137073569D01*
X89911575Y-137040523D01*
X89874240Y-136992202D01*
X89831102Y-136934135D01*
X89786141Y-136871851D01*
X89743336Y-136810878D01*
X89706667Y-136756743D01*
X89680112Y-136714976D01*
X89667653Y-136691105D01*
X89667200Y-136688893D01*
X89675831Y-136670963D01*
X89699884Y-136632335D01*
X89736094Y-136577981D01*
X89781196Y-136512871D01*
X89802715Y-136482518D01*
X89851550Y-136415442D01*
X89894659Y-136358715D01*
X89928433Y-136316898D01*
X89949265Y-136294552D01*
X89953417Y-136292063D01*
X89967158Y-136304319D01*
X89994627Y-136337396D01*
X90031852Y-136385754D01*
X90074861Y-136443857D01*
X90119682Y-136506166D01*
X90162343Y-136567143D01*
X90198871Y-136621251D01*
X90225294Y-136662950D01*
X90237641Y-136686704D01*
X90238074Y-136688938D01*
X90229269Y-136708222D01*
X90205506Y-136746613D01*
X90170764Y-136798572D01*
X90129019Y-136858564D01*
X90084251Y-136921053D01*
X90040437Y-136980500D01*
X90001555Y-137031371D01*
X89971584Y-137068128D01*
X89954501Y-137085235D01*
X89952918Y-137085813D01*
X89952918Y-137289387D01*
X89955546Y-137287943D01*
X89969524Y-137302161D01*
X89997147Y-137337128D01*
X90034428Y-137387187D01*
X90077384Y-137446680D01*
X90122029Y-137509950D01*
X90164380Y-137571340D01*
X90200450Y-137625192D01*
X90226256Y-137665850D01*
X90237813Y-137687656D01*
X90238074Y-137689063D01*
X90229284Y-137708221D01*
X90205560Y-137746519D01*
X90170875Y-137798419D01*
X90129201Y-137858383D01*
X90084510Y-137920873D01*
X90040774Y-137980351D01*
X90001966Y-138031280D01*
X89972057Y-138068120D01*
X89955020Y-138085334D01*
X89953417Y-138085938D01*
X89953417Y-138266992D01*
X89960438Y-138266989D01*
X90157223Y-137983617D01*
X90214786Y-137899974D01*
X90265478Y-137824870D01*
X90306709Y-137762266D01*
X90335885Y-137716122D01*
X90350416Y-137690399D01*
X90351546Y-137686716D01*
X90342110Y-137669953D01*
X90317362Y-137631520D01*
X90280196Y-137575759D01*
X90233505Y-137507012D01*
X90181204Y-137431094D01*
X90013324Y-137189000D01*
X90183110Y-136944158D01*
X90236424Y-136866528D01*
X90282761Y-136797626D01*
X90319311Y-136741749D01*
X90343265Y-136703194D01*
X90351812Y-136686255D01*
X90351809Y-136686190D01*
G37*
X90351809Y-136686190D02*
X90342807Y-136669822D01*
X90318239Y-136631434D01*
X90280759Y-136575006D01*
X90233024Y-136504518D01*
X90177688Y-136423949D01*
X90155580Y-136392038D01*
X89960438Y-136111012D01*
X89603250Y-136109285D01*
X89246063Y-136107557D01*
X89071012Y-135858498D01*
X88895961Y-135609438D01*
X87340361Y-135601206D01*
X87138306Y-135885245D01*
X87079316Y-135969209D01*
X87027247Y-136045317D01*
X86984749Y-136109525D01*
X86954477Y-136157791D01*
X86939083Y-136186072D01*
X86937690Y-136190986D01*
X86946960Y-136208406D01*
X86972743Y-136248622D01*
X87013002Y-136308663D01*
X87065700Y-136385560D01*
X87128798Y-136476343D01*
X87200260Y-136578040D01*
X87278047Y-136687681D01*
X87287473Y-136700900D01*
X87635816Y-137189112D01*
X87459896Y-137436801D01*
X87405392Y-137514512D01*
X87358254Y-137583582D01*
X87321243Y-137639810D01*
X87297120Y-137678996D01*
X87288645Y-137696939D01*
X87288707Y-137697285D01*
X87298936Y-137713470D01*
X87324880Y-137751529D01*
X87363789Y-137807512D01*
X87412909Y-137877467D01*
X87469488Y-137957445D01*
X87491875Y-137988946D01*
X87690313Y-138267812D01*
X88825375Y-138267400D01*
X88898302Y-138267374D01*
X88898302Y-136587504D01*
X88883965Y-136577771D01*
X88856472Y-136546590D01*
X88819594Y-136499375D01*
X88777102Y-136441543D01*
X88732765Y-136378507D01*
X88690354Y-136315682D01*
X88653638Y-136258482D01*
X88626389Y-136212323D01*
X88612376Y-136182619D01*
X88611514Y-136175623D01*
X88623077Y-136155733D01*
X88649807Y-136115316D01*
X88688194Y-136059522D01*
X88734727Y-135993498D01*
X88755836Y-135963984D01*
X88804423Y-135898189D01*
X88846974Y-135844038D01*
X88880016Y-135805686D01*
X88900073Y-135787287D01*
X88904045Y-135786736D01*
X88917404Y-135804449D01*
X88944773Y-135842227D01*
X88981901Y-135894164D01*
X89016391Y-135942813D01*
X89061794Y-136006839D01*
X89104295Y-136066342D01*
X89138211Y-136113390D01*
X89153870Y-136134755D01*
X89190415Y-136183823D01*
X89051551Y-136382571D01*
X89002457Y-136451938D01*
X88959047Y-136511587D01*
X88924824Y-136556837D01*
X88903288Y-136583006D01*
X88898302Y-136587504D01*
X88898302Y-138267374D01*
X89251508Y-138267246D01*
X89251508Y-138093266D01*
X89236967Y-138081205D01*
X89209404Y-138047884D01*
X89172558Y-137998785D01*
X89130167Y-137939387D01*
X89085971Y-137875172D01*
X89043708Y-137811623D01*
X89007117Y-137754218D01*
X88979936Y-137708441D01*
X88965904Y-137679772D01*
X88965093Y-137673361D01*
X88977663Y-137654459D01*
X89004759Y-137614552D01*
X89042879Y-137558768D01*
X89088523Y-137492241D01*
X89109139Y-137462263D01*
X89242091Y-137269086D01*
X89242409Y-137269529D01*
X89242409Y-137108476D01*
X89098516Y-136899342D01*
X89050364Y-136827502D01*
X89010341Y-136764209D01*
X88981278Y-136714234D01*
X88966004Y-136682350D01*
X88964737Y-136673698D01*
X88977197Y-136655412D01*
X89004545Y-136616411D01*
X89043185Y-136561792D01*
X89089518Y-136496651D01*
X89108067Y-136470657D01*
X89156054Y-136404451D01*
X89197827Y-136348675D01*
X89229854Y-136307903D01*
X89248605Y-136286707D01*
X89251610Y-136284735D01*
X89263685Y-136297365D01*
X89290186Y-136331792D01*
X89327790Y-136383491D01*
X89373172Y-136447935D01*
X89399746Y-136486446D01*
X89537555Y-136687546D01*
X89432301Y-136839055D01*
X89385571Y-136906148D01*
X89340992Y-136969852D01*
X89304285Y-137022007D01*
X89284728Y-137049519D01*
X89242409Y-137108476D01*
X89242409Y-137269529D01*
X89284569Y-137328262D01*
X89311179Y-137365761D01*
X89350135Y-137421190D01*
X89395707Y-137486378D01*
X89432301Y-137538946D01*
X89537555Y-137690455D01*
X89399746Y-137891555D01*
X89351539Y-137961001D01*
X89309303Y-138020147D01*
X89276366Y-138064464D01*
X89256055Y-138089427D01*
X89251508Y-138093266D01*
X89251508Y-138267246D01*
X89603489Y-138267119D01*
X89603489Y-137593666D01*
X89591848Y-137583514D01*
X89565689Y-137552742D01*
X89528934Y-137506578D01*
X89485504Y-137450248D01*
X89439322Y-137388979D01*
X89394307Y-137327999D01*
X89354383Y-137272533D01*
X89323469Y-137227811D01*
X89305489Y-137199058D01*
X89302648Y-137192666D01*
X89310917Y-137178909D01*
X89334421Y-137143678D01*
X89370106Y-137091454D01*
X89414922Y-137026717D01*
X89445944Y-136982277D01*
X89495692Y-136912839D01*
X89539714Y-136854419D01*
X89574664Y-136811223D01*
X89597196Y-136787455D01*
X89603482Y-136784331D01*
X89620187Y-136802037D01*
X89649576Y-136840104D01*
X89687701Y-136892732D01*
X89730616Y-136954120D01*
X89774371Y-137018467D01*
X89815019Y-137079972D01*
X89848613Y-137132834D01*
X89871204Y-137171251D01*
X89878879Y-137189000D01*
X89870209Y-137208580D01*
X89846831Y-137248049D01*
X89812692Y-137301606D01*
X89771741Y-137363452D01*
X89727924Y-137427784D01*
X89685191Y-137488801D01*
X89647488Y-137540704D01*
X89618764Y-137577690D01*
X89603489Y-137593666D01*
X89603489Y-138267119D01*
X89953417Y-138266992D01*
X89953417Y-138085938D01*
X89939863Y-138073744D01*
X89912411Y-138040837D01*
X89875064Y-137992728D01*
X89831823Y-137934928D01*
X89786689Y-137872947D01*
X89743663Y-137812298D01*
X89706748Y-137758490D01*
X89679944Y-137717035D01*
X89667253Y-137693445D01*
X89666750Y-137691114D01*
X89675435Y-137673894D01*
X89699365Y-137635686D01*
X89735351Y-137581353D01*
X89780207Y-137515758D01*
X89804829Y-137480450D01*
X89853539Y-137412433D01*
X89896413Y-137355172D01*
X89930011Y-137313062D01*
X89950889Y-137290501D01*
X89952918Y-137289387D01*
X89952918Y-137085813D01*
X89939127Y-137073569D01*
X89911575Y-137040523D01*
X89874240Y-136992202D01*
X89831102Y-136934135D01*
X89786141Y-136871851D01*
X89743336Y-136810878D01*
X89706667Y-136756743D01*
X89680112Y-136714976D01*
X89667653Y-136691105D01*
X89667200Y-136688893D01*
X89675831Y-136670963D01*
X89699884Y-136632335D01*
X89736094Y-136577981D01*
X89781196Y-136512871D01*
X89802715Y-136482518D01*
X89851550Y-136415442D01*
X89894659Y-136358715D01*
X89928433Y-136316898D01*
X89949265Y-136294552D01*
X89953417Y-136292063D01*
X89967158Y-136304319D01*
X89994627Y-136337396D01*
X90031852Y-136385754D01*
X90074861Y-136443857D01*
X90119682Y-136506166D01*
X90162343Y-136567143D01*
X90198871Y-136621251D01*
X90225294Y-136662950D01*
X90237641Y-136686704D01*
X90238074Y-136688938D01*
X90229269Y-136708222D01*
X90205506Y-136746613D01*
X90170764Y-136798572D01*
X90129019Y-136858564D01*
X90084251Y-136921053D01*
X90040437Y-136980500D01*
X90001555Y-137031371D01*
X89971584Y-137068128D01*
X89954501Y-137085235D01*
X89952918Y-137085813D01*
X89952918Y-137289387D01*
X89955546Y-137287943D01*
X89969524Y-137302161D01*
X89997147Y-137337128D01*
X90034428Y-137387187D01*
X90077384Y-137446680D01*
X90122029Y-137509950D01*
X90164380Y-137571340D01*
X90200450Y-137625192D01*
X90226256Y-137665850D01*
X90237813Y-137687656D01*
X90238074Y-137689063D01*
X90229284Y-137708221D01*
X90205560Y-137746519D01*
X90170875Y-137798419D01*
X90129201Y-137858383D01*
X90084510Y-137920873D01*
X90040774Y-137980351D01*
X90001966Y-138031280D01*
X89972057Y-138068120D01*
X89955020Y-138085334D01*
X89953417Y-138085938D01*
X89953417Y-138266992D01*
X89960438Y-138266989D01*
X90157223Y-137983617D01*
X90214786Y-137899974D01*
X90265478Y-137824870D01*
X90306709Y-137762266D01*
X90335885Y-137716122D01*
X90350416Y-137690399D01*
X90351546Y-137686716D01*
X90342110Y-137669953D01*
X90317362Y-137631520D01*
X90280196Y-137575759D01*
X90233505Y-137507012D01*
X90181204Y-137431094D01*
X90013324Y-137189000D01*
X90183110Y-136944158D01*
X90236424Y-136866528D01*
X90282761Y-136797626D01*
X90319311Y-136741749D01*
X90343265Y-136703194D01*
X90351812Y-136686255D01*
X90351809Y-136686190D01*
G36*
X107585203Y-152764713D02*
G01*
X107522965Y-152606444D01*
X107452737Y-152426614D01*
X107465902Y-152269850D01*
X107477872Y-152235459D01*
X107501811Y-152020235D01*
X107424348Y-151827919D01*
X107271079Y-151682274D01*
X107067599Y-151607064D01*
X106839504Y-151626051D01*
X106826237Y-151630481D01*
X106692394Y-151661708D01*
X106545887Y-151653595D01*
X106345500Y-151601167D01*
X106210430Y-151556161D01*
X106007532Y-151493133D01*
X105809334Y-151451247D01*
X105581623Y-151426555D01*
X105290189Y-151415107D01*
X104968750Y-151412839D01*
X104624005Y-151414756D01*
X104365748Y-151424472D01*
X104153471Y-151448797D01*
X103946666Y-151494540D01*
X103704826Y-151568509D01*
X103387441Y-151677514D01*
X103381250Y-151679677D01*
X103049040Y-151790415D01*
X102720061Y-151890861D01*
X102433965Y-151969425D01*
X102242463Y-152012463D01*
X101650284Y-152074885D01*
X101008786Y-152069420D01*
X100357488Y-152000650D01*
X99735906Y-151873159D01*
X99183557Y-151691529D01*
X99076385Y-151645274D01*
X98855198Y-151546768D01*
X98717988Y-151496993D01*
X98633228Y-151491889D01*
X98569385Y-151527398D01*
X98520760Y-151573741D01*
X98401662Y-151666875D01*
X98317125Y-151699754D01*
X98235728Y-151690924D01*
X98045716Y-151665122D01*
X97763982Y-151624805D01*
X97407416Y-151572428D01*
X96992909Y-151510448D01*
X96537352Y-151441321D01*
X96488814Y-151433899D01*
X96028349Y-151365468D01*
X95605488Y-151306482D01*
X95237465Y-151259039D01*
X94941513Y-151225234D01*
X94734867Y-151207166D01*
X94634759Y-151206931D01*
X94631439Y-151207903D01*
X94589903Y-151236574D01*
X94560418Y-151298210D01*
X94540986Y-151411767D01*
X94529605Y-151596201D01*
X94524278Y-151870468D01*
X94523000Y-152235758D01*
X94524091Y-152610618D01*
X94528760Y-152876819D01*
X94539106Y-153052691D01*
X94557227Y-153156566D01*
X94585220Y-153206775D01*
X94625185Y-153221650D01*
X94635871Y-153222000D01*
X94849472Y-153161055D01*
X95031718Y-152983344D01*
X95176561Y-152696555D01*
X95251407Y-152439645D01*
X95321219Y-152133539D01*
X95557308Y-152476330D01*
X95742604Y-152718781D01*
X95993975Y-153011784D01*
X96281170Y-153323123D01*
X96573943Y-153620579D01*
X96842045Y-153871934D01*
X96967750Y-153978633D01*
X97221750Y-154182969D01*
X96936000Y-154435092D01*
X96592210Y-154687414D01*
X96167790Y-154920958D01*
X95709049Y-155113019D01*
X95316750Y-155229000D01*
X95069966Y-155286899D01*
X94852609Y-155340252D01*
X94713500Y-155377022D01*
X94554750Y-155423200D01*
X94537303Y-156449850D01*
X94533599Y-156886276D01*
X94539580Y-157199895D01*
X94555436Y-157394547D01*
X94581356Y-157474069D01*
X94588081Y-157476500D01*
X94790168Y-157418048D01*
X94981970Y-157261928D01*
X95142222Y-157036999D01*
X95249656Y-156772118D01*
X95283606Y-156532668D01*
X95293210Y-156389569D01*
X95344999Y-156340822D01*
X95477378Y-156353833D01*
X95491375Y-156356345D01*
X96062588Y-156428902D01*
X96621099Y-156442943D01*
X97124397Y-156398165D01*
X97277061Y-156369115D01*
X97719266Y-156238447D01*
X98179355Y-156047054D01*
X98612945Y-155816550D01*
X98975654Y-155568549D01*
X99051787Y-155504825D01*
X99346758Y-155245181D01*
X99840004Y-155343135D01*
X100133313Y-155398006D01*
X100430766Y-155448214D01*
X100668627Y-155483011D01*
X100671301Y-155483346D01*
X100865355Y-155511471D01*
X100960487Y-155545499D01*
X100984073Y-155604648D01*
X100967717Y-155691426D01*
X100915658Y-155914886D01*
X100853602Y-156205928D01*
X100786629Y-156537658D01*
X100719817Y-156883185D01*
X100658243Y-157215616D01*
X100606985Y-157508057D01*
X100571123Y-157733617D01*
X100555733Y-157865402D01*
X100555500Y-157874464D01*
X100587033Y-157995913D01*
X100670115Y-158191111D01*
X100787474Y-158428229D01*
X100921835Y-158675439D01*
X101055927Y-158900911D01*
X101172476Y-159072816D01*
X101252105Y-159158079D01*
X101323479Y-159136531D01*
X101427304Y-159039308D01*
X101445608Y-159016981D01*
X101511754Y-158920130D01*
X101547798Y-158817277D01*
X101554435Y-158680416D01*
X101532356Y-158481539D01*
X101482252Y-158192638D01*
X101467874Y-158116000D01*
X101460293Y-158029071D01*
X101473751Y-157925577D01*
X101514824Y-157788745D01*
X101590086Y-157601799D01*
X101706112Y-157347967D01*
X101869476Y-157010475D01*
X102021663Y-156703125D01*
X102200309Y-156347880D01*
X102361293Y-156034647D01*
X102495758Y-155780097D01*
X102594850Y-155600902D01*
X102649712Y-155513735D01*
X102656475Y-155508000D01*
X102704779Y-155556354D01*
X102817838Y-155691751D01*
X102984127Y-155899692D01*
X103192122Y-156165680D01*
X103430299Y-156475217D01*
X103543604Y-156623997D01*
X104390836Y-157739994D01*
X104968472Y-158020997D01*
X105219536Y-158139635D01*
X105431872Y-158233505D01*
X105577264Y-158290486D01*
X105622554Y-158302000D01*
X105674061Y-158241975D01*
X105697813Y-158071164D01*
X105699000Y-158007278D01*
X105684723Y-157805181D01*
X105623963Y-157666666D01*
X105492625Y-157532278D01*
X105302893Y-157365845D01*
X105110060Y-157195701D01*
X105087974Y-157176125D01*
X105002368Y-157082497D01*
X104914490Y-156944701D01*
X104815964Y-156745160D01*
X104698416Y-156466301D01*
X104553472Y-156090548D01*
X104491788Y-155924973D01*
X104093879Y-154849696D01*
X104277315Y-154699115D01*
X104537665Y-154515073D01*
X104797960Y-154382036D01*
X105023242Y-154316101D01*
X105114499Y-154313623D01*
X105275434Y-154385837D01*
X105441467Y-154571547D01*
X105463121Y-154603125D01*
X105614616Y-154794437D01*
X105731744Y-154864013D01*
X105815406Y-154812123D01*
X105850962Y-154718691D01*
X105951637Y-154511585D01*
X106114227Y-154388096D01*
X106233503Y-154365000D01*
X106331360Y-154383280D01*
X106366182Y-154462735D01*
X106364956Y-154578770D01*
X106342682Y-154748592D01*
X106306619Y-154865803D01*
X106304880Y-154868745D01*
X106315118Y-154965319D01*
X106441029Y-155089060D01*
X106588000Y-155184199D01*
X106709235Y-155229245D01*
X106892968Y-155273189D01*
X106947574Y-155283020D01*
X107211897Y-155326788D01*
X107255600Y-154893519D01*
X107323862Y-154519502D01*
X107441172Y-154168834D01*
X107467526Y-154111000D01*
X107576555Y-153795948D01*
X107633565Y-153437925D01*
X107636975Y-153079868D01*
X107585203Y-152764713D01*
G37*
X107585203Y-152764713D02*
X107522965Y-152606444D01*
X107452737Y-152426614D01*
X107465902Y-152269850D01*
X107477872Y-152235459D01*
X107501811Y-152020235D01*
X107424348Y-151827919D01*
X107271079Y-151682274D01*
X107067599Y-151607064D01*
X106839504Y-151626051D01*
X106826237Y-151630481D01*
X106692394Y-151661708D01*
X106545887Y-151653595D01*
X106345500Y-151601167D01*
X106210430Y-151556161D01*
X106007532Y-151493133D01*
X105809334Y-151451247D01*
X105581623Y-151426555D01*
X105290189Y-151415107D01*
X104968750Y-151412839D01*
X104624005Y-151414756D01*
X104365748Y-151424472D01*
X104153471Y-151448797D01*
X103946666Y-151494540D01*
X103704826Y-151568509D01*
X103387441Y-151677514D01*
X103381250Y-151679677D01*
X103049040Y-151790415D01*
X102720061Y-151890861D01*
X102433965Y-151969425D01*
X102242463Y-152012463D01*
X101650284Y-152074885D01*
X101008786Y-152069420D01*
X100357488Y-152000650D01*
X99735906Y-151873159D01*
X99183557Y-151691529D01*
X99076385Y-151645274D01*
X98855198Y-151546768D01*
X98717988Y-151496993D01*
X98633228Y-151491889D01*
X98569385Y-151527398D01*
X98520760Y-151573741D01*
X98401662Y-151666875D01*
X98317125Y-151699754D01*
X98235728Y-151690924D01*
X98045716Y-151665122D01*
X97763982Y-151624805D01*
X97407416Y-151572428D01*
X96992909Y-151510448D01*
X96537352Y-151441321D01*
X96488814Y-151433899D01*
X96028349Y-151365468D01*
X95605488Y-151306482D01*
X95237465Y-151259039D01*
X94941513Y-151225234D01*
X94734867Y-151207166D01*
X94634759Y-151206931D01*
X94631439Y-151207903D01*
X94589903Y-151236574D01*
X94560418Y-151298210D01*
X94540986Y-151411767D01*
X94529605Y-151596201D01*
X94524278Y-151870468D01*
X94523000Y-152235758D01*
X94524091Y-152610618D01*
X94528760Y-152876819D01*
X94539106Y-153052691D01*
X94557227Y-153156566D01*
X94585220Y-153206775D01*
X94625185Y-153221650D01*
X94635871Y-153222000D01*
X94849472Y-153161055D01*
X95031718Y-152983344D01*
X95176561Y-152696555D01*
X95251407Y-152439645D01*
X95321219Y-152133539D01*
X95557308Y-152476330D01*
X95742604Y-152718781D01*
X95993975Y-153011784D01*
X96281170Y-153323123D01*
X96573943Y-153620579D01*
X96842045Y-153871934D01*
X96967750Y-153978633D01*
X97221750Y-154182969D01*
X96936000Y-154435092D01*
X96592210Y-154687414D01*
X96167790Y-154920958D01*
X95709049Y-155113019D01*
X95316750Y-155229000D01*
X95069966Y-155286899D01*
X94852609Y-155340252D01*
X94713500Y-155377022D01*
X94554750Y-155423200D01*
X94537303Y-156449850D01*
X94533599Y-156886276D01*
X94539580Y-157199895D01*
X94555436Y-157394547D01*
X94581356Y-157474069D01*
X94588081Y-157476500D01*
X94790168Y-157418048D01*
X94981970Y-157261928D01*
X95142222Y-157036999D01*
X95249656Y-156772118D01*
X95283606Y-156532668D01*
X95293210Y-156389569D01*
X95344999Y-156340822D01*
X95477378Y-156353833D01*
X95491375Y-156356345D01*
X96062588Y-156428902D01*
X96621099Y-156442943D01*
X97124397Y-156398165D01*
X97277061Y-156369115D01*
X97719266Y-156238447D01*
X98179355Y-156047054D01*
X98612945Y-155816550D01*
X98975654Y-155568549D01*
X99051787Y-155504825D01*
X99346758Y-155245181D01*
X99840004Y-155343135D01*
X100133313Y-155398006D01*
X100430766Y-155448214D01*
X100668627Y-155483011D01*
X100671301Y-155483346D01*
X100865355Y-155511471D01*
X100960487Y-155545499D01*
X100984073Y-155604648D01*
X100967717Y-155691426D01*
X100915658Y-155914886D01*
X100853602Y-156205928D01*
X100786629Y-156537658D01*
X100719817Y-156883185D01*
X100658243Y-157215616D01*
X100606985Y-157508057D01*
X100571123Y-157733617D01*
X100555733Y-157865402D01*
X100555500Y-157874464D01*
X100587033Y-157995913D01*
X100670115Y-158191111D01*
X100787474Y-158428229D01*
X100921835Y-158675439D01*
X101055927Y-158900911D01*
X101172476Y-159072816D01*
X101252105Y-159158079D01*
X101323479Y-159136531D01*
X101427304Y-159039308D01*
X101445608Y-159016981D01*
X101511754Y-158920130D01*
X101547798Y-158817277D01*
X101554435Y-158680416D01*
X101532356Y-158481539D01*
X101482252Y-158192638D01*
X101467874Y-158116000D01*
X101460293Y-158029071D01*
X101473751Y-157925577D01*
X101514824Y-157788745D01*
X101590086Y-157601799D01*
X101706112Y-157347967D01*
X101869476Y-157010475D01*
X102021663Y-156703125D01*
X102200309Y-156347880D01*
X102361293Y-156034647D01*
X102495758Y-155780097D01*
X102594850Y-155600902D01*
X102649712Y-155513735D01*
X102656475Y-155508000D01*
X102704779Y-155556354D01*
X102817838Y-155691751D01*
X102984127Y-155899692D01*
X103192122Y-156165680D01*
X103430299Y-156475217D01*
X103543604Y-156623997D01*
X104390836Y-157739994D01*
X104968472Y-158020997D01*
X105219536Y-158139635D01*
X105431872Y-158233505D01*
X105577264Y-158290486D01*
X105622554Y-158302000D01*
X105674061Y-158241975D01*
X105697813Y-158071164D01*
X105699000Y-158007278D01*
X105684723Y-157805181D01*
X105623963Y-157666666D01*
X105492625Y-157532278D01*
X105302893Y-157365845D01*
X105110060Y-157195701D01*
X105087974Y-157176125D01*
X105002368Y-157082497D01*
X104914490Y-156944701D01*
X104815964Y-156745160D01*
X104698416Y-156466301D01*
X104553472Y-156090548D01*
X104491788Y-155924973D01*
X104093879Y-154849696D01*
X104277315Y-154699115D01*
X104537665Y-154515073D01*
X104797960Y-154382036D01*
X105023242Y-154316101D01*
X105114499Y-154313623D01*
X105275434Y-154385837D01*
X105441467Y-154571547D01*
X105463121Y-154603125D01*
X105614616Y-154794437D01*
X105731744Y-154864013D01*
X105815406Y-154812123D01*
X105850962Y-154718691D01*
X105951637Y-154511585D01*
X106114227Y-154388096D01*
X106233503Y-154365000D01*
X106331360Y-154383280D01*
X106366182Y-154462735D01*
X106364956Y-154578770D01*
X106342682Y-154748592D01*
X106306619Y-154865803D01*
X106304880Y-154868745D01*
X106315118Y-154965319D01*
X106441029Y-155089060D01*
X106588000Y-155184199D01*
X106709235Y-155229245D01*
X106892968Y-155273189D01*
X106947574Y-155283020D01*
X107211897Y-155326788D01*
X107255600Y-154893519D01*
X107323862Y-154519502D01*
X107441172Y-154168834D01*
X107467526Y-154111000D01*
X107576555Y-153795948D01*
X107633565Y-153437925D01*
X107636975Y-153079868D01*
X107585203Y-152764713D01*
D12*
%TO.C,SW4*%
X103000000Y-142500000D02*
G75*
G03*
X103000000Y-142500000I-3000000J0D01*
G01*
X94100000Y-144500000D02*
X94100000Y-148600000D01*
X105900000Y-148600000D02*
X105900000Y-144500000D01*
X105900000Y-140500000D02*
X105900000Y-136400000D01*
X94100000Y-140500000D02*
X94100000Y-136400000D01*
X94100000Y-136400000D02*
X105900000Y-136400000D01*
X96200000Y-135000000D02*
X95900000Y-134700000D01*
X95900000Y-134700000D02*
X95900000Y-135300000D01*
X95900000Y-135300000D02*
X96200000Y-135000000D01*
X94100000Y-148600000D02*
X96500000Y-148600000D01*
X98700000Y-148600000D02*
X101300000Y-148600000D01*
X103500000Y-148600000D02*
X105900000Y-148600000D01*
X99500000Y-142500000D02*
X100500000Y-142500000D01*
X100000000Y-142000000D02*
X100000000Y-143000000D01*
%TO.C,SW3*%
X86500000Y-77750000D02*
X85000000Y-77750000D01*
X82500000Y-76500000D02*
X82500000Y-72000000D01*
X85000000Y-70750000D02*
X86500000Y-70750000D01*
X89000000Y-72000000D02*
X89000000Y-76500000D01*
%TO.C,SW2*%
X100800000Y-77750000D02*
X99300000Y-77750000D01*
X96800000Y-76500000D02*
X96800000Y-72000000D01*
X99300000Y-70750000D02*
X100800000Y-70750000D01*
X103300000Y-72000000D02*
X103300000Y-76500000D01*
%TO.C,SW1*%
X115000000Y-77750000D02*
X113500000Y-77750000D01*
X111000000Y-76500000D02*
X111000000Y-72000000D01*
X113500000Y-70750000D02*
X115000000Y-70750000D01*
X117500000Y-72000000D02*
X117500000Y-76500000D01*
%TO.C,J2*%
X105130000Y-38130000D02*
X105130000Y-36800000D01*
X103800000Y-38130000D02*
X105130000Y-38130000D01*
X102530000Y-38130000D02*
X102530000Y-35470000D01*
X102530000Y-35470000D02*
X94850000Y-35470000D01*
X102530000Y-38130000D02*
X94850000Y-38130000D01*
X94850000Y-38130000D02*
X94850000Y-35470000D01*
%TO.C,D18*%
X123210000Y-41545000D02*
X123210000Y-38455000D01*
X128270000Y-40000000D02*
G75*
G03*
X128270000Y-40000000I-2500000J0D01*
G01*
X128760000Y-40000462D02*
G75*
G03*
X123210000Y-38455170I-2990000J462D01*
G01*
X128760000Y-39999538D02*
G75*
G02*
X123210000Y-41544830I-2990000J-462D01*
G01*
%TO.C,D17*%
X71710000Y-41545000D02*
X71710000Y-38455000D01*
X76770000Y-40000000D02*
G75*
G03*
X76770000Y-40000000I-2500000J0D01*
G01*
X77260000Y-40000462D02*
G75*
G03*
X71710000Y-38455170I-2990000J462D01*
G01*
X77260000Y-39999538D02*
G75*
G02*
X71710000Y-41544830I-2990000J-462D01*
G01*
%TO.C,SW4*%
D11*
X93204761Y-136466666D02*
X93252380Y-136609523D01*
X93252380Y-136847619D01*
X93204761Y-136942857D01*
X93157142Y-136990476D01*
X93061904Y-137038095D01*
X92966666Y-137038095D01*
X92871428Y-136990476D01*
X92823809Y-136942857D01*
X92776190Y-136847619D01*
X92728571Y-136657142D01*
X92680952Y-136561904D01*
X92633333Y-136514285D01*
X92538095Y-136466666D01*
X92442857Y-136466666D01*
X92347619Y-136514285D01*
X92300000Y-136561904D01*
X92252380Y-136657142D01*
X92252380Y-136895238D01*
X92300000Y-137038095D01*
X92252380Y-137371428D02*
X93252380Y-137609523D01*
X92538095Y-137800000D01*
X93252380Y-137990476D01*
X92252380Y-138228571D01*
X92585714Y-139038095D02*
X93252380Y-139038095D01*
X92204761Y-138800000D02*
X92919047Y-138561904D01*
X92919047Y-139180952D01*
X108352380Y-134785714D02*
X107876190Y-134452380D01*
X108352380Y-134214285D02*
X107352380Y-134214285D01*
X107352380Y-134595238D01*
X107400000Y-134690476D01*
X107447619Y-134738095D01*
X107542857Y-134785714D01*
X107685714Y-134785714D01*
X107780952Y-134738095D01*
X107828571Y-134690476D01*
X107876190Y-134595238D01*
X107876190Y-134214285D01*
X108352380Y-135357142D02*
X108304761Y-135261904D01*
X108257142Y-135214285D01*
X108161904Y-135166666D01*
X107876190Y-135166666D01*
X107780952Y-135214285D01*
X107733333Y-135261904D01*
X107685714Y-135357142D01*
X107685714Y-135500000D01*
X107733333Y-135595238D01*
X107780952Y-135642857D01*
X107876190Y-135690476D01*
X108161904Y-135690476D01*
X108257142Y-135642857D01*
X108304761Y-135595238D01*
X108352380Y-135500000D01*
X108352380Y-135357142D01*
X107685714Y-135976190D02*
X107685714Y-136357142D01*
X107352380Y-136119047D02*
X108209523Y-136119047D01*
X108304761Y-136166666D01*
X108352380Y-136261904D01*
X108352380Y-136357142D01*
X108352380Y-137119047D02*
X107828571Y-137119047D01*
X107733333Y-137071428D01*
X107685714Y-136976190D01*
X107685714Y-136785714D01*
X107733333Y-136690476D01*
X108304761Y-137119047D02*
X108352380Y-137023809D01*
X108352380Y-136785714D01*
X108304761Y-136690476D01*
X108209523Y-136642857D01*
X108114285Y-136642857D01*
X108019047Y-136690476D01*
X107971428Y-136785714D01*
X107971428Y-137023809D01*
X107923809Y-137119047D01*
X108352380Y-137595238D02*
X107685714Y-137595238D01*
X107876190Y-137595238D02*
X107780952Y-137642857D01*
X107733333Y-137690476D01*
X107685714Y-137785714D01*
X107685714Y-137880952D01*
X107685714Y-138119047D02*
X108352380Y-138357142D01*
X107685714Y-138595238D02*
X108352380Y-138357142D01*
X108590476Y-138261904D01*
X108638095Y-138214285D01*
X108685714Y-138119047D01*
X108447619Y-138738095D02*
X108447619Y-139500000D01*
X107828571Y-139738095D02*
X107828571Y-140071428D01*
X108352380Y-140214285D02*
X108352380Y-139738095D01*
X107352380Y-139738095D01*
X107352380Y-140214285D01*
X107685714Y-140642857D02*
X108352380Y-140642857D01*
X107780952Y-140642857D02*
X107733333Y-140690476D01*
X107685714Y-140785714D01*
X107685714Y-140928571D01*
X107733333Y-141023809D01*
X107828571Y-141071428D01*
X108352380Y-141071428D01*
X108304761Y-141976190D02*
X108352380Y-141880952D01*
X108352380Y-141690476D01*
X108304761Y-141595238D01*
X108257142Y-141547619D01*
X108161904Y-141500000D01*
X107876190Y-141500000D01*
X107780952Y-141547619D01*
X107733333Y-141595238D01*
X107685714Y-141690476D01*
X107685714Y-141880952D01*
X107733333Y-141976190D01*
X108352380Y-142547619D02*
X108304761Y-142452380D01*
X108257142Y-142404761D01*
X108161904Y-142357142D01*
X107876190Y-142357142D01*
X107780952Y-142404761D01*
X107733333Y-142452380D01*
X107685714Y-142547619D01*
X107685714Y-142690476D01*
X107733333Y-142785714D01*
X107780952Y-142833333D01*
X107876190Y-142880952D01*
X108161904Y-142880952D01*
X108257142Y-142833333D01*
X108304761Y-142785714D01*
X108352380Y-142690476D01*
X108352380Y-142547619D01*
X108352380Y-143738095D02*
X107352380Y-143738095D01*
X108304761Y-143738095D02*
X108352380Y-143642857D01*
X108352380Y-143452380D01*
X108304761Y-143357142D01*
X108257142Y-143309523D01*
X108161904Y-143261904D01*
X107876190Y-143261904D01*
X107780952Y-143309523D01*
X107733333Y-143357142D01*
X107685714Y-143452380D01*
X107685714Y-143642857D01*
X107733333Y-143738095D01*
X108304761Y-144595238D02*
X108352380Y-144500000D01*
X108352380Y-144309523D01*
X108304761Y-144214285D01*
X108209523Y-144166666D01*
X107828571Y-144166666D01*
X107733333Y-144214285D01*
X107685714Y-144309523D01*
X107685714Y-144500000D01*
X107733333Y-144595238D01*
X107828571Y-144642857D01*
X107923809Y-144642857D01*
X108019047Y-144166666D01*
X108352380Y-145071428D02*
X107685714Y-145071428D01*
X107876190Y-145071428D02*
X107780952Y-145119047D01*
X107733333Y-145166666D01*
X107685714Y-145261904D01*
X107685714Y-145357142D01*
X108447619Y-145452380D02*
X108447619Y-146214285D01*
X108304761Y-146404761D02*
X108352380Y-146547619D01*
X108352380Y-146785714D01*
X108304761Y-146880952D01*
X108257142Y-146928571D01*
X108161904Y-146976190D01*
X108066666Y-146976190D01*
X107971428Y-146928571D01*
X107923809Y-146880952D01*
X107876190Y-146785714D01*
X107828571Y-146595238D01*
X107780952Y-146500000D01*
X107733333Y-146452380D01*
X107638095Y-146404761D01*
X107542857Y-146404761D01*
X107447619Y-146452380D01*
X107400000Y-146500000D01*
X107352380Y-146595238D01*
X107352380Y-146833333D01*
X107400000Y-146976190D01*
X107685714Y-147309523D02*
X108352380Y-147500000D01*
X107876190Y-147690476D01*
X108352380Y-147880952D01*
X107685714Y-148071428D01*
X108352380Y-148452380D02*
X107685714Y-148452380D01*
X107352380Y-148452380D02*
X107400000Y-148404761D01*
X107447619Y-148452380D01*
X107400000Y-148500000D01*
X107352380Y-148452380D01*
X107447619Y-148452380D01*
X107685714Y-148785714D02*
X107685714Y-149166666D01*
X107352380Y-148928571D02*
X108209523Y-148928571D01*
X108304761Y-148976190D01*
X108352380Y-149071428D01*
X108352380Y-149166666D01*
X108304761Y-149928571D02*
X108352380Y-149833333D01*
X108352380Y-149642857D01*
X108304761Y-149547619D01*
X108257142Y-149500000D01*
X108161904Y-149452380D01*
X107876190Y-149452380D01*
X107780952Y-149500000D01*
X107733333Y-149547619D01*
X107685714Y-149642857D01*
X107685714Y-149833333D01*
X107733333Y-149928571D01*
X108352380Y-150357142D02*
X107352380Y-150357142D01*
X108352380Y-150785714D02*
X107828571Y-150785714D01*
X107733333Y-150738095D01*
X107685714Y-150642857D01*
X107685714Y-150500000D01*
X107733333Y-150404761D01*
X107780952Y-150357142D01*
%TO.C,SW3*%
X81904761Y-72916666D02*
X81952380Y-73059523D01*
X81952380Y-73297619D01*
X81904761Y-73392857D01*
X81857142Y-73440476D01*
X81761904Y-73488095D01*
X81666666Y-73488095D01*
X81571428Y-73440476D01*
X81523809Y-73392857D01*
X81476190Y-73297619D01*
X81428571Y-73107142D01*
X81380952Y-73011904D01*
X81333333Y-72964285D01*
X81238095Y-72916666D01*
X81142857Y-72916666D01*
X81047619Y-72964285D01*
X81000000Y-73011904D01*
X80952380Y-73107142D01*
X80952380Y-73345238D01*
X81000000Y-73488095D01*
X80952380Y-73821428D02*
X81952380Y-74059523D01*
X81238095Y-74250000D01*
X81952380Y-74440476D01*
X80952380Y-74678571D01*
X80952380Y-74964285D02*
X80952380Y-75583333D01*
X81333333Y-75250000D01*
X81333333Y-75392857D01*
X81380952Y-75488095D01*
X81428571Y-75535714D01*
X81523809Y-75583333D01*
X81761904Y-75583333D01*
X81857142Y-75535714D01*
X81904761Y-75488095D01*
X81952380Y-75392857D01*
X81952380Y-75107142D01*
X81904761Y-75011904D01*
X81857142Y-74964285D01*
%TO.C,SW2*%
X96204761Y-72916666D02*
X96252380Y-73059523D01*
X96252380Y-73297619D01*
X96204761Y-73392857D01*
X96157142Y-73440476D01*
X96061904Y-73488095D01*
X95966666Y-73488095D01*
X95871428Y-73440476D01*
X95823809Y-73392857D01*
X95776190Y-73297619D01*
X95728571Y-73107142D01*
X95680952Y-73011904D01*
X95633333Y-72964285D01*
X95538095Y-72916666D01*
X95442857Y-72916666D01*
X95347619Y-72964285D01*
X95300000Y-73011904D01*
X95252380Y-73107142D01*
X95252380Y-73345238D01*
X95300000Y-73488095D01*
X95252380Y-73821428D02*
X96252380Y-74059523D01*
X95538095Y-74250000D01*
X96252380Y-74440476D01*
X95252380Y-74678571D01*
X95347619Y-75011904D02*
X95300000Y-75059523D01*
X95252380Y-75154761D01*
X95252380Y-75392857D01*
X95300000Y-75488095D01*
X95347619Y-75535714D01*
X95442857Y-75583333D01*
X95538095Y-75583333D01*
X95680952Y-75535714D01*
X96252380Y-74964285D01*
X96252380Y-75583333D01*
%TO.C,SW1*%
X110404761Y-72916666D02*
X110452380Y-73059523D01*
X110452380Y-73297619D01*
X110404761Y-73392857D01*
X110357142Y-73440476D01*
X110261904Y-73488095D01*
X110166666Y-73488095D01*
X110071428Y-73440476D01*
X110023809Y-73392857D01*
X109976190Y-73297619D01*
X109928571Y-73107142D01*
X109880952Y-73011904D01*
X109833333Y-72964285D01*
X109738095Y-72916666D01*
X109642857Y-72916666D01*
X109547619Y-72964285D01*
X109500000Y-73011904D01*
X109452380Y-73107142D01*
X109452380Y-73345238D01*
X109500000Y-73488095D01*
X109452380Y-73821428D02*
X110452380Y-74059523D01*
X109738095Y-74250000D01*
X110452380Y-74440476D01*
X109452380Y-74678571D01*
X110452380Y-75583333D02*
X110452380Y-75011904D01*
X110452380Y-75297619D02*
X109452380Y-75297619D01*
X109595238Y-75202380D01*
X109690476Y-75107142D01*
X109738095Y-75011904D01*
%TO.C,J2*%
X105582380Y-36466666D02*
X106296666Y-36466666D01*
X106439523Y-36419047D01*
X106534761Y-36323809D01*
X106582380Y-36180952D01*
X106582380Y-36085714D01*
X105677619Y-36895238D02*
X105630000Y-36942857D01*
X105582380Y-37038095D01*
X105582380Y-37276190D01*
X105630000Y-37371428D01*
X105677619Y-37419047D01*
X105772857Y-37466666D01*
X105868095Y-37466666D01*
X106010952Y-37419047D01*
X106582380Y-36847619D01*
X106582380Y-37466666D01*
%TO.C,D18*%
X126984285Y-44412380D02*
X126984285Y-43412380D01*
X126746190Y-43412380D01*
X126603333Y-43460000D01*
X126508095Y-43555238D01*
X126460476Y-43650476D01*
X126412857Y-43840952D01*
X126412857Y-43983809D01*
X126460476Y-44174285D01*
X126508095Y-44269523D01*
X126603333Y-44364761D01*
X126746190Y-44412380D01*
X126984285Y-44412380D01*
X125460476Y-44412380D02*
X126031904Y-44412380D01*
X125746190Y-44412380D02*
X125746190Y-43412380D01*
X125841428Y-43555238D01*
X125936666Y-43650476D01*
X126031904Y-43698095D01*
X124889047Y-43840952D02*
X124984285Y-43793333D01*
X125031904Y-43745714D01*
X125079523Y-43650476D01*
X125079523Y-43602857D01*
X125031904Y-43507619D01*
X124984285Y-43460000D01*
X124889047Y-43412380D01*
X124698571Y-43412380D01*
X124603333Y-43460000D01*
X124555714Y-43507619D01*
X124508095Y-43602857D01*
X124508095Y-43650476D01*
X124555714Y-43745714D01*
X124603333Y-43793333D01*
X124698571Y-43840952D01*
X124889047Y-43840952D01*
X124984285Y-43888571D01*
X125031904Y-43936190D01*
X125079523Y-44031428D01*
X125079523Y-44221904D01*
X125031904Y-44317142D01*
X124984285Y-44364761D01*
X124889047Y-44412380D01*
X124698571Y-44412380D01*
X124603333Y-44364761D01*
X124555714Y-44317142D01*
X124508095Y-44221904D01*
X124508095Y-44031428D01*
X124555714Y-43936190D01*
X124603333Y-43888571D01*
X124698571Y-43840952D01*
X126412857Y-36492380D02*
X126889047Y-36492380D01*
X126889047Y-35492380D01*
X126079523Y-35968571D02*
X125746190Y-35968571D01*
X125603333Y-36492380D02*
X126079523Y-36492380D01*
X126079523Y-35492380D01*
X125603333Y-35492380D01*
X125174761Y-36492380D02*
X125174761Y-35492380D01*
X124936666Y-35492380D01*
X124793809Y-35540000D01*
X124698571Y-35635238D01*
X124650952Y-35730476D01*
X124603333Y-35920952D01*
X124603333Y-36063809D01*
X124650952Y-36254285D01*
X124698571Y-36349523D01*
X124793809Y-36444761D01*
X124936666Y-36492380D01*
X125174761Y-36492380D01*
%TO.C,D17*%
X75484285Y-44412380D02*
X75484285Y-43412380D01*
X75246190Y-43412380D01*
X75103333Y-43460000D01*
X75008095Y-43555238D01*
X74960476Y-43650476D01*
X74912857Y-43840952D01*
X74912857Y-43983809D01*
X74960476Y-44174285D01*
X75008095Y-44269523D01*
X75103333Y-44364761D01*
X75246190Y-44412380D01*
X75484285Y-44412380D01*
X73960476Y-44412380D02*
X74531904Y-44412380D01*
X74246190Y-44412380D02*
X74246190Y-43412380D01*
X74341428Y-43555238D01*
X74436666Y-43650476D01*
X74531904Y-43698095D01*
X73627142Y-43412380D02*
X72960476Y-43412380D01*
X73389047Y-44412380D01*
X74912857Y-36492380D02*
X75389047Y-36492380D01*
X75389047Y-35492380D01*
X74579523Y-35968571D02*
X74246190Y-35968571D01*
X74103333Y-36492380D02*
X74579523Y-36492380D01*
X74579523Y-35492380D01*
X74103333Y-35492380D01*
X73674761Y-36492380D02*
X73674761Y-35492380D01*
X73436666Y-35492380D01*
X73293809Y-35540000D01*
X73198571Y-35635238D01*
X73150952Y-35730476D01*
X73103333Y-35920952D01*
X73103333Y-36063809D01*
X73150952Y-36254285D01*
X73198571Y-36349523D01*
X73293809Y-36444761D01*
X73436666Y-36492380D01*
X73674761Y-36492380D01*
%TD*%
M02*
