M48
; DRILL file {KiCad 5.1.10-88a1d61d58~88~ubuntu20.10.1} date Sat May 15 16:12:07 2021
; FORMAT={-:-/ absolute / inch / decimal}
; #@! TF.CreationDate,2021-05-15T16:12:07+02:00
; #@! TF.GenerationSoftware,Kicad,Pcbnew,5.1.10-88a1d61d58~88~ubuntu20.10.1
; #@! TF.FileFunction,Plated,1,2,PTH
FMAT,2
INCH
T1C0.1260
T2C0.1378
T3C0.1969
T4C0.2835
T5C0.3937
T6C0.5906
%
G90
G05
T1
X3.1496Y-7.5984
X3.1496Y-8.4646
X3.622Y-3.4252
X3.937Y-7.5984
X3.937Y-8.4646
X4.252Y-3.4252
X4.7244Y-7.5984
X4.7244Y-8.4646
T2
X3.376Y-3.3169
X3.937Y-3.3169
X4.498Y-3.3169
T3
X2.9291Y-1.9724
X4.9449Y-1.9724
T4
X3.937Y-6.0039
T5
X2.3622Y-2.1654
X2.3622Y-2.9528
X2.3622Y-3.7402
X2.3622Y-4.5276
X2.3622Y-5.315
X2.3622Y-6.1024
X2.3622Y-6.8898
X2.3622Y-7.6772
X5.5118Y-2.1654
X5.5118Y-2.9528
X5.5118Y-3.7402
X5.5118Y-4.5276
X5.5118Y-5.315
X5.5118Y-6.1024
X5.5118Y-6.8898
X5.5118Y-7.6772
T6
X3.1496Y-8.0315
X3.937Y-8.0315
X4.7244Y-8.0315
T1
G00X2.0906Y-1.2992
M15
G01X2.2008Y-1.2992
M16
G05
G00X2.0906Y-8.937
M15
G01X2.2008Y-8.937
M16
G05
G00X5.6732Y-1.2992
M15
G01X5.7835Y-1.2992
M16
G05
G00X5.6732Y-8.937
M15
G01X5.7835Y-8.937
M16
G05
T0
M30
