%TF.GenerationSoftware,KiCad,Pcbnew,5.1.10-88a1d61d58~88~ubuntu20.10.1*%
%TF.CreationDate,2021-05-15T16:12:09+02:00*%
%TF.ProjectId,kosmo-multitool-panel,6b6f736d-6f2d-46d7-956c-7469746f6f6c,v1.0.0*%
%TF.SameCoordinates,Original*%
%TF.FileFunction,Legend,Top*%
%TF.FilePolarity,Positive*%
%FSLAX46Y46*%
G04 Gerber Fmt 4.6, Leading zero omitted, Abs format (unit mm)*
G04 Created by KiCad (PCBNEW 5.1.10-88a1d61d58~88~ubuntu20.10.1) date 2021-05-15 16:12:09*
%MOMM*%
%LPD*%
G01*
G04 APERTURE LIST*
%ADD10C,0.150000*%
G04 APERTURE END LIST*
%TO.C,REF\u002A\u002A*%
D10*
X80952380Y-205333333D02*
X80476190Y-205666666D01*
X80952380Y-205904761D02*
X79952380Y-205904761D01*
X79952380Y-205523809D01*
X80000000Y-205428571D01*
X80047619Y-205380952D01*
X80142857Y-205333333D01*
X80285714Y-205333333D01*
X80380952Y-205380952D01*
X80428571Y-205428571D01*
X80476190Y-205523809D01*
X80476190Y-205904761D01*
X80428571Y-204904761D02*
X80428571Y-204571428D01*
X80952380Y-204428571D02*
X80952380Y-204904761D01*
X79952380Y-204904761D01*
X79952380Y-204428571D01*
X80428571Y-203666666D02*
X80428571Y-204000000D01*
X80952380Y-204000000D02*
X79952380Y-204000000D01*
X79952380Y-203523809D01*
X79952380Y-203000000D02*
X80190476Y-203000000D01*
X80095238Y-203238095D02*
X80190476Y-203000000D01*
X80095238Y-202761904D01*
X80380952Y-203142857D02*
X80190476Y-203000000D01*
X80380952Y-202857142D01*
X79952380Y-202238095D02*
X80190476Y-202238095D01*
X80095238Y-202476190D02*
X80190476Y-202238095D01*
X80095238Y-202000000D01*
X80380952Y-202380952D02*
X80190476Y-202238095D01*
X80380952Y-202095238D01*
X120952380Y-205333333D02*
X120476190Y-205666666D01*
X120952380Y-205904761D02*
X119952380Y-205904761D01*
X119952380Y-205523809D01*
X120000000Y-205428571D01*
X120047619Y-205380952D01*
X120142857Y-205333333D01*
X120285714Y-205333333D01*
X120380952Y-205380952D01*
X120428571Y-205428571D01*
X120476190Y-205523809D01*
X120476190Y-205904761D01*
X120428571Y-204904761D02*
X120428571Y-204571428D01*
X120952380Y-204428571D02*
X120952380Y-204904761D01*
X119952380Y-204904761D01*
X119952380Y-204428571D01*
X120428571Y-203666666D02*
X120428571Y-204000000D01*
X120952380Y-204000000D02*
X119952380Y-204000000D01*
X119952380Y-203523809D01*
X119952380Y-203000000D02*
X120190476Y-203000000D01*
X120095238Y-203238095D02*
X120190476Y-203000000D01*
X120095238Y-202761904D01*
X120380952Y-203142857D02*
X120190476Y-203000000D01*
X120380952Y-202857142D01*
X119952380Y-202238095D02*
X120190476Y-202238095D01*
X120095238Y-202476190D02*
X120190476Y-202238095D01*
X120095238Y-202000000D01*
X120380952Y-202380952D02*
X120190476Y-202238095D01*
X120380952Y-202095238D01*
X100952380Y-205333333D02*
X100476190Y-205666666D01*
X100952380Y-205904761D02*
X99952380Y-205904761D01*
X99952380Y-205523809D01*
X100000000Y-205428571D01*
X100047619Y-205380952D01*
X100142857Y-205333333D01*
X100285714Y-205333333D01*
X100380952Y-205380952D01*
X100428571Y-205428571D01*
X100476190Y-205523809D01*
X100476190Y-205904761D01*
X100428571Y-204904761D02*
X100428571Y-204571428D01*
X100952380Y-204428571D02*
X100952380Y-204904761D01*
X99952380Y-204904761D01*
X99952380Y-204428571D01*
X100428571Y-203666666D02*
X100428571Y-204000000D01*
X100952380Y-204000000D02*
X99952380Y-204000000D01*
X99952380Y-203523809D01*
X99952380Y-203000000D02*
X100190476Y-203000000D01*
X100095238Y-203238095D02*
X100190476Y-203000000D01*
X100095238Y-202761904D01*
X100380952Y-203142857D02*
X100190476Y-203000000D01*
X100380952Y-202857142D01*
X99952380Y-202238095D02*
X100190476Y-202238095D01*
X100095238Y-202476190D02*
X100190476Y-202238095D01*
X100095238Y-202000000D01*
X100380952Y-202380952D02*
X100190476Y-202238095D01*
X100380952Y-202095238D01*
%TD*%
M02*
